<?xml version="1.0" encoding="UTF-8" standalone="no"?>
<svg
   xmlns:osb="http://www.openswatchbook.org/uri/2009/osb"
   xmlns:dc="http://purl.org/dc/elements/1.1/"
   xmlns:cc="http://creativecommons.org/ns#"
   xmlns:rdf="http://www.w3.org/1999/02/22-rdf-syntax-ns#"
   xmlns:svg="http://www.w3.org/2000/svg"
   xmlns="http://www.w3.org/2000/svg"
   xmlns:xlink="http://www.w3.org/1999/xlink"
   xmlns:sodipodi="http://sodipodi.sourceforge.net/DTD/sodipodi-0.dtd"
   xmlns:inkscape="http://www.inkscape.org/namespaces/inkscape"
   width="210mm"
   height="297mm"
   viewBox="0 0 210 297"
   version="1.1"
   id="svg8"
   inkscape:version="1.0.2 (e86c870879, 2021-01-15)"
   sodipodi:docname="elt_articles.svg"
   inkscape:export-filename="C:\Users\Renato\Desktop\esquema_servicos.png"
   inkscape:export-xdpi="96"
   inkscape:export-ydpi="96">
  <defs
     id="defs2">
    <linearGradient
       id="linearGradient1231"
       osb:paint="solid">
      <stop
         style="stop-color:#000000;stop-opacity:1;"
         offset="0"
         id="stop1229" />
    </linearGradient>
    <linearGradient
       id="linearGradient1225"
       osb:paint="solid">
      <stop
         style="stop-color:#008080;stop-opacity:1;"
         offset="0"
         id="stop1223" />
    </linearGradient>
    <linearGradient
       id="linearGradient1217"
       osb:paint="solid">
      <stop
         style="stop-color:#000000;stop-opacity:1;"
         offset="0"
         id="stop1215" />
    </linearGradient>
    <marker
       style="overflow:visible"
       id="Arrow2Lstart"
       refX="0.0"
       refY="0.0"
       orient="auto"
       inkscape:stockid="Arrow2Lstart"
       inkscape:isstock="true">
      <path
         transform="scale(1.1) translate(1,0)"
         d="M 8.7185878,4.0337352 L -2.2072895,0.016013256 L 8.7185884,-4.0017078 C 6.9730900,-1.6296469 6.9831476,1.6157441 8.7185878,4.0337352 z "
         style="fill-rule:evenodd;stroke-width:0.625;stroke-linejoin:round;stroke:#000000;stroke-opacity:1;fill:#000000;fill-opacity:1"
         id="path853" />
    </marker>
    <marker
       style="overflow:visible"
       id="Arrow2Lstart-7"
       refX="0"
       refY="0"
       orient="auto"
       inkscape:stockid="Arrow2Lstart"
       inkscape:isstock="true">
      <path
         transform="matrix(1.1,0,0,1.1,1.1,0)"
         d="M 8.7185878,4.0337352 -2.2072895,0.01601326 8.7185884,-4.0017078 c -1.7454984,2.3720609 -1.7354408,5.6174519 -6e-7,8.035443 z"
         style="fill:#000000;fill-opacity:1;fill-rule:evenodd;stroke:#000000;stroke-width:0.625;stroke-linejoin:round;stroke-opacity:1"
         id="path853-2" />
    </marker>
    <marker
       style="overflow:visible"
       id="Arrow2Lstart-78"
       refX="0"
       refY="0"
       orient="auto"
       inkscape:stockid="Arrow2Lstart"
       inkscape:isstock="true">
      <path
         transform="matrix(1.1,0,0,1.1,1.1,0)"
         d="M 8.7185878,4.0337352 -2.2072895,0.01601326 8.7185884,-4.0017078 c -1.7454984,2.3720609 -1.7354408,5.6174519 -6e-7,8.035443 z"
         style="fill:#000000;fill-opacity:1;fill-rule:evenodd;stroke:#000000;stroke-width:0.625;stroke-linejoin:round;stroke-opacity:1"
         id="path853-8" />
    </marker>
    <marker
       style="overflow:visible"
       id="Arrow2Lstart-78-2"
       refX="0"
       refY="0"
       orient="auto"
       inkscape:stockid="Arrow2Lstart"
       inkscape:isstock="true">
      <path
         transform="matrix(1.1,0,0,1.1,1.1,0)"
         d="M 8.7185878,4.0337352 -2.2072895,0.01601326 8.7185884,-4.0017078 c -1.7454984,2.3720609 -1.7354408,5.6174519 -6e-7,8.035443 z"
         style="fill:#000000;fill-opacity:1;fill-rule:evenodd;stroke:#000000;stroke-width:0.625;stroke-linejoin:round;stroke-opacity:1"
         id="path853-8-0" />
    </marker>
    <linearGradient
       inkscape:collect="always"
       xlink:href="#linearGradient1217"
       id="linearGradient1219"
       x1="111.69196"
       y1="35.340775"
       x2="176.89285"
       y2="35.340775"
       gradientUnits="userSpaceOnUse" />
    <marker
       style="overflow:visible"
       id="Arrow2Lstart-78-2-5"
       refX="0"
       refY="0"
       orient="auto"
       inkscape:stockid="Arrow2Lstart"
       inkscape:isstock="true">
      <path
         transform="matrix(1.1,0,0,1.1,1.1,0)"
         d="M 8.7185878,4.0337352 -2.2072895,0.01601326 8.7185884,-4.0017078 c -1.7454984,2.3720609 -1.7354408,5.6174519 -6e-7,8.035443 z"
         style="fill:#000000;fill-opacity:1;fill-rule:evenodd;stroke:#000000;stroke-width:0.625;stroke-linejoin:round;stroke-opacity:1"
         id="path853-8-0-9" />
    </marker>
    <marker
       style="overflow:visible"
       id="Arrow2Lstart-71"
       refX="0"
       refY="0"
       orient="auto"
       inkscape:stockid="Arrow2Lstart"
       inkscape:isstock="true">
      <path
         transform="matrix(1.1,0,0,1.1,1.1,0)"
         d="M 8.7185878,4.0337352 -2.2072895,0.01601326 8.7185884,-4.0017078 c -1.7454984,2.3720609 -1.7354408,5.6174519 -6e-7,8.035443 z"
         style="fill:#000000;fill-opacity:1;fill-rule:evenodd;stroke:#000000;stroke-width:0.625;stroke-linejoin:round;stroke-opacity:1"
         id="path853-7" />
    </marker>
    <marker
       style="overflow:visible"
       id="Arrow2Lstart-78-2-7"
       refX="0"
       refY="0"
       orient="auto"
       inkscape:stockid="Arrow2Lstart"
       inkscape:isstock="true">
      <path
         transform="matrix(1.1,0,0,1.1,1.1,0)"
         d="M 8.7185878,4.0337352 -2.2072895,0.01601326 8.7185884,-4.0017078 c -1.7454984,2.3720609 -1.7354408,5.6174519 -6e-7,8.035443 z"
         style="fill:#000000;fill-opacity:1;fill-rule:evenodd;stroke:#000000;stroke-width:0.625;stroke-linejoin:round;stroke-opacity:1"
         id="path853-8-0-8" />
    </marker>
    <linearGradient
       inkscape:collect="always"
       xlink:href="#linearGradient1225"
       id="linearGradient1785"
       gradientUnits="userSpaceOnUse"
       gradientTransform="matrix(0.93856592,0,0,0.55314251,-8.0374757,64.931537)"
       x1="112.19791"
       y1="40.254463"
       x2="183.37946"
       y2="40.254463" />
    <linearGradient
       inkscape:collect="always"
       xlink:href="#linearGradient1225"
       id="linearGradient2238"
       gradientUnits="userSpaceOnUse"
       gradientTransform="matrix(0.93856592,0,0,0.55314251,-8.8110484,34.165009)"
       x1="112.19791"
       y1="40.254463"
       x2="183.37946"
       y2="40.254463" />
    <linearGradient
       inkscape:collect="always"
       xlink:href="#linearGradient1225"
       id="linearGradient2266"
       gradientUnits="userSpaceOnUse"
       gradientTransform="matrix(0.93856592,0,0,0.55314251,-9.3509578,7.1385511)"
       x1="112.19791"
       y1="40.254463"
       x2="183.37946"
       y2="40.254463" />
  </defs>
  <sodipodi:namedview
     id="base"
     pagecolor="#ffffff"
     bordercolor="#666666"
     borderopacity="1.0"
     inkscape:pageopacity="0.0"
     inkscape:pageshadow="2"
     inkscape:zoom="0.98994949"
     inkscape:cx="432.85333"
     inkscape:cy="210.20204"
     inkscape:document-units="mm"
     inkscape:current-layer="layer1"
     inkscape:document-rotation="0"
     showgrid="false"
     inkscape:window-width="1366"
     inkscape:window-height="705"
     inkscape:window-x="-8"
     inkscape:window-y="-8"
     inkscape:window-maximized="1" />
  <metadata
     id="metadata5">
    <rdf:RDF>
      <cc:Work
         rdf:about="">
        <dc:format>image/svg+xml</dc:format>
        <dc:type
           rdf:resource="http://purl.org/dc/dcmitype/StillImage" />
        <dc:title></dc:title>
      </cc:Work>
    </rdf:RDF>
  </metadata>
  <g
     inkscape:label="Layer 1"
     inkscape:groupmode="layer"
     id="layer1">
    <text
       xml:space="preserve"
       style="font-style:normal;font-weight:normal;font-size:3.88056px;line-height:1.25;font-family:sans-serif;letter-spacing:0px;word-spacing:0px;fill:#008080;fill-opacity:1;stroke:none;stroke-width:0.264583"
       x="67.150436"
       y="38.052586"
       id="text32-6"><tspan
         sodipodi:role="line"
         id="tspan30-9"
         x="67.150436"
         y="38.052586"
         style="font-style:normal;font-variant:normal;font-weight:normal;font-stretch:normal;font-family:Arial;-inkscape-font-specification:Arial;fill:#008080;stroke-width:0.264583">Rest API</tspan></text>
    <path
       style="fill:#000000;stroke:#000000;stroke-width:0.177832;stroke-linecap:butt;stroke-linejoin:miter;stroke-miterlimit:4;stroke-dasharray:none;stroke-opacity:1;marker-start:url(#Arrow2Lstart)"
       d="M 35.820771,21.235748 H 55.75866"
       id="path10" />
    <path
       style="fill:#008080;stroke-width:0.148823"
       d="m 12.038166,36.097422 c -0.14732,-0.107727 -0.243133,-0.325379 -0.212911,-0.483678 0.04877,-0.255463 0.222028,-0.29617 1.541622,-0.362222 l 1.486673,-0.07441 0.045,-0.78132 0.045,-0.781321 h 2.894244 2.894278 v 0.813489 0.813495 l 1.598084,0.04224 c 1.44361,0.03814 1.603422,0.07006 1.653241,0.330048 0.124112,0.647641 -0.161269,0.679545 -6.078965,0.679545 -4.393771,0 -5.656036,-0.04213 -5.866263,-0.195867 z M 6.6533867,32.661997 c -0.497003,-0.496998 -0.506003,-0.528756 -0.506003,-1.78588 V 29.59624 H 17.830018 29.512646 v 1.056476 c 0,1.239041 -0.292547,1.981573 -0.905618,2.298604 C 28.251809,33.13501 26.587296,33.168 17.673699,33.168 H 7.1593837 Z M 18.17231,31.798823 c 0.248516,-0.248515 0.222839,-0.641178 -0.05713,-0.873528 -0.463946,-0.385041 -1.045333,0.361248 -0.651292,0.836033 0.218085,0.262781 0.469807,0.2761 0.708417,0.03752 z M 6.1473837,23.068086 c 0,-6.013341 0.0034,-6.086295 0.322634,-6.49185 0.657783,-0.83623 0.449428,-0.82128 11.3180113,-0.812162 7.351394,0.0062 10.150242,0.05563 10.528876,0.18603 0.294673,0.101494 0.661462,0.394378 0.855732,0.683314 l 0.340009,0.505682 v 6.005337 6.005334 H 17.830018 6.1473837 Z m 22.8865903,-0.157057 -0.04219,-5.792268 -0.360798,-0.3839 -0.360793,-0.383893 H 17.796989 7.3237807 l -0.36495,0.393787 -0.364955,0.393794 v 5.782374 5.782378 H 17.835041 29.076205 Z"
       id="path1161" />
    <path
       style="fill:#008080;stroke-width:0.264583"
       d="m 176.9317,211.30081 c -8.03457,-0.63008 -15.35172,-2.74875 -18.11996,-5.24662 -1.51941,-1.37102 -1.78154,-2.18936 -1.78154,-5.56175 v -2.89464 l 2.57969,1.292 c 2.95373,1.47933 6.07956,2.43978 10.2526,3.15021 8.16379,1.38985 17.32033,1.39136 25.40001,0.004 4.18636,-0.71874 7.30553,-1.67841 10.2526,-3.15441 l 2.57969,-1.292 v 2.68945 c 0,1.4792 -0.11708,3.09767 -0.26017,3.5966 -1.17639,4.10184 -10.7936,7.17371 -23.57434,7.52997 -2.38899,0.0666 -5.68685,0.0157 -7.32858,-0.11301 z m -0.45462,-12.73116 c -7.84941,-0.68168 -14.976,-2.78884 -17.67807,-5.22697 -1.50978,-1.36229 -1.76881,-2.18054 -1.76881,-5.58745 v -2.93187 l 1.69772,0.94942 c 3.28509,1.83713 8.51974,3.33818 14.44187,4.14125 3.3607,0.45573 14.66552,0.46152 18.25625,0.009 6.70932,-0.84487 11.13565,-2.05106 14.69452,-4.00428 l 1.97423,-1.08353 v 2.72057 c 0,3.27565 -0.24979,4.255 -1.38465,5.42885 -3.97835,4.11507 -17.786,6.66562 -30.23306,5.58465 z m -0.79375,-12.83303 c -9.81039,-1.02254 -17.50339,-4.03468 -18.38182,-7.19726 -0.25633,-0.92286 -0.39265,-6.3901 -0.15933,-6.3901 0.0616,0 0.98432,0.47027 2.05052,1.04504 5.27423,2.84323 13.15216,4.29389 23.36979,4.30335 9.8471,0.009 17.14728,-1.27302 22.62188,-3.97308 1.38245,-0.68182 2.60284,-1.28012 2.71198,-1.32954 0.10914,-0.0494 0.19582,1.19998 0.19263,2.77645 -0.005,2.24161 -0.11533,3.10754 -0.50831,3.97309 -1.23918,2.72939 -6.60003,5.03164 -14.69943,6.31276 -2.80223,0.44325 -14.43373,0.76741 -17.19791,0.47929 z m -0.92604,-12.80997 c -8.196,-0.99408 -14.6577,-3.26062 -16.7651,-5.88061 -0.7449,-0.92608 -0.8144,-1.19159 -0.91521,-3.49659 -0.14693,-3.35938 0.0472,-4.19148 1.29298,-5.54303 2.71723,-2.94784 10.227,-5.10357 19.99775,-5.74051 13.91144,-0.90685 28.14405,2.68637 29.46429,7.43868 0.14291,0.51441 0.2605,1.95186 0.26131,3.19434 0.002,3.03871 -0.5781,4.21051 -2.8325,5.72174 -2.64089,1.77031 -6.55731,3.01572 -12.37957,3.93666 -3.35811,0.53117 -14.8575,0.7655 -18.12395,0.36932 z"
       id="path1177" />
    <path
       style="fill:#008080;stroke-width:0.0975286"
       d="m 174.23294,77.066543 c -0.67405,-0.293596 -0.6293,0.476764 -0.6293,-10.834876 0,-11.344545 -0.0479,-10.547089 0.65074,-10.838989 0.46856,-0.195781 9.15945,-0.194605 9.61728,0.0015 0.34776,0.148797 5.66064,5.014536 5.76103,5.276171 0.0348,0.09055 0.0632,3.673614 0.0632,7.962375 0,8.669007 0.0401,8.149492 -0.65073,8.438132 -0.46247,0.193233 -14.36801,0.189365 -14.8122,-0.004 z m 14,-8.006545 v -6.680712 h -2.34382 c -2.57489,0 -2.74749,-0.03062 -3.26408,-0.579343 l -0.29259,-0.310778 -0.0487,-2.358892 -0.0488,-2.358889 -3.58417,-0.02558 -3.58418,-0.02558 v 9.510247 9.510252 h 6.58318 6.58319 z m -11.8985,-0.292581 v -4.340032 h 5.36408 5.36407 v 4.340032 4.340024 h -5.36407 -5.36408 z m 4.66261,2.413829 0.0301,-0.414493 h -1.56608 -1.56606 v 0.441353 0.441354 l 1.53607,-0.02684 1.53608,-0.02683 z m 4.60261,0.02442 v -0.438879 h -1.56045 -1.56047 v 0.438879 0.43888 h 1.56047 1.56045 z m -4.63261,-2.419011 v -0.468431 l -1.53608,-0.01918 -1.53609,-0.01918 1e-5,0.514495 1e-5,0.514502 1.53607,-0.02683 1.53608,-0.02684 z m 4.58385,0 v -0.468431 l -1.53609,-0.01918 -1.53608,-0.01918 10e-6,0.514495 v 0.514502 l 1.53608,-0.02683 1.53608,-0.02684 z m -4.55385,-2.433041 -0.0301,-0.414494 -1.53608,-0.02684 -1.53608,-0.02684 v 0.441354 0.441353 h 1.56607 1.56606 z m 4.58385,0 -0.0301,-0.414494 -1.53608,-0.02684 -1.53608,-0.02684 v 0.441354 0.441353 h 1.56607 1.56606 z m 0.36011,-6.663305 c -0.69732,-0.669464 -1.47633,-1.395703 -1.73112,-1.613869 l -0.46327,-0.39666 v 1.618302 1.618302 l 1.73113,-0.004 1.73113,-0.004 -1.26787,-1.21721 z"
       id="path1207" />
    <path
       style="fill:#008080;stroke-width:0.116881"
       d="m 175.36445,24.734109 c -2.68172,-0.380875 -5.05896,-2.469405 -5.71735,-5.02298 -0.24224,-0.939499 -0.24152,-2.729432 0.001,-3.556015 0.33915,-1.153981 0.98357,-2.21932 1.88187,-3.111076 0.70031,-0.695218 0.88827,-0.965243 1.09118,-1.567589 0.88557,-2.6287735 2.8793,-4.7409805 5.39515,-5.7157635 4.58237,-1.7754725 9.67286,0.211626 11.77499,4.5964145 0.25192,0.52549 0.5136,1.168181 0.58152,1.428201 0.0919,0.352018 0.29205,0.618313 0.78347,1.042584 0.82901,0.715712 1.58545,1.875302 1.96934,3.018883 0.54667,1.628484 0.36893,3.744484 -0.44375,5.283049 -0.5366,1.015876 -1.78339,2.281907 -2.73909,2.781348 -1.63885,0.856438 -1.39221,0.830633 -8.15027,0.852805 -3.34281,0.01095 -6.23563,-0.0028 -6.42848,-0.02981 z m 12.28707,-4.562677 c 1.75006,-0.936158 1.96181,-3.257169 0.40568,-4.446711 -0.27337,-0.208977 -0.70329,-0.412934 -0.95536,-0.453244 l -0.45832,-0.07329 v -0.675942 c 0,-1.33915 -0.68482,-2.822249 -1.72659,-3.739263 -1.96185,-1.7268815 -5.01022,-1.7394585 -6.92053,-0.02857 l -0.52385,0.46917 0.40697,0.08407 c 1.1083,0.228945 3.62121,1.841967 3.62121,2.324436 0,0.07622 -0.61965,0.756619 -1.37701,1.512004 l -1.37701,1.37342 -0.45743,-0.468449 c -1.20991,-1.239074 -3.17389,-1.06303 -4.12187,0.369469 -0.28221,0.426448 -0.32242,0.599996 -0.32242,1.39151 0,0.816682 0.034,0.952339 0.35064,1.4001 0.19286,0.272687 0.49095,0.599829 0.66243,0.726979 0.68809,0.510202 1.13263,0.543628 6.87643,0.517177 5.35686,-0.02461 5.44192,-0.02877 5.91703,-0.282893 z"
       id="path1223" />
    <path
       style="fill:#000000;stroke-width:0.264583"
       id="path1239"
       d="" />
    <path
       style="fill:#008080;stroke-width:0.0347441"
       d="m 242.34539,116.06286 c -1.02692,-0.14246 -2.08742,-0.52834 -2.92297,-1.06356 -1.81453,-1.16231 -3.03541,-3.07288 -3.31203,-5.18303 -0.0686,-0.52332 -0.0688,-1.39838 -3.9e-4,-1.92436 0.49984,-3.84421 4.01907,-6.638 7.88838,-6.26231 3.14104,0.30498 5.72257,2.58558 6.40752,5.66058 0.54728,2.45699 -0.24516,5.05728 -2.07705,6.81556 -1.14219,1.09631 -2.64783,1.80644 -4.18409,1.97341 -0.4504,0.049 -1.39048,0.0405 -1.79938,-0.0163 z m 5.69805,-2.79607 c 0,-0.0191 -0.0235,-0.0348 -0.0521,-0.0348 -0.057,0 -1.37635,-1.04779 -1.56855,-1.24569 -0.0846,-0.0872 -0.10612,-0.1291 -0.0743,-0.14523 0.0245,-0.0125 0.33391,-0.082 0.68743,-0.1545 0.35353,-0.0725 0.65532,-0.143 0.67066,-0.15667 0.047,-0.0419 -0.62907,-0.65224 -0.98122,-0.88585 -0.29081,-0.19293 -0.63873,-0.3818 -1.08848,-0.5909 -0.28488,-0.13244 -0.52209,-0.50461 -0.96036,-1.50682 -0.47089,-1.07678 -1.11967,-1.9414 -1.89676,-2.5278 -0.87599,-0.66103 -1.29753,-0.85871 -2.02283,-0.94857 -0.17864,-0.0221 -0.35114,-0.0686 -0.46056,-0.12404 -0.19286,-0.0977 -0.609,-0.36317 -0.70439,-0.4493 -0.0482,-0.0435 -0.14606,-0.0549 -0.47245,-0.0549 h -0.41165 l -0.0661,0.14678 c -0.0426,0.0945 -0.0654,0.22135 -0.0641,0.35613 0.002,0.25283 0.0888,0.4362 0.38721,0.82173 0.14804,0.19123 0.28149,0.43289 0.47968,0.8686 0.15102,0.33202 0.35915,0.7658 0.46252,0.96396 0.2139,0.41008 0.21195,0.38254 0.0791,1.11633 -0.0865,0.47792 -0.0954,1.04516 -0.0208,1.33141 0.17099,0.65644 0.70118,1.06995 0.96694,0.75413 0.0958,-0.11384 0.15461,-0.26724 0.21317,-0.55591 l 0.0386,-0.19021 0.4294,0.53765 c 0.53312,0.66751 0.51454,0.64745 0.55862,0.60337 0.0242,-0.0242 -0.12857,-0.32488 -0.47989,-0.94428 -0.50646,-0.89292 -0.51673,-0.90782 -0.59067,-0.85603 -0.14111,0.0988 -0.24251,0.33506 -0.3325,0.77461 -0.0484,0.23639 -0.0967,0.4385 -0.10736,0.44914 -0.0355,0.0355 -0.23251,-0.18196 -0.31987,-0.35321 -0.12133,-0.23784 -0.18386,-0.57134 -0.18457,-0.98436 -5e-4,-0.38613 0.0301,-0.57758 0.16017,-0.99814 0.0554,-0.17914 0.0776,-0.31279 0.0634,-0.38218 -0.0198,-0.0966 -1.03882,-2.00614 -1.27145,-2.38245 -0.0532,-0.086 -0.13526,-0.21889 -0.18244,-0.29533 -0.1299,-0.21042 -0.14476,-0.3106 -0.0588,-0.39654 0.13867,-0.13867 0.29735,-0.10134 0.91667,0.21565 0.57453,0.29407 0.8048,0.37198 1.09938,0.37198 0.28266,0 1.01251,0.34178 1.54334,0.72272 0.81808,0.58708 1.2598,1.2074 2.14496,3.01229 0.22492,0.45862 0.43737,0.86552 0.4721,0.90422 0.14108,0.15721 0.32152,0.25927 0.58477,0.33078 0.15262,0.0415 0.41039,0.14446 0.57282,0.2289 0.36408,0.18927 1.04232,0.65871 1.04232,0.72145 0,0.0328 -0.12443,0.0628 -0.42989,0.10378 -0.64335,0.0862 -0.99462,0.19281 -0.99462,0.30183 0,0.15501 0.33864,0.49336 0.78491,0.78426 0.23081,0.15044 1.37365,0.77051 1.43003,0.77588 0.005,3.9e-4 0.009,-0.0148 0.009,-0.0339 z m -7.17133,-6.92343 c -0.0114,-0.057 -0.0207,-0.12531 -0.0207,-0.15186 0,-0.0568 -0.1989,-0.18592 -0.28665,-0.18611 -0.0902,-2.7e-4 -0.0756,0.0513 0.0786,0.27847 0.10002,0.14729 0.15496,0.19934 0.19444,0.18419 0.0403,-0.0155 0.0495,-0.0488 0.0343,-0.12469 z m -6.71347,8.93697 c -2.75426,-0.12916 -5.39745,-0.56486 -7.41339,-1.22201 -2.14509,-0.69924 -3.45334,-1.57719 -3.86415,-2.59316 l -0.0793,-0.19616 -0.006,-2.44946 c -0.006,-2.38743 -0.004,-2.44457 0.0553,-2.25615 0.11939,0.37572 0.28163,0.62503 0.64507,0.99125 0.39375,0.39675 0.77485,0.6614 1.44521,1.00356 2.10944,1.07667 5.59767,1.80458 9.377,1.95674 l 0.60683,0.0244 0.1271,0.50379 c 0.22782,0.90298 0.57668,1.70327 1.07079,2.45639 0.36206,0.55185 0.63569,0.88972 1.10377,1.36293 0.21599,0.21836 0.38374,0.40598 0.37279,0.41693 -0.0323,0.0323 -2.75571,0.0331 -3.44091,10e-4 z m -0.22134,-5.6152 c -0.086,-0.006 -0.41433,-0.0275 -0.72963,-0.0479 -3.76744,-0.24328 -7.26144,-1.13969 -9.03983,-2.31923 -0.64739,-0.42939 -1.10752,-0.93477 -1.28773,-1.41436 l -0.0783,-0.20847 -0.006,-2.44946 c -0.006,-2.38743 -0.004,-2.44457 0.0553,-2.25615 0.11779,0.37067 0.28235,0.62562 0.62779,0.97252 0.67911,0.682 1.67394,1.21978 3.18558,1.72203 2.23956,0.74413 4.84747,1.15166 8.10679,1.26683 0.62105,0.022 1.13156,0.042 1.13446,0.0446 0.003,0.002 -0.10039,0.21798 -0.22955,0.47862 -0.577,1.16444 -0.84468,2.29252 -0.85007,3.58245 l -0.002,0.65142 -0.36481,-0.006 c -0.20065,-0.004 -0.43517,-0.0109 -0.52116,-0.0169 z m 0,-5.57485 c -3.54505,-0.17615 -6.83008,-0.86865 -8.87714,-1.87133 -1.29504,-0.63434 -2.02646,-1.31672 -2.22392,-2.0748 -0.0436,-0.167339 -0.0516,-0.577618 -0.0501,-2.580343 l 0.001,-2.381361 0.0958,0.277954 c 0.0527,0.152871 0.13566,0.340492 0.18437,0.41693 1.0323,1.619674 4.71553,2.912278 9.49693,3.332882 2.16648,0.190578 4.56849,0.190792 6.77511,4.97e-4 4.13397,-0.356296 7.5814,-1.410841 9.02767,-2.761499 0.29863,-0.278889 0.57492,-0.667154 0.67102,-0.942985 0.0641,-0.184051 0.0645,-0.174243 0.0736,2.090825 0.006,1.545577 -0.003,2.334761 -0.0288,2.45968 -0.0977,0.47327 -0.4968,1.02082 -1.05647,1.44949 l -0.25972,0.19894 -0.46124,-0.2092 c -2.20497,-1.00008 -4.60783,-1.11092 -6.81563,-0.31442 -0.48716,0.17576 -1.33344,0.58789 -1.741,0.84785 -0.73259,0.4673 -1.58113,1.22021 -2.08235,1.84767 l -0.20122,0.2519 -0.97761,-0.005 c -0.53769,-0.003 -1.23558,-0.018 -1.55089,-0.0337 z m 14.92086,-1.67514 c -0.11372,-0.0827 -0.27408,-0.19295 -0.35635,-0.24489 l -0.14959,-0.0944 0.18161,-0.19811 c 0.23288,-0.25401 0.42827,-0.55599 0.50054,-0.77358 0.0313,-0.0943 0.0635,-0.17152 0.0716,-0.17152 0.008,0 0.0146,0.36742 0.0146,0.81649 0,0.44906 -0.0125,0.81648 -0.0278,0.81648 -0.0153,0 -0.12083,-0.0677 -0.23455,-0.15044 z m -14.29547,-3.761656 c -0.12421,-0.0067 -0.53071,-0.02873 -0.90334,-0.04897 -4.83468,-0.262607 -9.06208,-1.533238 -10.37198,-3.117506 -0.52638,-0.636636 -0.63095,-1.267131 -0.31525,-1.900819 0.92348,-1.853696 5.36744,-3.307028 10.99992,-3.597369 0.86747,-0.04472 3.08419,-0.04485 3.96084,-2.23e-4 5.30413,0.269947 9.64619,1.610318 10.83536,3.344828 1.14118,1.664495 -0.6788,3.362824 -4.73776,4.421067 -1.52489,0.397567 -3.47972,0.695749 -5.4722,0.834706 -0.72272,0.0504 -3.44146,0.09415 -3.99559,0.06429 z"
       id="path1255" />
    <path
       style="fill:#008080;fill-opacity:1;stroke-width:0.043524"
       d="m 70.833524,94.282053 c -0.323148,-0.08914 -0.739117,-0.334239 -0.974107,-0.573954 -0.175706,-0.179234 -0.706302,-1.077231 -2.687509,-4.54838 -1.357717,-2.378773 -2.51325,-4.422973 -2.567846,-4.542668 -0.08644,-0.189504 -0.09927,-0.287928 -0.09927,-0.761695 0,-0.495737 0.01008,-0.565318 0.113287,-0.783454 0.06231,-0.131655 1.2135,-2.149051 2.558202,-4.483089 2.273116,-3.945534 2.464283,-4.262402 2.720705,-4.509804 0.283834,-0.273855 0.610679,-0.459353 0.945241,-0.536491 0.122801,-0.02836 1.995937,-0.04444 5.245939,-0.04509 4.902886,-8.12e-4 5.06327,0.0016 5.331546,0.08443 0.449978,0.139072 0.839421,0.414334 1.079886,0.763247 0.260444,0.377934 4.981709,8.633019 5.065724,8.857378 0.120192,0.320972 0.125774,1.049989 0.01048,1.37105 -0.04298,0.119687 -0.471085,0.903148 -0.95135,1.741006 -3.844489,6.707002 -4.074588,7.10026 -4.299837,7.348425 -0.263539,0.290366 -0.551411,0.47107 -0.94845,0.595372 -0.269746,0.08445 -0.401321,0.0865 -5.309788,0.0827 -3.915748,-0.0033 -5.07752,-0.01609 -5.232875,-0.05899 z m 9.95258,-5.602292 c 0.201884,-0.193883 0.27913,-0.299157 0.27913,-0.380438 0,-0.08789 -0.181913,-0.294492 -0.834164,-0.947412 l -0.834156,-0.83503 0.179224,-0.275278 c 0.257495,-0.395509 0.474132,-0.887638 0.584802,-1.328524 0.123979,-0.493933 0.133898,-1.480044 0.0195,-1.943607 -0.197586,-0.800954 -0.542726,-1.410731 -1.139057,-2.012432 -0.836715,-0.844243 -1.803437,-1.248031 -2.981312,-1.245269 -2.044033,0.0049 -3.750985,1.431832 -4.139989,3.46109 -0.09125,0.476043 -0.06158,1.252858 0.06686,1.748863 0.214849,0.830033 0.587857,1.460463 1.211948,2.048384 1.425247,1.342629 3.546381,1.524195 5.203197,0.445396 l 0.274653,-0.178836 0.859423,0.85557 c 0.472686,0.470566 0.884479,0.855569 0.915116,0.855569 0.03063,0 0.181296,-0.120621 0.334814,-0.268046 z m -5.262667,-1.629412 c -1.758159,-0.317705 -2.927975,-2.024457 -2.571265,-3.751463 0.133467,-0.646193 0.37239,-1.098185 0.838299,-1.585903 1.458581,-1.526843 3.928195,-1.235089 5.029676,0.594193 0.7323,1.216183 0.513705,2.855141 -0.515981,3.868551 -0.489917,0.482185 -1.141331,0.802718 -1.822862,0.896949 -0.419187,0.05793 -0.52755,0.05541 -0.957867,-0.02234 z m 0.859529,-0.871047 c 0.06118,-0.02348 0.06881,-0.221515 0.06881,-1.784539 v -1.758108 h -0.391702 -0.391709 v 1.755517 c 0,0.965531 0.01308,1.768573 0.029,1.78453 0.03623,0.03632 0.592293,0.03843 0.685544,0.0024 z M 74.88499,84.812916 v -1.04461 h -0.413467 -0.413467 v 0.646355 c 0,0.640505 8.13e-4,0.647874 0.123158,0.816091 0.136506,0.188147 0.60101,0.626766 0.663763,0.626766 0.02324,0 0.04005,-0.438262 0.04005,-1.044602 z m 2.672447,0.854253 c 0.09344,-0.07272 0.255017,-0.247864 0.359058,-0.389212 0.187779,-0.255087 0.189184,-0.25971 0.189184,-0.622175 v -0.365171 h -0.413467 -0.413466 v 0.786021 c 0,0.616675 0.01178,0.779204 0.05443,0.754383 0.02998,-0.01739 0.13086,-0.09113 0.22429,-0.163846 z"
       id="path1271" />
    <path
       style="fill:#008080;fill-opacity:1;stroke-width:0.0413083"
       d="m 93.337165,157.02025 c -0.58105,-0.15223 -1.11487,-0.53081 -1.45183,-1.02961 -0.0852,-0.12616 -0.71848,-1.20529 -1.40724,-2.39807 -0.68877,-1.19278 -1.6336,-2.82859 -2.09961,-3.63514 -2.72309,-4.71289 -2.50225,-4.31208 -2.61163,-4.73975 -0.14377,-0.56214 -0.0775,-1.1683 0.18629,-1.70434 0.0727,-0.14768 0.82592,-1.46748 1.67388,-2.9329 0.84796,-1.46541 2.0246,-3.50088 2.61475,-4.52326 1.55269,-2.68986 1.67922,-2.89766 1.91202,-3.13995 0.43128,-0.44885 0.93581,-0.68932 1.60877,-0.76679 0.24504,-0.0282 2.37131,-0.0383 6.237555,-0.0294 5.44565,0.0124 5.88353,0.0185 6.11363,0.0858 0.58244,0.17022 1.0885,0.51313 1.39626,0.9461 0.10184,0.14329 0.59882,0.9762 1.10439,1.8509 1.6241,2.80992 2.85218,4.93419 3.90149,6.74857 0.5633,0.974 1.06767,1.89414 1.12084,2.04476 0.0814,0.23068 0.0968,0.35571 0.0976,0.79304 0.001,0.78838 0.005,0.77946 -0.95906,2.4516 -1.91207,3.3171 -4.67079,8.08887 -4.94191,8.54806 -0.40888,0.6925 -0.69593,0.98527 -1.21642,1.2407 -0.20857,0.10235 -0.48951,0.2057 -0.62432,0.22966 -0.16489,0.0293 -2.22656,0.0429 -6.299515,0.0413 -5.82489,-0.002 -6.06584,-0.005 -6.35589,-0.0813 z m 1.80924,-12.37094 v -4.56457 h -0.66094 -0.66093 v 4.56457 4.56457 h 0.66093 0.66094 z m 2.60242,0 v -4.56457 h -0.64028 -0.64028 v 4.56457 4.56457 h 0.64028 0.64028 z m 2.602425,0 v -4.56457 h -0.640285 -0.64027 v 4.56457 4.56457 h 0.64027 0.640285 z m 2.64373,0 v -4.56457 h -0.66094 -0.66093 v 4.56457 4.56457 h 0.66093 0.66094 z m 2.60242,0 v -4.56457 h -0.64028 -0.64028 v 4.56457 4.56457 h 0.64028 0.64028 z"
       id="path1287" />
    <path
       style="fill:#008080;stroke-width:0.264583"
       d="m 247.12083,209.87128 c 0,-0.21828 0.11907,-0.39688 0.26459,-0.39688 0.14552,0 0.26458,0.1786 0.26458,0.39688 0,0.21828 -0.11906,0.39687 -0.26458,0.39687 -0.14552,0 -0.26459,-0.17859 -0.26459,-0.39687 z m 1.5065,0.22768 c -0.21138,-0.21139 0.0276,-0.62456 0.3612,-0.62456 0.13694,0 0.24897,0.1786 0.24897,0.39688 0,0.40915 -0.3122,0.52565 -0.61017,0.22768 z m 1.57312,-0.0144 c -0.29797,-0.29797 -0.18148,-0.61017 0.22768,-0.61017 0.21828,0 0.39687,0.11204 0.39687,0.24897 0,0.33364 -0.41317,0.57259 -0.62455,0.3612 z m -4.66712,-0.47787 c 0,-0.24254 0.128,-0.39831 0.28443,-0.34617 0.15644,0.0521 0.28443,0.20792 0.28443,0.34617 0,0.13824 -0.12799,0.29401 -0.28443,0.34616 -0.15643,0.0521 -0.28443,-0.10363 -0.28443,-0.34616 z m 6.08542,0 c 0,-0.24254 0.12799,-0.39831 0.28443,-0.34617 0.15643,0.0521 0.28443,0.20792 0.28443,0.34617 0,0.13824 -0.128,0.29401 -0.28443,0.34616 -0.15644,0.0521 -0.28443,-0.10363 -0.28443,-0.34616 z m 1.5875,-0.26459 c 0,-0.24253 0.12799,-0.39831 0.28443,-0.34616 0.15643,0.0521 0.28443,0.20792 0.28443,0.34616 0,0.13825 -0.128,0.29402 -0.28443,0.34616 -0.15644,0.0521 -0.28443,-0.10362 -0.28443,-0.34616 z m -9.26042,-0.13229 c 0,-0.14552 0.1786,-0.26458 0.39688,-0.26458 0.21828,0 0.39687,0.11906 0.39687,0.26458 0,0.14552 -0.17859,0.26458 -0.39687,0.26458 -0.21828,0 -0.39688,-0.11906 -0.39688,-0.26458 z m -1.4183,-0.18358 c -0.29797,-0.29797 -0.18148,-0.61017 0.22768,-0.61017 0.21828,0 0.39687,0.11204 0.39687,0.24897 0,0.33363 -0.41317,0.57258 -0.62455,0.3612 z m 12.18522,0.0144 c -0.21138,-0.21139 0.0276,-0.62456 0.3612,-0.62456 0.13693,0 0.24897,0.17859 0.24897,0.39688 0,0.40915 -0.3122,0.52564 -0.61017,0.22768 z m 1.57311,-0.54355 c -0.29796,-0.29798 -0.18147,-0.61018 0.22768,-0.61018 0.21828,0 0.39688,0.11204 0.39688,0.24897 0,0.33364 -0.41317,0.57259 -0.62456,0.3612 z m -15.25044,-0.47788 c 0,-0.24254 0.12799,-0.39831 0.28442,-0.34617 0.15644,0.0522 0.28443,0.20792 0.28443,0.34617 0,0.13824 -0.12799,0.29401 -0.28443,0.34616 -0.15643,0.0521 -0.28442,-0.10363 -0.28442,-0.34616 z m 20.50521,-0.28619 c -0.58209,-0.2352 -1.44529,-0.56406 -1.91823,-0.73078 -0.47295,-0.16673 -0.8599,-0.43033 -0.8599,-0.58577 0,-0.15545 -0.34854,-0.61657 -0.77455,-1.0247 -1.93232,-1.85129 -2.60449,-5.81405 -1.42468,-8.39925 2.35576,-5.16195 8.8769,-6.50576 12.87157,-2.65244 0.55828,0.53852 1.32988,1.57444 1.71468,2.30204 0.5879,1.11166 0.69963,1.66093 0.69963,3.43959 0,1.77429 -0.1126,2.33064 -0.69614,3.43958 -0.89077,1.6928 -2.32837,3.11978 -3.88592,3.85721 -1.61968,0.76684 -4.29601,0.93253 -5.72646,0.35452 z m 4.83714,-1.84389 c 2.31378,-0.96505 3.75019,-3.18943 3.75019,-5.80742 0,-3.64715 -2.60018,-6.22582 -6.26373,-6.2119 -1.9054,0.007 -3.36666,0.64554 -4.54178,1.98393 -1.19559,1.36169 -1.61828,2.46604 -1.61828,4.22797 0,2.53632 1.33925,4.67914 3.57187,5.71504 1.31149,0.6085 3.75807,0.6528 5.10173,0.0924 z m -3.47322,-0.86732 c -0.96035,-1.06118 -0.21701,-2.69115 1.22729,-2.69115 0.77314,0 1.24525,0.63826 1.24525,1.6835 0,1.34403 -1.58394,1.98954 -2.47254,1.00765 z m -2.11667,-5.55625 c -0.93,-1.02764 -0.30444,-2.27273 1.06261,-2.11495 1.02222,0.11798 1.45247,1.29173 0.75572,2.06163 -0.60313,0.66645 -1.24638,0.68531 -1.81833,0.0533 z m 4.44107,-0.16465 c -0.5482,-0.83666 -0.28027,-1.68155 0.6036,-1.90338 0.87969,-0.22079 1.50749,0.17863 1.60942,1.02395 0.1681,1.39403 -1.45359,2.03847 -2.21302,0.87943 z m -4.0315,-2.56115 c -1.01721,-0.29328 -1.3484,-0.90071 -0.79358,-1.45552 0.32573,-0.32573 0.59476,-0.33945 1.61567,-0.0824 1.37243,0.34558 1.85861,0.76932 1.61401,1.40673 -0.18359,0.47842 -1.06677,0.52597 -2.4361,0.13117 z m 3.22969,-0.0645 c -0.28728,-0.74864 0.0747,-1.1404 1.35071,-1.4617 0.94202,-0.2372 1.32852,-0.23833 1.61004,-0.005 0.8827,0.73258 0.20411,1.41668 -1.70868,1.72254 -0.86649,0.13856 -1.12055,0.0866 -1.25207,-0.25615 z m -32.78443,10.85757 c -1.72955,-0.57312 -2.62829,-1.13569 -3.68772,-2.30835 -1.51384,-1.67565 -2.1188,-3.21953 -2.1188,-5.40733 0,-2.17879 0.60467,-3.73136 2.09621,-5.38232 3.01177,-3.33367 8.31776,-3.43768 11.46286,-0.2247 2.95638,3.02018 3.13995,7.75358 0.41757,10.76693 -0.49174,0.54431 -0.89408,1.19631 -0.89408,1.44891 0,0.30711 -0.13655,0.40686 -0.41218,0.30109 -0.2267,-0.087 -0.90781,0.0947 -1.51357,0.40372 -1.35431,0.69091 -3.90104,0.88229 -5.35029,0.40205 z m 5.03258,-2.08778 c 2.11421,-1.10938 3.33487,-3.16935 3.33487,-5.6279 0,-3.59224 -2.63943,-6.21771 -6.25078,-6.21771 -3.58208,0 -6.19836,2.59446 -6.2119,6.16006 -0.0122,3.21535 2.02337,5.70111 5.10763,6.23722 1.34069,0.23303 2.94402,0.013 4.02018,-0.55167 z m -5.69404,-1.39456 c -0.26278,-0.31664 -0.26278,-0.47712 0,-0.79375 0.50027,-0.60279 5.43182,-0.5736 5.6648,0.0335 0.34091,0.88839 -0.32945,1.15709 -2.88667,1.15709 -1.85389,0 -2.52877,-0.0964 -2.77813,-0.39687 z m -0.37713,-4.87298 c -0.93003,-1.02767 -0.0958,-2.38096 1.25819,-2.04112 0.91779,0.23035 1.21756,1.30834 0.5645,2.02996 -0.59379,0.65614 -1.23544,0.66007 -1.82269,0.0112 z m 4.61046,-0.0218 c -0.65695,-0.65695 -0.66929,-1.11409 -0.0453,-1.67878 1.33877,-1.21157 3.0222,0.51618 1.74621,1.79218 -0.55741,0.55741 -1.06385,0.52365 -1.7009,-0.1134 z m 22.3942,8.54767 c -0.29797,-0.29797 -0.18147,-0.61017 0.22768,-0.61017 0.21828,0 0.39687,0.11204 0.39687,0.24897 0,0.33364 -0.41317,0.57259 -0.62455,0.3612 z m -18.02857,-0.34558 c -0.0899,-0.14552 0.0221,-0.26459 0.24897,-0.26459 0.22687,0 0.41249,0.11907 0.41249,0.26459 0,0.14552 -0.11204,0.26458 -0.24897,0.26458 -0.13693,0 -0.32255,-0.11906 -0.41249,-0.26458 z m 7.97851,-13.71302 c -0.58121,-0.64222 -0.55692,-1.97224 0.046,-2.51785 0.64222,-0.5812 1.97224,-0.55692 2.51785,0.046 0.5812,0.64222 0.55691,1.97224 -0.046,2.51785 -0.64222,0.5812 -1.97224,0.55691 -2.51784,-0.046 z m -16.1365,-2.07379 c -0.30444,-0.30444 -0.19268,-0.61736 0.22049,-0.61736 0.21828,0 0.39687,0.17859 0.39687,0.39688 0,0.41316 -0.31292,0.52492 -0.61736,0.22048 z m 34.48403,-0.0882 c 0,-0.14552 0.1786,-0.26459 0.39688,-0.26459 0.21828,0 0.39687,0.11907 0.39687,0.26459 0,0.14552 -0.17859,0.26458 -0.39687,0.26458 -0.21828,0 -0.39688,-0.11906 -0.39688,-0.26458 z m -0.0954,-1.24192 c -0.29796,-0.29797 -0.18147,-0.61017 0.22768,-0.61017 0.21828,0 0.39688,0.11204 0.39688,0.24897 0,0.33364 -0.41317,0.57259 -0.62456,0.3612 z m -34.30044,-0.47787 c 0,-0.24254 0.12799,-0.39831 0.28442,-0.34617 0.15644,0.0521 0.28443,0.20792 0.28443,0.34617 0,0.13824 -0.12799,0.29401 -0.28443,0.34616 -0.15643,0.0521 -0.28442,-0.10363 -0.28442,-0.34616 z m 34.03586,-1.10963 c -0.29797,-0.29797 -0.18147,-0.61017 0.22768,-0.61017 0.21828,0 0.39688,0.11204 0.39688,0.24897 0,0.33364 -0.41318,0.57259 -0.62456,0.3612 z m -33.71065,-0.39519 c 0.16354,-0.4906 0.73312,-0.57197 0.73312,-0.10473 0,0.2304 -0.18851,0.41892 -0.41892,0.41892 -0.23041,0 -0.3718,-0.14138 -0.3142,-0.31419 z m 33.19587,-1.17792 c -0.21138,-0.21139 0.0276,-0.62456 0.3612,-0.62456 0.13693,0 0.24897,0.1786 0.24897,0.39688 0,0.40915 -0.3122,0.52565 -0.61017,0.22768 z m -32.67662,-0.37982 c 0.0521,-0.15643 0.20792,-0.28442 0.34616,-0.28442 0.13825,0 0.29402,0.12799 0.34617,0.28442 0.0521,0.15644 -0.10363,0.28443 -0.34617,0.28443 -0.24253,0 -0.39831,-0.12799 -0.34616,-0.28443 z m 0.64765,-1.22207 c -0.29797,-0.29797 -0.18148,-0.61017 0.22768,-0.61017 0.21828,0 0.39687,0.11204 0.39687,0.24897 0,0.33364 -0.41317,0.57259 -0.62455,0.3612 z m 31.36693,-0.10084 c 0.0521,-0.15644 0.20792,-0.28443 0.34617,-0.28443 0.13824,0 0.29401,0.12799 0.34616,0.28443 0.0521,0.15643 -0.10363,0.28442 -0.34616,0.28442 -0.24254,0 -0.39831,-0.12799 -0.34617,-0.28442 z m -17.6455,-0.35027 c -1.68375,-0.53249 -2.61671,-1.10688 -3.64294,-2.24279 -1.15755,-1.28127 -1.6534,-2.2022 -2.06427,-3.83392 -0.17105,-0.6793 -0.40835,-1.29526 -0.52734,-1.3688 -0.11899,-0.0735 -0.0534,-0.45847 0.1458,-0.8554 0.19918,-0.39693 0.49308,-1.22278 0.6531,-1.83523 0.63409,-2.42677 3.29969,-4.81547 5.99901,-5.37585 4.39297,-0.91197 8.65113,2.07879 9.49591,6.66954 0.12601,0.68473 0.28934,0.93165 0.55008,0.83159 0.22919,-0.088 0.37086,0.0309 0.37086,0.31118 0,0.2944 -0.13923,0.40006 -0.39688,0.30119 -0.26834,-0.10297 -0.39687,0.0132 -0.39687,0.35865 0,0.28101 -0.2549,1.20001 -0.56644,2.04221 -1.43497,3.87926 -5.87041,6.18348 -9.62002,4.99763 z m 5.24499,-2.22947 c 2.04446,-1.09046 3.15553,-3.01532 3.15553,-5.46674 0,-3.55401 -2.69404,-6.22118 -6.28385,-6.22118 -3.58208,0 -6.19836,2.59445 -6.2119,6.16006 -0.007,1.82022 0.50781,3.17723 1.66124,4.3797 2.09281,2.18178 4.9423,2.60783 7.67898,1.14816 z m -4.15509,-0.58453 c -0.88684,-0.26553 -2.01594,-1.24949 -2.01594,-1.7568 0,-0.27095 0.69228,-0.35076 3.04271,-0.35076 1.67349,0 3.0427,0.10301 3.0427,0.22891 0,0.5644 -1.17005,1.62929 -2.06255,1.87717 -1.10594,0.30716 -0.98631,0.30707 -2.00692,0.001 z m -2.12849,-5.52532 c -0.93003,-1.02767 -0.0958,-2.38097 1.25819,-2.04113 1.00275,0.25168 1.25717,1.41231 0.45243,2.06395 -0.76039,0.61573 -1.13729,0.6107 -1.71062,-0.0228 z m 4.61046,-0.0218 c -0.65695,-0.65695 -0.66929,-1.11409 -0.0453,-1.67878 0.91981,-0.83242 2.16198,-0.39308 2.16198,0.76465 0,0.59627 -0.74979,1.4433 -1.2776,1.4433 -0.17044,0 -0.54802,-0.23813 -0.83907,-0.52917 z m 13.41275,7.50372 c -0.21138,-0.21138 0.0276,-0.62455 0.3612,-0.62455 0.13694,0 0.24897,0.17859 0.24897,0.39687 0,0.40916 -0.3122,0.52565 -0.61017,0.22768 z m -30.0815,-0.35997 c 0,-0.14552 0.1786,-0.26458 0.39688,-0.26458 0.21828,0 0.39687,0.11906 0.39687,0.26458 0,0.14552 -0.17859,0.26458 -0.39687,0.26458 -0.21828,0 -0.39688,-0.11906 -0.39688,-0.26458 z m 29.28775,-0.96295 c -0.21138,-0.21138 0.0276,-0.62455 0.3612,-0.62455 0.13694,0 0.24897,0.17859 0.24897,0.39688 0,0.40915 -0.3122,0.52564 -0.61017,0.22767 z m -28.494,-0.35997 c 0,-0.14552 0.1786,-0.26458 0.39688,-0.26458 0.21828,0 0.39687,0.11906 0.39687,0.26458 0,0.14552 -0.17859,0.26459 -0.39687,0.26459 -0.21828,0 -0.39688,-0.11907 -0.39688,-0.26459 z m 1.05834,-1.16857 c 0,-0.23041 0.18851,-0.41893 0.41892,-0.41893 0.23041,0 0.3718,0.14139 0.31419,0.3142 -0.16353,0.49059 -0.73311,0.57196 -0.73311,0.10473 z m 26.45833,-0.022 c 0,-0.24254 0.12799,-0.39831 0.28443,-0.34616 0.15643,0.0521 0.28443,0.20791 0.28443,0.34616 0,0.13824 -0.128,0.29402 -0.28443,0.34616 -0.15644,0.0521 -0.28443,-0.10363 -0.28443,-0.34616 z m -1.05833,-1.05833 c 0,-0.24254 0.12799,-0.39831 0.28443,-0.34617 0.15643,0.0522 0.28442,0.20792 0.28442,0.34617 0,0.13824 -0.12799,0.29401 -0.28442,0.34616 -0.15644,0.0521 -0.28443,-0.10363 -0.28443,-0.34616 z m -24.34167,-0.1323 c 0,-0.14552 0.17859,-0.26458 0.39688,-0.26458 0.21828,0 0.39687,0.11906 0.39687,0.26458 0,0.14552 -0.17859,0.26459 -0.39687,0.26459 -0.21829,0 -0.39688,-0.11907 -0.39688,-0.26459 z m 23.20233,-0.69836 c -0.21138,-0.21138 0.0276,-0.62455 0.3612,-0.62455 0.13694,0 0.24897,0.17859 0.24897,0.39687 0,0.40916 -0.3122,0.52565 -0.61017,0.22768 z m -22.0117,-0.35997 c 0.0899,-0.14552 0.27555,-0.26458 0.41249,-0.26458 0.13693,0 0.24896,0.11906 0.24896,0.26458 0,0.14552 -0.18562,0.26458 -0.41249,0.26458 -0.22687,0 -0.3389,-0.11906 -0.24896,-0.26458 z m 1.3742,-0.69836 c -0.21138,-0.21139 0.0276,-0.62456 0.3612,-0.62456 0.13694,0 0.24897,0.1786 0.24897,0.39688 0,0.40915 -0.3122,0.52565 -0.61017,0.22768 z m 19.2746,-0.0771 c -0.18073,-0.29242 0.23664,-0.60818 0.48096,-0.36386 0.25156,0.25156 0.20468,0.61016 -0.0798,0.61016 -0.13694,0 -0.31747,-0.11083 -0.40119,-0.2463 z"
       id="path1303" />
    <path
       style="fill:#008000;stroke-width:0.139041"
       d="m 224.34207,162.50672 c -0.30717,-0.2209 -0.4307,-0.62632 -0.19082,-0.62632 0.0671,0 0.1999,0.0939 0.2951,0.20856 0.36087,0.43481 1.25137,0.17626 1.25137,-0.36334 0,-0.20657 -0.055,-0.21744 -0.41415,-0.0819 -1.19496,0.45104 -1.87985,-1.77663 -0.69687,-2.26664 0.34841,-0.14432 0.4695,-0.13531 0.7626,0.0567 0.30482,0.19972 0.34842,0.20179 0.34842,0.0165 0,-0.11648 0.0626,-0.21177 0.13904,-0.21177 0.21092,0 0.17902,2.81204 -0.0352,3.10502 -0.25357,0.34679 -1.07619,0.43871 -1.45947,0.16308 z m 1.21172,-1.45143 c 0.35455,-0.66248 0.025,-1.39955 -0.62583,-1.39955 -0.35822,0 -0.62064,0.35275 -0.62064,0.83424 0,0.52282 0.25952,0.83425 0.6952,0.83425 0.26042,0 0.45925,-0.097 0.55127,-0.26894 z m -7.50332,-1.05195 c 0,-1.36359 0.0403,-1.73801 0.1871,-1.73801 0.1029,0 0.5878,0.64059 1.07756,1.42354 l 0.89047,1.42353 0.0396,-1.42353 c 0.0571,-2.05196 0.30798,-1.79581 0.30798,0.31447 0,1.30051 -0.0437,1.7367 -0.1738,1.73279 -0.0956,-0.003 -0.54747,-0.60217 -1.00417,-1.33177 -0.4567,-0.72959 -0.87903,-1.35662 -0.93853,-1.39339 -0.0595,-0.0368 -0.10816,0.56253 -0.10816,1.33177 0,0.83972 -0.0556,1.39861 -0.13904,1.39861 -0.0853,0 -0.13904,-0.67202 -0.13904,-1.73801 z m 3.70334,1.44984 c -0.3059,-0.24062 -0.36636,-0.39957 -0.36636,-0.9632 0,-0.56362 0.0605,-0.72257 0.36636,-0.96319 0.20149,-0.1585 0.51718,-0.28818 0.70152,-0.28818 0.43955,0 1.01774,0.58885 1.01774,1.03649 0,0.34291 -0.0282,0.35393 -0.90377,0.35393 -0.9279,0 -1.06595,0.096 -0.68527,0.47671 0.24318,0.24318 0.96888,0.29548 1.1024,0.0795 0.13054,-0.21123 0.48843,-0.16645 0.40511,0.0507 -0.0853,0.2222 -0.6561,0.50547 -1.01859,0.50547 -0.13904,0 -0.41765,-0.12967 -0.61914,-0.28817 z m 1.30214,-1.51936 c -0.24328,-0.45456 -1.39042,-0.31691 -1.39042,0.16685 0,0.0612 0.34633,0.11124 0.76962,0.11124 0.72653,0 0.76129,-0.0156 0.6208,-0.27809 z m 3.71934,1.65736 c -0.29308,-0.17071 -0.32451,-0.86072 -0.0496,-1.08889 0.10656,-0.0884 0.46632,-0.20732 0.79949,-0.26419 0.39387,-0.0672 0.60575,-0.17502 0.60575,-0.30813 0,-0.27041 -0.71466,-0.34801 -1.13469,-0.12322 -0.40711,0.21787 -0.52107,0.11885 -0.26549,-0.23068 0.14354,-0.1963 0.36434,-0.26793 0.82586,-0.26793 0.34646,0 0.68951,0.0626 0.76232,0.13904 0.2068,0.21721 0.26982,2.29417 0.0696,2.29417 -0.0907,0 -0.18876,-0.0715 -0.21791,-0.15897 -0.0397,-0.11928 -0.12717,-0.11928 -0.35005,0 -0.36256,0.19403 -0.72207,0.19706 -1.0453,0.009 z m 1.1709,-0.49706 c 0.46442,-0.42029 0.32543,-0.64014 -0.33665,-0.53253 -0.68784,0.11181 -0.8687,0.24269 -0.75279,0.54473 0.11035,0.28758 0.7663,0.28024 1.08944,-0.0122 z m 1.53345,0.48038 c -0.0945,-0.0945 -0.16685,-0.54689 -0.16685,-1.0428 0,-0.49128 -0.0611,-0.87596 -0.13904,-0.87596 -0.0765,0 -0.13904,-0.0939 -0.13904,-0.20856 0,-0.11471 0.0626,-0.20857 0.13904,-0.20857 0.0765,0 0.13904,-0.15641 0.13904,-0.34759 0,-0.19119 0.0626,-0.34761 0.13904,-0.34761 0.0765,0 0.13904,0.15642 0.13904,0.34761 0,0.21628 0.0788,0.34759 0.20856,0.34759 0.11471,0 0.20856,0.0939 0.20856,0.20857 0,0.11471 -0.0939,0.20856 -0.20856,0.20856 -0.16053,0 -0.20856,0.17911 -0.20856,0.77774 0,0.66081 0.0418,0.78868 0.27808,0.85046 0.15295,0.04 0.27808,0.15928 0.27808,0.26507 0,0.23638 -0.43971,0.25318 -0.66739,0.0255 z m 1.22356,-1.08452 c 0,-0.74155 0.0566,-1.25137 0.13904,-1.25137 0.0824,0 0.13904,0.50982 0.13904,1.25137 0,0.74156 -0.0566,1.25137 -0.13904,1.25137 -0.0824,0 -0.13904,-0.50981 -0.13904,-1.25137 z m 1.12847,0.0488 c -0.24095,-0.66144 -0.40988,-1.23082 -0.37541,-1.26529 0.15336,-0.15336 0.3594,0.17273 0.63785,1.00948 0.16514,0.49624 0.32134,0.90226 0.3471,0.90226 0.0257,0 0.18197,-0.40602 0.3471,-0.90226 0.27678,-0.83173 0.48453,-1.1628 0.63514,-1.0122 0.0514,0.0514 -0.40039,1.48017 -0.70441,2.2273 -0.20091,0.49372 -0.46014,0.21347 -0.88737,-0.95929 z m 2.43582,0.91443 c -0.30589,-0.24061 -0.36635,-0.39956 -0.36635,-0.96319 0,-0.56363 0.0605,-0.72258 0.36635,-0.9632 0.2015,-0.15849 0.51719,-0.28817 0.70153,-0.28817 0.43955,0 1.01774,0.58884 1.01774,1.03649 0,0.3429 -0.0281,0.35392 -0.90377,0.35392 -0.9279,0 -1.06595,0.096 -0.68527,0.47671 0.24318,0.24318 0.96888,0.29549 1.10239,0.0795 0.13056,-0.21124 0.48844,-0.16646 0.40511,0.0507 -0.0853,0.2222 -0.65609,0.50547 -1.01858,0.50547 -0.13903,0 -0.41765,-0.12968 -0.61915,-0.28817 z m 1.30214,-1.51935 c -0.24327,-0.45456 -1.39041,-0.31691 -1.39041,0.16685 0,0.0612 0.34633,0.11123 0.76962,0.11123 0.72654,0 0.76129,-0.0156 0.62079,-0.27808 z m 13.90411,0.0695 c 0,-1.36359 0.0403,-1.73802 0.1871,-1.73802 0.1029,0 0.58781,0.64059 1.07756,1.42354 l 0.89047,1.42353 0.0396,-1.42353 c 0.0571,-2.05196 0.30798,-1.7958 0.30798,0.31448 0,1.3005 -0.0437,1.73669 -0.1738,1.73278 -0.0956,-0.003 -0.54747,-0.60217 -1.00417,-1.33176 -0.4567,-0.7296 -0.87903,-1.35663 -0.93852,-1.39339 -0.0595,-0.0368 -0.10817,0.56253 -0.10817,1.33177 0,0.83971 -0.0556,1.39861 -0.13904,1.39861 -0.0853,0 -0.13904,-0.67203 -0.13904,-1.73801 z m 3.70334,1.44983 c -0.3059,-0.24061 -0.36636,-0.39956 -0.36636,-0.96319 0,-0.56363 0.0605,-0.72258 0.36636,-0.9632 0.20149,-0.15849 0.51718,-0.28817 0.70152,-0.28817 0.43955,0 1.01774,0.58884 1.01774,1.03649 0,0.3429 -0.0282,0.35392 -0.90377,0.35392 -0.9279,0 -1.06595,0.096 -0.68527,0.47671 0.24318,0.24318 0.96888,0.29549 1.1024,0.0795 0.13054,-0.21124 0.48843,-0.16646 0.40511,0.0507 -0.0853,0.2222 -0.6561,0.50547 -1.01859,0.50547 -0.13903,0 -0.41765,-0.12968 -0.61914,-0.28817 z m 1.30214,-1.51935 c -0.24328,-0.45456 -1.39041,-0.31691 -1.39041,0.16685 0,0.0612 0.34632,0.11123 0.76961,0.11123 0.72653,0 0.76129,-0.0156 0.6208,-0.27808 z m 1.31609,1.61266 c -0.37055,-0.27096 -0.50245,-2.30787 -0.14944,-2.30787 0.18044,0 0.22376,0.15929 0.22376,0.82287 0,1.07791 0.0829,1.26275 0.56615,1.26275 0.5139,0 0.68521,-0.32795 0.68521,-1.31175 0,-0.42563 0.0626,-0.77387 0.13905,-0.77387 0.0824,0 0.13904,0.50982 0.13904,1.25137 0,0.74156 -0.0566,1.25137 -0.13904,1.25137 -0.0765,0 -0.13905,-0.0974 -0.13905,-0.21644 0,-0.1959 -0.0293,-0.1959 -0.30902,0 -0.38257,0.26796 -0.67131,0.27409 -1.01666,0.0216 z m 2.46582,0.028 c -0.0945,-0.0945 -0.16684,-0.54689 -0.16684,-1.04281 0,-0.49127 -0.0611,-0.87596 -0.13905,-0.87596 -0.0765,0 -0.13904,-0.0939 -0.13904,-0.20856 0,-0.1147 0.0626,-0.20856 0.13904,-0.20856 0.0765,0 0.13905,-0.15642 0.13905,-0.3476 0,-0.19118 0.0626,-0.3476 0.13903,-0.3476 0.0765,0 0.13904,0.15642 0.13904,0.3476 0,0.21628 0.0788,0.3476 0.20857,0.3476 0.11471,0 0.20856,0.0939 0.20856,0.20856 0,0.11471 -0.0939,0.20856 -0.20856,0.20856 -0.16053,0 -0.20857,0.17912 -0.20857,0.77775 0,0.66081 0.0418,0.78867 0.27809,0.85046 0.15294,0.04 0.27808,0.15928 0.27808,0.26507 0,0.23637 -0.43972,0.25317 -0.6674,0.0255 z m 1.22569,-1.11928 c 0.002,-0.86029 0.0456,-1.21746 0.13326,-1.07873 0.10442,0.16518 0.16626,0.17225 0.30376,0.0347 0.23956,-0.23957 0.67318,-0.21643 0.67318,0.0359 0,0.11471 -0.11262,0.20856 -0.25027,0.20856 -0.43753,0 -0.58397,0.30335 -0.58397,1.20966 0,0.49128 -0.0611,0.87596 -0.13905,0.87596 -0.0828,0 -0.13817,-0.51998 -0.13691,-1.28613 z m 1.6316,1.13595 c -0.29308,-0.1707 -0.3245,-0.86072 -0.0496,-1.08888 0.10655,-0.0884 0.46632,-0.20732 0.79948,-0.2642 0.39387,-0.0672 0.60575,-0.17501 0.60575,-0.30812 0,-0.27041 -0.71466,-0.34802 -1.13469,-0.12323 -0.4071,0.21788 -0.52107,0.11886 -0.26549,-0.23067 0.14354,-0.1963 0.36435,-0.26794 0.82586,-0.26794 0.34647,0 0.68951,0.0626 0.76232,0.13904 0.2068,0.21721 0.26983,2.29418 0.0696,2.29418 -0.0907,0 -0.18876,-0.0715 -0.2179,-0.15898 -0.0398,-0.11928 -0.12718,-0.11928 -0.35006,0 -0.36255,0.19403 -0.72207,0.19706 -1.0453,0.009 z m 1.17091,-0.49706 c 0.46441,-0.42028 0.32542,-0.64014 -0.33666,-0.53252 -0.68784,0.11181 -0.8687,0.24268 -0.75279,0.54473 0.11035,0.28758 0.76631,0.28023 1.08945,-0.0122 z m 1.22756,-1.09077 c 0,-1.45221 0.0343,-1.73802 0.20855,-1.73802 0.17427,0 0.20857,0.28581 0.20857,1.73802 0,1.4522 -0.0343,1.73801 -0.20857,1.73801 -0.17426,0 -0.20855,-0.28581 -0.20855,-1.73801 z m 15.01643,0 v -1.73802 h 0.91008 c 0.78088,0 0.95854,0.0485 1.25137,0.34129 0.40636,0.40635 0.43733,0.89971 0.0839,1.3362 -0.20406,0.252 -0.43458,0.33069 -1.11233,0.37971 l -0.85493,0.0618 v 0.6785 c 0,0.37317 -0.0626,0.67849 -0.13903,0.67849 -0.0853,0 -0.13904,-0.67203 -0.13904,-1.73801 z m 1.91876,-0.23637 c 0.0918,-0.0918 0.16685,-0.29825 0.16685,-0.45884 0,-0.46272 -0.27885,-0.62568 -1.07062,-0.62568 h -0.73692 v 0.62568 0.62569 h 0.73692 c 0.40531,0 0.812,-0.0751 0.90377,-0.16685 z m 1.47882,1.65438 c -0.56661,-0.48738 -0.57373,-1.36924 -0.0149,-1.84989 0.47543,-0.40895 0.91453,-0.42301 1.3955,-0.0447 0.30435,0.2394 0.36636,0.40049 0.36636,0.95174 0,0.75043 -0.24412,1.06833 -0.92497,1.2045 -0.32435,0.0649 -0.51166,0.005 -0.82196,-0.26168 z m 1.32542,-0.54901 c 0.19124,-0.34337 0.19124,-0.42134 0,-0.76472 -0.41247,-0.74062 -1.38602,-0.47205 -1.38602,0.38236 0,0.85441 0.97355,1.12299 1.38602,0.38236 z m 1.01007,0.49692 c -0.2529,-0.2529 -0.31486,-0.39117 -0.19343,-0.43165 0.0983,-0.0327 0.25567,0.0458 0.34979,0.17448 0.11739,0.16053 0.32201,0.21968 0.65163,0.18832 0.71039,-0.0676 0.60478,-0.39741 -0.2147,-0.67052 -0.57214,-0.19068 -0.70285,-0.29587 -0.73836,-0.59422 -0.0584,-0.49028 0.4886,-0.85874 1.08147,-0.72852 0.44011,0.0967 0.88315,0.62667 0.52384,0.62667 -0.10211,0 -0.25311,-0.0675 -0.33556,-0.14992 -0.19072,-0.19071 -0.90953,-0.11208 -0.98154,0.10738 -0.032,0.0975 0.19308,0.23221 0.54544,0.32643 0.32995,0.0882 0.67813,0.22453 0.77372,0.30289 0.27541,0.22576 0.20243,0.76781 -0.13522,1.00431 -0.45402,0.318 -0.9065,0.26494 -1.32708,-0.15565 z m 2.3313,-0.87928 c 0,-0.74155 0.0566,-1.25137 0.13904,-1.25137 0.0824,0 0.13905,0.50982 0.13905,1.25137 0,0.74156 -0.0566,1.25137 -0.13905,1.25137 -0.0824,0 -0.13904,-0.50981 -0.13904,-1.25137 z m 1.27918,1.08452 c -0.0945,-0.0945 -0.16685,-0.54689 -0.16685,-1.04281 0,-0.49127 -0.0611,-0.87596 -0.13904,-0.87596 -0.0765,0 -0.13904,-0.0939 -0.13904,-0.20856 0,-0.1147 0.0626,-0.20856 0.13904,-0.20856 0.0765,0 0.13904,-0.15642 0.13904,-0.3476 0,-0.19118 0.0626,-0.3476 0.13904,-0.3476 0.0765,0 0.13904,0.15642 0.13904,0.3476 0,0.21628 0.0788,0.3476 0.20857,0.3476 0.11471,0 0.20856,0.0939 0.20856,0.20856 0,0.11471 -0.0939,0.20856 -0.20856,0.20856 -0.16054,0 -0.20857,0.17912 -0.20857,0.77775 0,0.66081 0.0418,0.78867 0.27809,0.85046 0.15294,0.04 0.27808,0.15928 0.27808,0.26507 0,0.23637 -0.43972,0.25317 -0.6674,0.0255 z m 1.08452,-1.08452 c 0,-0.74155 0.0566,-1.25137 0.13904,-1.25137 0.0824,0 0.13904,0.50982 0.13904,1.25137 0,0.74156 -0.0566,1.25137 -0.13904,1.25137 -0.0824,0 -0.13904,-0.50981 -0.13904,-1.25137 z m 1.26752,0.0488 c -0.24095,-0.66144 -0.40989,-1.23082 -0.37541,-1.26529 0.15335,-0.15336 0.35939,0.17272 0.63785,1.00947 0.16513,0.49625 0.32133,0.90226 0.34709,0.90226 0.0258,0 0.18197,-0.40601 0.34711,-0.90226 0.27677,-0.83172 0.48452,-1.1628 0.63514,-1.01219 0.0514,0.0514 -0.4004,1.48017 -0.70442,2.22729 -0.20091,0.49372 -0.46013,0.21348 -0.88736,-0.95928 z m 2.43582,0.91443 c -0.3059,-0.24062 -0.36635,-0.39957 -0.36635,-0.9632 0,-0.56362 0.0605,-0.72257 0.36635,-0.96319 0.20149,-0.1585 0.51718,-0.28818 0.70153,-0.28818 0.43954,0 1.01773,0.58885 1.01773,1.03649 0,0.34291 -0.0282,0.35393 -0.90376,0.35393 -0.92791,0 -1.06596,0.096 -0.68528,0.47671 0.24318,0.24318 0.96888,0.29548 1.1024,0.0795 0.13055,-0.21123 0.48844,-0.16645 0.40511,0.0507 -0.0853,0.2222 -0.6561,0.50547 -1.01859,0.50547 -0.13903,0 -0.41765,-0.12967 -0.61914,-0.28817 z m 1.30214,-1.51936 c -0.24327,-0.45456 -1.39041,-0.31691 -1.39041,0.16685 0,0.0612 0.34633,0.11124 0.76962,0.11124 0.72653,0 0.76128,-0.0156 0.62079,-0.27809 z m -63.26367,-1.45993 c 0,-0.11471 0.0626,-0.20856 0.13904,-0.20856 0.0765,0 0.13904,0.0939 0.13904,0.20856 0,0.11471 -0.0626,0.20856 -0.13904,0.20856 -0.0765,0 -0.13904,-0.0939 -0.13904,-0.20856 z m 55.89449,0 c 0,-0.11471 0.0626,-0.20856 0.13904,-0.20856 0.0765,0 0.13905,0.0939 0.13905,0.20856 0,0.11471 -0.0626,0.20856 -0.13905,0.20856 -0.0765,0 -0.13904,-0.0939 -0.13904,-0.20856 z m 2.3637,0 c 0,-0.11471 0.0626,-0.20856 0.13904,-0.20856 0.0765,0 0.13904,0.0939 0.13904,0.20856 0,0.11471 -0.0626,0.20856 -0.13904,0.20856 -0.0765,0 -0.13904,-0.0939 -0.13904,-0.20856 z m -64.02669,-4.32614 c -3.02893,-0.73222 -5.59992,-3.30796 -6.38832,-6.40009 -0.12015,-0.47121 -0.21783,-1.42865 -0.21783,-2.13506 0,-1.51586 0.25702,-2.6248 0.92373,-3.98557 0.95133,-1.94166 2.96952,-3.67986 5.07231,-4.3686 1.35499,-0.44381 4.06395,-0.48205 5.26628,-0.0743 3.8463,1.30429 6.24478,4.56794 6.25443,8.51054 0.008,3.16194 -1.93103,6.31083 -4.7292,7.68101 -0.6477,0.31716 -1.55054,0.67113 -2.00632,0.7866 -1.02931,0.26076 -3.06569,0.2537 -4.17508,-0.0145 z m 4.68102,-1.34087 c 2.53953,-0.92863 4.36393,-3.00785 4.90959,-5.59532 0.25757,-1.22136 0.25882,-1.97184 0.005,-3.1683 -0.69521,-3.28086 -3.48135,-5.74863 -6.80771,-6.02981 -4.45369,-0.37647 -8.27026,3.14907 -8.27996,7.6486 -0.007,3.38455 2.4695,6.5454 5.7883,7.38691 1.19295,0.30249 3.19802,0.19178 4.38448,-0.24208 z m -6.52511,-4.10932 c 0.19625,-2.16434 1.99679,-3.82715 4.15195,-3.83435 0.75926,-0.003 1.07836,0.0753 1.83445,0.44753 1.39359,0.68606 2.16794,1.80899 2.2892,3.31972 l 0.0703,0.87528 h -4.20958 -4.20958 z m 7.33145,-0.3389 c -0.0142,-0.80792 -1.22526,-2.15305 -2.20192,-2.44566 -1.21459,-0.3639 -2.63391,0.0347 -3.41078,0.95802 -0.37471,0.44532 -0.48769,0.66255 -0.70141,1.34859 l -0.0975,0.31285 h 3.20731 c 2.47479,0 3.20662,-0.0397 3.20426,-0.1738 z m -7.22744,-5.45775 c -0.16877,-0.17965 -0.26476,-0.39473 -0.21333,-0.47795 0.16776,-0.27145 1.16528,-0.70352 1.62419,-0.70352 0.45402,0 1.64841,0.49516 1.64841,0.68338 0,0.0563 -0.1464,0.23993 -0.32533,0.40803 -0.30448,0.28604 -0.35126,0.2921 -0.72997,0.0946 -0.52834,-0.27553 -0.73168,-0.26662 -1.25944,0.0552 l -0.43768,0.26688 z m 4.92658,-0.009 c -0.40225,-0.33317 -0.40388,-0.34024 -0.1293,-0.56142 0.78025,-0.62851 1.76784,-0.76976 2.57226,-0.3679 0.54698,0.27324 0.58248,0.38591 0.26345,0.83622 -0.21052,0.29716 -0.24604,0.30313 -0.62568,0.10514 -0.54037,-0.2818 -0.92218,-0.2655 -1.33202,0.0569 -0.3399,0.26737 -0.34303,0.26708 -0.74871,-0.0689 z m 55.74392,11.20384 c -2.91733,-0.76477 -5.09444,-2.82165 -6.11107,-5.77359 -0.33088,-0.96076 -0.38262,-1.32721 -0.38262,-2.70996 0,-1.38275 0.0518,-1.74921 0.38262,-2.70997 0.49699,-1.4431 1.12902,-2.46707 2.1462,-3.47713 1.64593,-1.63444 3.43789,-2.41776 5.79368,-2.53262 2.65046,-0.12922 4.69508,0.6577 6.54144,2.51765 2.79019,2.8107 3.4354,6.60734 1.71559,10.09521 -0.71686,1.45387 -2.34985,3.16302 -3.69455,3.86689 -1.86168,0.97448 -4.35658,1.25691 -6.39129,0.72352 z m 4.05901,-1.04735 c 2.66796,-0.67947 4.79138,-2.74486 5.56031,-5.40835 0.31118,-1.07785 0.31118,-2.97785 0,-4.05571 -1.14889,-3.9796 -5.26996,-6.4058 -9.18647,-5.40835 -5.90658,1.50428 -7.81763,8.87365 -3.38001,13.03397 1.85181,1.73609 4.58842,2.45419 7.00617,1.83844 z m -3.17596,-2.4841 c -1.59115,-0.59267 -2.6493,-1.98425 -2.76114,-3.63121 l -0.0472,-0.69521 4.13646,-0.0368 4.13648,-0.0368 -0.002,0.73203 c -0.003,1.34703 -0.94205,2.7866 -2.26175,3.46543 -0.74577,0.3836 -2.42948,0.49016 -3.20148,0.20261 z m 2.77854,-1.03854 c 0.87915,-0.45211 1.71276,-1.54144 1.71276,-2.23816 0,-0.27878 -0.0676,-0.28499 -3.10524,-0.28499 -1.70789,0 -3.14004,0.0348 -3.18255,0.0773 -0.15801,0.15801 0.23418,1.05998 0.69498,1.59832 1.02516,1.19767 2.55106,1.53098 3.88005,0.84754 z m -4.53643,-5.81246 c -0.47214,-0.60023 -0.0922,-1.29904 0.70625,-1.29904 0.40882,0 0.81555,0.43148 0.81555,0.86518 0,0.35488 -0.49887,0.80331 -0.89368,0.80331 -0.19972,0 -0.45614,-0.15082 -0.62812,-0.36945 z m 4.5807,0.0914 c -0.33406,-0.33406 -0.35295,-0.66547 -0.0616,-1.08138 0.25705,-0.36698 0.90925,-0.41484 1.23356,-0.0905 0.32431,0.32431 0.27645,0.97651 -0.0905,1.23355 -0.41591,0.29132 -0.74733,0.27243 -1.08139,-0.0616 z m -32.65009,10.14604 c -1.68697,-0.44192 -2.74513,-1.04674 -4.00405,-2.28865 -0.91886,-0.90642 -1.23345,-1.33402 -1.68903,-2.29574 -0.71652,-1.51255 -0.92302,-2.40914 -0.91267,-3.96267 0.0163,-2.45431 0.81632,-4.32951 2.61201,-6.12289 1.75836,-1.75609 3.69331,-2.56718 6.12432,-2.56718 6.60836,0 10.79476,6.94959 7.74758,12.8613 -0.68081,1.32082 -2.40069,3.03412 -3.66784,3.65382 -2.00991,0.98294 -4.22926,1.24096 -6.21032,0.72201 z m 4.07138,-1.04318 c 1.28163,-0.33383 2.41852,-1.01007 3.49187,-2.07705 1.14101,-1.13425 1.73678,-2.21551 2.08626,-3.78636 0.58637,-2.63562 -0.27993,-5.29498 -2.35553,-7.23091 -1.49986,-1.39895 -3.03152,-1.98288 -5.2084,-1.98565 -2.22947,-0.003 -4.06827,0.80384 -5.58615,2.45063 -0.96159,1.04325 -1.46039,1.9606 -1.81058,3.3298 -0.68096,2.66253 0.0451,5.27451 2.00761,7.22249 1.05162,1.04383 2.20665,1.7402 3.43365,2.07018 0.99507,0.26761 2.92728,0.27098 3.94127,0.007 z m -4.51305,-5.07066 v -0.69521 h 2.57225 2.57226 v 0.69521 0.6952 h -2.57226 -2.57225 z m -0.35392,-4.23444 c -0.39769,-0.39768 -0.42179,-0.59423 -0.12484,-1.01819 0.26723,-0.38153 0.90051,-0.40991 1.22193,-0.0547 0.32843,0.36292 0.29048,0.93905 -0.0789,1.19778 -0.42395,0.29695 -0.6205,0.27285 -1.01818,-0.12484 z m 4.73371,0.17514 c -0.36071,-0.20455 -0.4819,-0.39234 -0.48452,-0.75083 -0.005,-0.65906 0.98095,-1.00035 1.43626,-0.49725 0.39843,0.44027 0.28212,0.95736 -0.28216,1.25437 -0.36127,0.19016 -0.32251,0.19053 -0.66958,-0.006 z"
       id="path1319" />
    <path
       style="fill:#ff0000;stroke-width:0.264583"
       d="m 257.28839,286.38351 c -14.24036,-1.28783 -22.87771,-7.15194 -29.22923,-19.84447 -1.89877,-3.79439 -2.66933,-5.92334 -3.83582,-10.59774 -0.50435,-2.02107 -1.21846,-4.3909 -1.58691,-5.2663 -0.81214,-1.92955 -0.83146,-2.52997 -0.11898,-3.69865 0.75595,-1.23999 1.44451,-1.74282 3.10206,-2.26532 0.78133,-0.24629 1.35951,-0.50888 1.28486,-0.58353 -0.0746,-0.0747 -0.56129,0.0181 -1.08141,0.20623 -0.68776,0.24869 -1.02506,0.26258 -1.23672,0.0509 -0.53424,-0.53424 0.007,-1.35227 1.14661,-1.73204 0.60294,-0.20098 1.33255,-0.6819 1.62133,-1.0687 0.45758,-0.61287 0.48198,-0.79779 0.18981,-1.43853 -0.31821,-0.69781 -0.28014,-0.78276 0.74779,-1.6685 1.25977,-1.08551 1.33378,-1.5171 0.40916,-2.38573 -0.98561,-0.92593 -0.82142,-2.13374 0.33485,-2.46324 0.65608,-0.18696 1.00692,-0.14089 1.52825,0.2007 0.60228,0.39464 0.66865,0.59493 0.60364,1.82183 l -0.073,1.37844 1.57835,0.0811 c 1.6858,0.0866 2.37387,0.42627 2.13329,1.0532 -0.24586,0.64072 0.34649,1.06844 1.93109,1.39437 1.74796,0.35954 2.42452,0.67056 2.4335,1.1187 0.007,0.35955 3.25152,1.98041 5.6821,2.83877 2.8356,1.00139 4.42035,2.17592 3.954,2.93049 -0.22208,0.35934 -0.86253,0.29063 -2.7208,-0.29187 -2.01774,-0.6325 -2.01482,-0.63237 -2.53721,-0.10998 -0.54258,0.54258 -0.5442,2.9003 -0.006,8.54796 0.75563,7.92732 2.30095,12.09629 6.2254,16.79503 2.51554,3.01183 4.66311,4.86854 7.52555,6.50631 2.21357,1.2665 6.44699,2.82177 8.41514,3.09154 1.23226,0.16889 1.25965,0.15601 2.8083,-1.32115 1.53392,-1.46311 1.93115,-1.65385 2.77218,-1.33112 0.58065,0.22282 0.53369,0.41546 -0.38223,1.56799 -0.4404,0.55418 -0.75726,1.1361 -0.70413,1.29315 0.0531,0.15706 0.68136,0.29849 1.39606,0.31429 0.71469,0.0158 1.89871,0.11863 2.63115,0.2285 1.07584,0.16138 1.40032,0.11711 1.68875,-0.23044 0.27052,-0.32595 0.44371,-0.35826 0.71472,-0.13335 0.19672,0.16327 1.14361,0.28506 2.10419,0.27065 1.94747,-0.0292 2.75959,0.27006 2.75959,1.01694 0,0.80644 -0.68292,1.26781 -2.17594,1.47005 -0.76777,0.10399 -1.70784,0.34875 -2.08906,0.5439 -0.41128,0.21054 -1.0727,0.29322 -1.62663,0.20332 -0.56111,-0.091 -1.46776,0.026 -2.27269,0.29332 -2.97293,0.98744 -11.45145,1.62842 -16.04506,1.213 z m 6.4823,-0.539 c 0.57677,-0.18472 0.59371,-0.22077 0.13229,-0.2816 -0.6376,-0.0841 -4.44254,-0.20764 -6.53873,-0.21237 -3.92197,-0.009 -8.08009,-1.1757 -12.97648,-3.64148 -1.00567,-0.50645 -1.95718,-0.87792 -2.11446,-0.82549 -0.15729,0.0524 0.50023,0.50295 1.46114,1.00116 2.35736,1.22223 2.06143,1.32441 -0.37571,0.12973 -1.06994,-0.52448 -1.70722,-0.76052 -1.41618,-0.52453 0.85647,0.69447 3.83104,2.1182 5.73468,2.7448 3.82427,1.2588 14.0085,2.2775 16.09345,1.60978 z m -5.60483,-3.52613 c 0.1023,-0.86411 -0.40272,-0.93329 -1.22445,-0.16773 -0.71969,0.67049 -0.73486,0.86855 -0.0499,0.65115 0.3199,-0.10153 0.52917,-0.0475 0.52917,0.13651 0,0.61646 0.66422,0.0639 0.74517,-0.61993 z m 6.88984,0.38015 c 0.45,-0.28513 0.26982,-0.38884 -1.61574,-0.93005 -0.83675,-0.24017 -1.52136,-0.55241 -1.52136,-0.69386 0,-0.14146 -0.3631,-0.25719 -0.80689,-0.25719 -0.98215,0 -2.023,-0.51566 -2.86913,-1.42143 -0.34832,-0.37288 -1.24129,-0.87387 -1.98437,-1.11331 -2.60096,-0.8381 -4.80197,-2.50015 -5.0557,-3.81771 -0.0658,-0.34169 -0.48317,-0.99632 -0.92747,-1.45472 -0.44431,-0.45841 -1.31025,-1.59042 -1.92432,-2.51558 -0.61407,-0.92515 -1.35281,-1.80874 -1.64163,-1.96353 -0.28883,-0.15479 -0.68254,-0.48979 -0.8749,-0.74445 -0.19237,-0.25466 -0.5216,-0.46302 -0.73163,-0.46302 -0.48843,0 -0.49954,-0.69198 -0.0141,-0.87826 0.30695,-0.11779 0.2898,-0.37742 -0.10373,-1.5703 -0.25932,-0.78605 -0.68163,-2.31286 -0.93846,-3.39292 -0.25683,-1.08005 -0.50904,-2.01457 -0.56046,-2.07671 -0.0514,-0.0621 -0.26707,0.11646 -0.47922,0.39688 -0.30206,0.39925 -0.38755,0.42217 -0.39414,0.10563 -0.005,-0.22232 0.23879,-0.61589 0.54094,-0.8746 0.41302,-0.35364 0.47763,-0.55681 0.26033,-0.81864 -0.15897,-0.19155 -0.36509,-1.67758 -0.45805,-3.3023 -0.093,-1.62472 -0.25002,-3.0041 -0.34902,-3.06529 -0.099,-0.0612 -0.0705,-0.80096 0.0634,-1.64393 0.16544,-1.04175 0.15008,-1.77492 -0.0479,-2.28892 -0.26937,-0.6992 -0.36585,-0.74254 -1.27919,-0.57461 -2.51216,0.4619 -3.5014,0.73196 -3.5014,0.95589 0,0.13346 0.11907,0.24266 0.26459,0.24266 0.14552,0 0.26458,0.10947 0.26458,0.24326 0,0.14356 -0.39678,0.1337 -0.9682,-0.0241 -0.79827,-0.22041 -1.00954,-0.19345 -1.20377,0.15362 -0.12957,0.23152 -0.46237,0.42095 -0.73957,0.42095 -0.27719,0 -0.80165,0.29766 -1.16545,0.66146 -0.48755,0.48755 -0.94288,0.66146 -1.73182,0.66146 -1.20417,0 -1.33534,0.30761 -0.67535,1.58388 0.46888,0.90672 0.27932,1.59112 -0.44071,1.59112 -0.67876,0 -1.5418,0.47022 -1.5418,0.84003 0,0.16074 -0.18085,0.4245 -0.40189,0.58612 -0.35876,0.26234 -0.35897,0.35514 -0.002,0.86482 0.25971,0.37078 0.58088,0.52361 0.91613,0.43595 0.33156,-0.0867 0.76357,0.11235 1.20767,0.55645 0.5569,0.5569 0.67565,0.89772 0.61025,1.75142 -0.0969,1.26499 -0.49679,1.46969 -0.859,0.43973 -0.20262,-0.57614 -0.17432,-0.79719 0.12592,-0.98348 0.32467,-0.20144 0.28827,-0.33794 -0.22513,-0.84431 l -0.61242,-0.60403 -0.63739,0.78937 -0.63739,0.78936 0.69903,0.55739 c 0.44402,0.35405 0.64035,0.71033 0.53817,0.97661 -0.10251,0.26715 0.0649,0.56716 0.46164,0.82709 0.34237,0.22434 0.70003,0.76087 0.79479,1.19231 0.23249,1.05854 0.75803,1.48174 1.19148,0.95947 0.18132,-0.21847 0.46501,-0.32151 0.63042,-0.22898 0.16541,0.0925 -0.14574,-0.30074 -0.69144,-0.87396 -1.04332,-1.09593 -1.25967,-1.57604 -0.59531,-1.3211 0.31169,0.11961 0.39687,-0.0731 0.39687,-0.89773 0,-0.57752 0.12446,-1.05003 0.27658,-1.05003 0.171,0 0.21243,0.34191 0.10853,0.89574 -0.21584,1.15048 0.25124,1.46104 1.05778,0.70333 l 0.60997,-0.57304 0.57114,0.72609 c 0.94857,1.20591 0.52067,1.81413 -0.9042,1.28525 -0.32527,-0.12074 -0.0959,0.2365 0.59531,0.92709 0.78041,0.77974 1.12448,1.34716 1.12448,1.85442 0,0.7311 0.56176,1.46867 0.87784,1.15258 0.0922,-0.0922 0.33956,-0.0251 0.54961,0.14925 0.30365,0.25201 0.43256,0.22646 0.62906,-0.12466 0.2021,-0.36113 0.35066,-0.38622 0.81511,-0.13765 0.31238,0.16718 0.56796,0.45561 0.56796,0.64096 0,0.18535 0.18743,0.56811 0.41651,0.85059 0.41093,0.50671 0.41488,0.5065 0.2946,-0.0156 -0.067,-0.29104 -0.21513,-0.76729 -0.32908,-1.05833 -0.20711,-0.529 -0.20698,-0.529 0.39394,-5.3e-4 0.33062,0.2907 0.76439,0.84427 0.96394,1.23016 0.38876,0.75178 0.2408,1.01361 -0.7793,1.37904 -0.43375,0.15538 -0.37231,0.27437 0.4994,0.96712 0.5467,0.43437 1.11879,0.78984 1.2713,0.78984 0.52326,0 1.50202,1.15072 1.50202,1.76591 0,0.72509 -0.48348,0.78938 -1.59884,0.2126 -1.27915,-0.66147 -2.15597,-0.95159 -1.97089,-0.65212 0.0906,0.14655 1.85355,1.0869 3.91773,2.08968 2.77391,1.34756 4.05156,2.13129 4.89726,3.00402 0.96735,0.99826 1.0696,1.19974 0.66146,1.3034 -0.26552,0.0674 -0.87938,0.0182 -1.36415,-0.10941 -0.69237,-0.18226 -0.81878,-0.30745 -0.58944,-0.58379 0.22845,-0.27526 0.13241,-0.38242 -0.44153,-0.49267 -0.88631,-0.17025 -0.96179,-0.11323 -0.74682,0.56408 0.1877,0.59139 1.39603,1.09833 2.63252,1.10444 1.0708,0.005 1.37439,0.24731 1.32244,1.05428 -0.0489,0.75959 0.28212,1.04853 1.20783,1.05428 0.38995,0.002 0.8851,0.29617 1.23332,0.73166 l 0.58181,0.7276 0.69959,-0.65523 c 0.47516,-0.44503 0.64483,-0.51253 0.5289,-0.21041 -0.15893,0.41416 -0.0964,0.41564 0.907,0.0215 1.02333,-0.40197 1.16132,-0.39387 2.73569,0.16062 4.37157,1.53965 5.78352,1.83743 6.51489,1.37401 z m -16.24867,-9.40703 c -0.24962,-0.38097 -0.38771,-0.75882 -0.30687,-0.83966 0.0808,-0.0808 0.35123,0.16471 0.60085,0.54568 0.24962,0.38097 0.38771,0.75882 0.30687,0.83966 -0.0808,0.0808 -0.35123,-0.16471 -0.60085,-0.54568 z m -4.6957,-7.65934 c -0.10827,-0.27549 -0.13452,-0.56322 -0.0583,-0.63941 0.24131,-0.24131 0.45364,0.15414 0.35253,0.65657 -0.0927,0.46046 -0.10682,0.45964 -0.2942,-0.0172 z m -8.14086,-5.80941 c -0.65012,-1.43176 -0.63578,-2.16168 0.019,-0.96574 0.27884,0.50932 0.51198,0.76939 0.51808,0.57792 0.006,-0.19147 -0.11217,-0.57842 -0.26281,-0.8599 -0.49326,-0.92167 0.19931,-0.5498 1.10445,0.59303 0.56764,0.71671 0.76076,1.14289 0.54975,1.21322 -0.1789,0.0596 -0.27642,0.18756 -0.21672,0.28427 0.0597,0.0967 -0.18883,0.1937 -0.55229,0.21553 -0.53433,0.0321 -0.7563,-0.17052 -1.15943,-1.05833 z m 4.41521,0.3206 c -0.4718,-0.67359 -0.57939,-2.48415 -0.16291,-2.74155 0.14552,-0.0899 0.26458,0.0816 0.26458,0.38126 0,0.29963 0.10349,0.54478 0.22997,0.54478 0.31946,0 0.60146,1.92025 0.32289,2.19881 -0.12633,0.12633 -0.41666,-0.0437 -0.65453,-0.3833 z m -8.43971,-3.27401 c -0.43347,-0.59574 -0.4351,-0.63413 -0.0202,-0.47492 0.34468,0.13226 0.41113,0.0683 0.28112,-0.27048 -0.158,-0.41175 -0.12322,-0.41287 0.48323,-0.0155 0.75973,0.4978 0.88498,1.42982 0.19047,1.41735 -0.25466,-0.005 -0.67523,-0.29997 -0.93461,-0.65644 z m 0.58386,-1.35328 -0.64144,-0.69513 0.84312,0.42866 c 0.95407,0.48506 1.35354,0.96159 0.80612,0.96159 -0.2015,0 -0.65502,-0.31281 -1.0078,-0.69512 z m 1.69392,0.0196 c -0.85139,-0.37293 -1.30784,-0.83705 -1.06352,-1.08137 0.18445,-0.18445 1.59979,0.5705 2.02098,1.078 0.4114,0.49572 0.16851,0.49657 -0.95746,0.003 z m 0.70735,-0.91196 c -0.21828,-0.14107 -0.27781,-0.25648 -0.13229,-0.25648 0.14552,0 0.44318,0.11541 0.66146,0.25648 0.21828,0.14106 0.27781,0.25648 0.13229,0.25648 -0.14552,0 -0.44318,-0.11542 -0.66146,-0.25648 z m -0.0479,-0.8599 c -0.22752,-0.1819 -0.47632,-0.59507 -0.5529,-0.91815 -0.13554,-0.57182 -0.12286,-0.57533 0.47689,-0.13229 0.5986,0.44218 1.06017,1.38117 0.67892,1.38117 -0.10408,0 -0.37539,-0.14883 -0.60291,-0.33073 z m 6.13698,-2.11667 c 0.005,-1.14066 0.262,-2.05052 0.57967,-2.05052 0.15279,0 0.18758,0.45591 0.0858,1.12448 -0.12461,0.81859 -0.096,1.01652 0.10498,0.72761 0.35792,-0.51439 0.36546,-0.11694 0.0104,0.54656 -0.41601,0.77733 -0.78487,0.61288 -0.78083,-0.34813 z m 1.0756,-1.14652 c 0.0127,-0.30823 0.0754,-0.37092 0.15986,-0.15986 0.0764,0.191 0.067,0.4192 -0.0209,0.50712 -0.0879,0.0879 -0.15046,-0.0684 -0.13897,-0.34726 z m 29.87703,32.16892 c 0.35278,-0.22798 0.35278,-0.25751 0,-0.26577 -0.21828,-0.005 -1.19582,-0.12485 -2.17232,-0.26608 -1.29188,-0.18684 -1.97648,-0.17096 -2.51354,0.0583 -0.72727,0.31048 -0.71869,0.31759 0.58482,0.48504 2.10328,0.27018 3.67197,0.26578 4.10104,-0.0115 z m -32.01458,-3.55267 c 0,-0.40527 -1.21262,-1.47441 -1.67227,-1.47441 -0.40824,0 -1.50273,-1.09347 -1.50273,-1.50133 0,-0.19292 -0.1775,-0.35076 -0.39444,-0.35076 -0.21695,0 -0.66343,-0.41105 -0.99219,-0.91345 -0.32876,-0.5024 -0.8557,-0.97843 -1.17098,-1.05784 -0.38023,-0.0958 -0.73067,-0.55659 -1.04079,-1.36864 -0.25716,-0.67334 -0.83264,-1.68183 -1.27885,-2.24107 -2.04048,-2.55738 -2.81297,-3.6974 -3.49284,-5.15462 -0.99045,-2.1229 -1.00974,-2.19454 -0.38659,-1.43521 0.67692,0.82485 0.68035,0.72844 0.0346,-0.97065 -0.70531,-1.85568 -2.15454,-4.5856 -2.43435,-4.5856 -0.22756,0 -0.0833,0.38876 1.20057,3.23513 0.37592,0.83344 0.61734,1.68773 0.53649,1.89841 -0.22715,0.59196 1.39371,3.58205 4.4602,8.22792 2.1256,3.22039 3.23937,4.62966 4.65473,5.88969 2.20715,1.96492 3.47948,2.62401 3.47948,1.80243 z m 4.64578,-1.61512 c -0.28247,-0.21365 -0.69919,-0.38467 -0.92604,-0.38005 -0.32974,0.007 -0.30945,0.0863 0.10114,0.39688 0.28248,0.21365 0.6992,0.38467 0.92604,0.38005 0.32974,-0.007 0.30946,-0.0863 -0.10114,-0.39688 z m 0.11672,-1.44679 c -0.21828,-0.14107 -0.635,-0.25648 -0.92604,-0.25648 -0.43819,0 -0.46093,0.0441 -0.13229,0.25648 0.21828,0.14106 0.635,0.25648 0.92604,0.25648 0.43818,0 0.46093,-0.0441 0.13229,-0.25648 z m -1.71592,-0.27085 c 0.24069,-0.38945 -2.12114,-1.36422 -3.06903,-1.26664 -0.72479,0.0746 -0.76593,0.12751 -0.44161,0.56783 0.54084,0.73431 3.16577,1.25682 3.51064,0.69881 z m 0.16064,-1.1996 c -1.78509,-0.81066 -1.95431,-0.80941 -0.95826,0.007 0.4584,0.37575 1.1291,0.64821 1.5875,0.64491 0.71409,-0.005 0.65095,-0.0706 -0.62924,-0.65195 z m 2.78506,0.23078 c -0.24146,-0.24146 -2.0576,-0.86799 -2.53065,-0.87302 -0.56667,-0.006 -0.17865,0.26762 0.95045,0.67027 1.1005,0.39246 1.86844,0.49099 1.5802,0.20275 z m -6.78913,-3.05981 c -0.28683,-0.47295 -0.60605,-1.03849 -0.70936,-1.25677 -0.10332,-0.21828 -0.43176,-0.60128 -0.72988,-0.8511 -0.33417,-0.28002 -0.40921,-0.45759 -0.19569,-0.46302 0.19049,-0.005 0.26786,-0.13578 0.17194,-0.29099 -0.0959,-0.1552 0.0332,-0.43402 0.28705,-0.61961 0.41015,-0.2999 0.33412,-0.36974 -0.68374,-0.6281 -1.01409,-0.2574 -1.19568,-0.23245 -1.58629,0.21792 -0.24261,0.27973 -0.51832,0.4314 -0.61269,0.33703 -0.0944,-0.0944 -0.17157,-0.0454 -0.17157,0.10879 0,0.15421 0.18614,0.35181 0.41364,0.43911 0.22751,0.0873 0.33749,0.28196 0.2444,0.43257 -0.0931,0.15062 0.10773,0.50888 0.44625,0.79614 0.54276,0.46057 0.55296,0.502 0.0863,0.35054 -0.41854,-0.13584 -0.46424,-0.10145 -0.21863,0.1645 0.32898,0.35622 3.25912,2.07643 3.5867,2.10566 0.10618,0.009 -0.0416,-0.36973 -0.32846,-0.84267 z m -8.20158,-19.64218 c 0.3602,-0.43402 0.28177,-0.48544 -1.18803,-0.77884 -0.7494,-0.1496 -0.76505,-0.13605 -0.28016,0.24248 0.28602,0.22328 0.36703,0.40093 0.18283,0.40093 -0.18193,0 -0.25719,0.11907 -0.16725,0.26459 0.24358,0.39413 1.08004,0.31975 1.45261,-0.12916 z m -6.55967,-2.84741 c 0.0703,-1.22093 0.15384,-1.39953 0.69025,-1.47557 0.55994,-0.0794 0.58176,-0.0398 0.26458,0.48026 -0.30501,0.50007 -0.27219,0.62699 0.27894,1.07869 0.75035,0.61498 1.88891,0.68434 1.88891,0.11506 0,-0.21828 0.22839,-0.39687 0.50753,-0.39687 0.27914,0 0.69586,-0.0723 0.92604,-0.1606 0.27894,-0.10704 0.41852,-0.0129 0.41852,0.28241 0,0.5429 0.52581,0.40726 2.75365,-0.71033 1.16524,-0.58454 2.3097,-0.88187 4.49684,-1.16827 5.27502,-0.69075 7.73859,-1.80158 7.51179,-3.38708 -0.0648,-0.45297 -0.30064,-0.559 -1.40082,-0.62979 -1.17637,-0.0757 -4.60191,0.2894 -6.11458,0.65166 -0.47808,0.11449 -0.55413,0.0193 -0.52916,-0.66236 l 0.0292,-0.79607 0.59531,0.55821 c 0.32742,0.30701 0.59531,0.43297 0.59531,0.2799 0,-0.15307 -0.18128,-0.42876 -0.40285,-0.61264 -0.23256,-0.19301 -0.33686,-0.54223 -0.24675,-0.82615 0.10386,-0.32722 0.0258,-0.49181 -0.23314,-0.49181 -0.7251,0 -7.71439,1.91708 -7.9808,2.18904 -0.17915,0.18288 -0.0939,0.20936 0.26399,0.082 1.91889,-0.68281 3.42102,-0.76507 4.73851,-0.2595 0.27781,0.10661 0.42146,0.0168 0.42146,-0.26345 0,-0.60159 0.21642,-0.53256 1.01833,0.32478 l 0.70146,0.74996 -2.91042,0.81891 c -1.60072,0.4504 -3.296,0.89598 -3.76727,0.99019 -1.06614,0.2131 -1.3148,0.56463 -0.56723,0.80189 0.44212,0.14033 0.48723,0.23017 0.20356,0.40548 -0.29601,0.18295 -0.27078,0.29366 0.13446,0.58998 0.40469,0.29592 0.4268,0.39242 0.11715,0.51125 -0.6548,0.25127 -2.07379,-0.50615 -2.07379,-1.10693 0,-0.62663 -0.21621,-0.65695 -1.64093,-0.23009 -1.80382,0.54043 -2.49775,2.09886 -1.4804,3.32469 0.50847,0.61267 0.7119,0.34135 0.7924,-1.05686 z m 6.7607,-1.46501 c -0.40018,-0.24392 -0.7276,-0.53497 -0.7276,-0.64679 0,-0.35608 0.98104,-0.21836 1.31553,0.18468 0.54215,0.65325 0.18553,0.93355 -0.58793,0.46211 z m 0.33073,-1.37926 c 0,-0.14552 0.17157,-0.26458 0.38126,-0.26458 0.2097,0 0.45485,0.11906 0.54479,0.26458 0.0899,0.14552 -0.0816,0.26459 -0.38126,0.26459 -0.29963,0 -0.54479,-0.11907 -0.54479,-0.26459 z m 2.24896,-0.98493 c 0.36864,-0.37488 2.20625,-0.62114 2.39202,-0.32056 0.084,0.13594 -0.26125,0.24716 -0.76726,0.24716 -0.50601,0 -1.13812,0.077 -1.40468,0.17123 -0.32685,0.11548 -0.39851,0.0836 -0.22008,-0.0978 z m 14.3859,-0.0999 c -0.74831,-0.47402 -1.16684,-0.23406 -0.49527,0.28395 0.39519,0.30484 0.70106,0.39666 0.75985,0.2281 0.0541,-0.15516 -0.0649,-0.38559 -0.26458,-0.51205 z m -13.72444,-4.18473 c 0,-0.27892 0.14851,-0.55663 0.33002,-0.61713 0.38027,-0.12676 -0.54082,-0.67347 -1.68982,-1.003 -0.65062,-0.1866 -0.75687,-0.14369 -0.75687,0.30566 0,0.62042 1.12611,1.82158 1.70777,1.82158 0.22659,0 0.4089,-0.2261 0.4089,-0.50711 z m -2.92365,-0.0184 c 0.70197,-0.003 0.84062,-0.0758 0.60025,-0.31618 -0.24037,-0.24037 -0.60401,-0.21022 -1.57427,0.13051 -0.69394,0.24369 -0.96405,0.38597 -0.60025,0.31618 0.36381,-0.0698 1.07223,-0.12852 1.57427,-0.13051 z m -0.92599,-6.33228 c 0.1813,-0.29335 -0.5551,-1.07967 -1.01113,-1.07967 -0.42623,0 -0.96006,0.54434 -0.96006,0.97896 0,0.39712 1.73327,0.48567 1.97119,0.10071 z"
       id="path1335" />
    <path
       style="fill:#72c92d;fill-opacity:1;stroke-width:0.0242543"
       d="m 34.97203,8.4617319 c -0.101481,-0.037478 -0.109388,-0.046889 -0.12434,-0.1484845 -0.0088,-0.059662 -0.0099,-0.1873418 -0.0025,-0.2837303 0.01114,-0.1459319 0.007,-0.1777316 -0.02509,-0.1900349 -0.02118,-0.00811 -0.143026,0.00936 -0.270767,0.038884 -0.53079,0.1226556 -1.196095,-0.023633 -1.335768,-0.2937514 -0.02195,-0.042453 -0.0515,-0.1836751 -0.06564,-0.3138208 -0.03143,-0.2892195 0.0036,-0.4859659 0.114545,-0.6415028 0.206813,-0.2901982 0.34063,-0.4485742 0.467086,-0.5528153 0.07685,-0.063356 0.232512,-0.1925497 0.3459,-0.2870994 0.113384,-0.09455 0.274718,-0.2048857 0.358508,-0.2451975 0.13069,-0.062874 0.168569,-0.070862 0.266477,-0.056179 0.216306,0.032448 0.318086,0.1200974 0.393312,0.3387414 0.08108,0.2356631 0.06304,0.3005007 -0.08931,0.3209379 -0.09612,0.012871 -0.09713,0.012168 -0.173213,-0.1226339 -0.0496,-0.087882 -0.09681,-0.1406916 -0.134144,-0.1500638 -0.06264,-0.015737 -0.356661,0.1164528 -0.487989,0.2193685 -0.170836,0.1338773 -0.406397,0.3789884 -0.559077,0.5817486 -0.179343,0.2381724 -0.252329,0.37669 -0.253148,0.4804496 -8.66e-4,0.1076427 0.06243,0.2293898 0.140102,0.2695556 0.282845,0.1462619 0.869486,0.1935179 1.120586,0.090267 0.170914,-0.070283 0.266797,-0.1603771 0.266797,-0.2506922 0,-0.042076 -0.0158,-0.075048 -0.04056,-0.084551 -0.0223,-0.00855 -0.224717,0.014926 -0.449795,0.052242 -0.225079,0.037261 -0.412363,0.063729 -0.416185,0.058776 -0.09562,-0.1239968 -0.116495,-0.2835301 -0.05314,-0.4060343 0.03177,-0.061447 0.05817,-0.071717 0.309242,-0.1203784 0.150977,-0.029257 0.356362,-0.063572 0.45641,-0.076254 0.100052,-0.012709 0.234809,-0.033152 0.299467,-0.045536 0.06466,-0.01233 0.167918,-0.019252 0.229468,-0.015413 0.136437,0.0086 0.175269,0.050349 0.246834,0.2653913 l 0.05182,0.1557153 -0.07407,0.1535844 c -0.117451,0.2435318 -0.19307,0.575605 -0.205323,0.9016806 -0.0061,0.1607827 -0.02268,0.2986512 -0.0383,0.3174822 -0.05582,0.06726 -0.153625,0.081608 -0.268126,0.039317 z M 45.482521,8.1476028 c -0.185616,-0.064139 -0.311717,-0.1576405 -0.38829,-0.2879107 -0.06374,-0.108437 -0.06795,-0.1326011 -0.06662,-0.3825469 0.0011,-0.2425205 0.0096,-0.2903984 0.09096,-0.5262238 0.04921,-0.1426871 0.08953,-0.2763859 0.08953,-0.2971151 0,-0.071781 -0.08417,-0.038884 -0.278922,0.1089843 -0.133623,0.1014552 -0.364224,0.2143335 -0.569975,0.278998 -0.07337,0.023039 -0.148895,0.056293 -0.16784,0.073853 -0.04039,0.037424 -0.09361,0.3240908 -0.1144,0.6161767 -0.02596,0.3647543 -0.03521,0.3955155 -0.126994,0.4218366 -0.06367,0.018279 -0.09796,0.013845 -0.162416,-0.020875 -0.137565,-0.07408 -0.145682,-0.1388311 -0.09573,-0.7635795 0.0059,-0.073664 -0.0093,-0.098806 -0.12715,-0.2102342 l -0.133847,-0.1265663 0.01725,-0.1523894 c 0.02158,-0.1905649 0.04727,-0.2396596 0.125597,-0.2396596 0.0358,0 0.09137,-0.029744 0.132542,-0.070895 0.06226,-0.062264 0.07085,-0.088108 0.07053,-0.2122244 -1.84e-4,-0.077731 -0.0099,-0.1563805 -0.02158,-0.1747788 -0.03131,-0.049485 -0.226053,-0.037748 -0.340121,0.020443 -0.118178,0.060295 -0.249632,0.063334 -0.343408,0.00796 -0.117222,-0.069246 -0.128399,-0.032989 -0.134348,0.4356761 -0.0027,0.2300711 -0.01187,0.4455944 -0.0198,0.4789462 -0.008,0.033368 -0.01314,0.1806952 -0.0115,0.327433 0.0056,0.4942565 0.0016,0.5465364 -0.04495,0.6266357 -0.03899,0.066687 -0.05897,0.077201 -0.152605,0.080256 -0.180712,0.0059 -0.268046,-0.088071 -0.296304,-0.3188234 -0.01974,-0.1610639 -0.0232,-0.1676238 -0.394504,-0.7473985 -0.03715,-0.057991 -0.06719,-0.077243 -0.12054,-0.077243 -0.0687,0 -0.07287,0.00682 -0.125813,0.2061564 -0.03013,0.1133918 -0.05501,0.2754289 -0.05531,0.3600818 -5.4e-4,0.1791106 -0.05979,0.4056719 -0.111022,0.4253356 -0.03467,0.013304 -0.275181,-0.023039 -0.297023,-0.044887 -0.06021,-0.060214 -0.03921,-0.4800603 0.0412,-0.8235283 0.09723,-0.4153578 0.1216,-0.6895806 0.09179,-1.0327133 -0.0166,-0.1909922 0.01785,-0.3677557 0.08311,-0.4268446 0.06109,-0.055281 0.181198,-0.055855 0.29593,-0.00162 0.102595,0.048672 0.108298,0.066255 0.119849,0.3690213 0.0098,0.257874 0.0444,0.3387737 0.255446,0.5979782 0.07626,0.093651 0.153617,0.19083 0.171917,0.2159614 0.04186,0.057461 0.13808,0.059414 0.160016,0.00325 0.0091,-0.023363 0.02136,-0.1625025 0.02715,-0.3092402 0.0058,-0.1467379 0.02136,-0.3261027 0.0345,-0.3985874 0.0132,-0.072485 0.02396,-0.1850757 0.02396,-0.2502 0,-0.1540388 0.03223,-0.2122407 0.117585,-0.2122407 0.07378,0 0.169387,0.088211 0.216875,0.2000996 0.03493,0.082321 0.07699,0.084437 0.149275,0.00752 0.07946,-0.084582 0.28094,-0.1774557 0.44844,-0.2067136 0.07915,-0.013845 0.292274,-0.025148 0.473596,-0.025148 0.54889,0 0.909307,0.062826 1.013331,0.1766392 0.118433,0.1295726 0.202858,0.3982412 0.175201,0.5575312 -0.02083,0.1200538 0.02336,0.1908084 0.08647,0.1384255 0.06352,-0.052728 0.149182,-0.1977684 0.217584,-0.3684425 0.09811,-0.244792 0.136343,-0.2773379 0.37597,-0.3199969 0.113383,-0.020173 0.395035,-0.085751 0.625879,-0.1457048 0.302907,-0.078661 0.435141,-0.1031323 0.475138,-0.087925 0.1152,0.043806 0.216914,0.4581357 0.129888,0.5290791 -0.01666,0.013575 -0.155835,0.047916 -0.309247,0.076319 -0.153405,0.028393 -0.424298,0.085264 -0.60198,0.126398 -0.350206,0.081078 -0.401908,0.1102605 -0.488481,0.2757208 l -0.05078,0.097016 0.05869,0.05116 c 0.04684,0.040831 0.08246,0.049268 0.176483,0.041642 0.243997,-0.019794 0.427948,-0.060376 0.554205,-0.1222985 0.159323,-0.078142 0.182177,-0.065222 0.252401,0.142725 0.04423,0.1310488 0.04592,0.1550391 0.01568,0.2274264 -0.02623,0.062707 -0.05471,0.086308 -0.126599,0.1048312 -0.12384,0.031908 -0.39113,0.071641 -0.758614,0.1127693 -0.329295,0.036884 -0.419653,0.076006 -0.43307,0.1876554 -0.0057,0.047645 0.01352,0.078001 0.083,0.1310003 0.130373,0.099444 0.293092,0.095334 0.576481,-0.014548 l 0.215458,-0.083545 0.04397,0.054276 c 0.08764,0.1082263 0.08982,0.3936227 0.0038,0.4716453 -0.02315,0.020929 -0.10205,0.065979 -0.175369,0.1001088 -0.110586,0.051485 -0.168484,0.06196 -0.339483,0.061501 -0.133915,-3.678e-4 -0.250237,-0.015792 -0.331938,-0.044021 z m -0.89373,-1.6305131 c 0.08587,-0.061663 0.106421,-0.091949 0.117258,-0.172767 0.0073,-0.053864 0.008,-0.1115416 0.0016,-0.1281016 -0.01969,-0.051268 -0.115866,-0.080607 -0.323637,-0.09873 -0.158299,-0.01379 -0.204128,-0.010438 -0.221033,0.016224 -0.01174,0.01855 -0.02147,0.1177181 -0.02169,0.2204393 -4.59e-4,0.2190763 0.01465,0.2358091 0.21395,0.2369447 0.10659,5.408e-4 0.147813,-0.012439 0.233554,-0.074037 z m 5.033583,1.5923806 C 49.385797,8.0312801 49.201651,7.933491 49.00034,7.7791332 48.820278,7.64107 48.686119,7.5028013 48.630854,7.3983168 c -0.01779,-0.033584 -0.05143,-0.054568 -0.08751,-0.054568 -0.08277,0 -0.108043,0.1118225 -0.09182,0.4062343 0.01078,0.1962489 0.0057,0.2527797 -0.02861,0.319229 -0.03986,0.077054 -0.04677,0.080186 -0.151486,0.068385 -0.177099,-0.019956 -0.207109,-0.06831 -0.216941,-0.349471 -0.0044,-0.1310164 -0.0084,-0.2510815 -0.0085,-0.2668029 -3.67e-4,-0.066027 -0.07774,-0.1048141 -0.209125,-0.1048141 -0.152978,0 -0.431431,0.063664 -0.515511,0.1178694 -0.03342,0.021524 -0.107062,0.1413676 -0.175876,0.2861965 -0.06512,0.1370194 -0.137468,0.2592747 -0.160793,0.2716754 -0.07259,0.038614 -0.240963,-0.057726 -0.273564,-0.1564994 -0.03693,-0.1119581 -0.01244,-0.2106884 0.09888,-0.3979707 0.112947,-0.1900728 0.15902,-0.297483 0.19341,-0.4509323 0.01801,-0.080435 0.05094,-0.1385175 0.107753,-0.1901864 0.04938,-0.044887 0.149447,-0.2068488 0.252309,-0.408284 0.337216,-0.6603769 0.577369,-0.8938822 0.776132,-0.7546617 0.09026,0.063216 0.220753,0.2893656 0.246609,0.4273746 0.01314,0.07018 0.04688,0.2230947 0.07504,0.339823 0.04445,0.1844917 0.05788,0.2122191 0.102848,0.2121974 0.03618,-1.62e-5 0.07165,-0.034558 0.118106,-0.115208 0.03651,-0.06335 0.09713,-0.1484413 0.134737,-0.1890995 0.224187,-0.242434 0.7333,-0.4583575 1.150886,-0.4881074 l 0.212045,-0.015088 0.08115,0.086043 c 0.166374,0.176412 0.220023,0.3882525 0.150966,0.5961504 -0.06394,0.1925335 -0.118093,0.2466253 -0.246857,0.2466253 -0.125084,0 -0.244371,-0.053108 -0.256106,-0.1140783 -0.0044,-0.023092 -0.0022,-0.096902 0.0048,-0.1640437 0.0073,-0.067141 0.0038,-0.1520864 -0.0082,-0.1887748 -0.01822,-0.056769 -0.03461,-0.06665 -0.110005,-0.066384 -0.300934,0.00108 -0.804081,0.4951164 -0.804081,0.7895547 0,0.072236 0.214003,0.2475068 0.45648,0.3738724 0.149789,0.078054 0.178544,0.084459 0.38139,0.084885 0.205572,4.597e-4 0.226815,-0.00432 0.337244,-0.076162 0.108697,-0.070673 0.183123,-0.08283 0.183123,-0.029907 0,0.03115 0.115248,0.02677 0.134959,-0.00487 0.0091,-0.014711 0.02147,-0.082944 0.02752,-0.1515889 0.0125,-0.1421193 0.156023,-0.5940629 0.226858,-0.7143659 0.02671,-0.045374 0.04721,-0.1247647 0.04721,-0.1828314 0,-0.1296212 0.08896,-0.309489 0.172718,-0.3492006 0.07349,-0.034829 0.690079,-0.1370736 1.149139,-0.1905326 0.173416,-0.020173 0.394553,-0.057932 0.491418,-0.083863 0.225815,-0.060451 0.277186,-0.059322 0.338579,0.00741 0.110247,0.119871 0.152114,0.2207042 0.152211,0.3665497 l 9.2e-5,0.1422005 -0.175845,-0.011031 c -0.340823,-0.021362 -1.43653,0.080786 -1.568898,0.1462457 -0.09917,0.049051 -0.165218,0.1340342 -0.185779,0.2390649 -0.01228,0.062712 -0.0054,0.081754 0.03824,0.1050793 0.07431,0.039749 0.524347,0.041912 0.638046,0.00324 0.07915,-0.027041 0.1001,-0.026013 0.151276,0.00752 0.0844,0.055298 0.15704,0.2115916 0.15704,0.3378599 0,0.1393719 -0.10693,0.2688146 -0.202285,0.2448784 -0.03488,-0.00877 -0.08371,-5.409e-4 -0.116798,0.019686 -0.04554,0.027852 -0.126425,0.031854 -0.407143,0.020226 -0.357967,-0.014818 -0.442646,-0.00108 -0.456973,0.073129 -0.0038,0.020822 0.01401,0.064221 0.04008,0.09641 0.04315,0.053324 0.0684,0.059273 0.283893,0.067055 0.130091,0.00487 0.298109,-0.00432 0.373363,-0.020497 0.116241,-0.024661 0.150799,-0.023201 0.229612,0.00974 0.09132,0.038182 0.09258,0.040453 0.08052,0.1474788 -0.0278,0.2465874 -0.165406,0.3107111 -0.673156,0.3136693 -0.382984,0.00217 -0.425801,-0.012277 -0.643108,-0.2177568 -0.07679,-0.072609 -0.147717,-0.132017 -0.157615,-0.132017 -0.02732,0 -0.06479,0.051755 -0.141686,0.1956486 -0.102777,0.1923497 -0.162849,0.228254 -0.387257,0.2314556 -0.131297,0.00162 -0.232732,-0.012709 -0.343885,-0.04943 z m -1.57593,-1.3130201 c 0.01303,-0.034233 0.02364,-0.148436 0.02364,-0.2538182 0,-0.1687541 -0.0059,-0.1947941 -0.05008,-0.218395 -0.06815,-0.036451 -0.09664,-0.00897 -0.215707,0.2079628 -0.09184,0.1673535 -0.119607,0.2725626 -0.08188,0.3102948 0.0088,0.00886 0.08011,0.016171 0.158251,0.016171 0.1302,0 0.144061,-0.00541 0.165736,-0.062214 z M 38.429037,8.103489 C 38.402367,8.097589 38.275259,8.060062 38.146595,8.020172 37.956533,7.961229 37.892399,7.928483 37.804619,7.8455662 37.630521,7.681117 37.605059,7.6139646 37.605142,7.3194939 c 7.3e-5,-0.2389998 0.0057,-0.2680522 0.09062,-0.4721103 0.09063,-0.2176596 0.112087,-0.3363564 0.06594,-0.3648732 -0.05031,-0.031097 -0.120927,-0.207222 -0.120927,-0.3016203 0,-0.1358567 0.08899,-0.2237544 0.291052,-0.2874888 0.08671,-0.027365 0.201309,-0.05579 0.254669,-0.063194 0.05336,-0.00741 0.206161,-0.04175 0.339559,-0.076357 0.133399,-0.034612 0.336294,-0.068974 0.450879,-0.076411 l 0.208335,-0.01352 0.0481,0.06984 c 0.07381,0.1072043 0.155231,0.316606 0.139267,0.3582051 -0.01454,0.03791 -0.04733,0.053108 -0.155327,0.072041 -0.233982,0.040993 -0.409866,0.076876 -0.635929,0.129724 -0.304145,0.071101 -0.38275,0.1247431 -0.38275,0.2611947 0,0.1245268 0.0728,0.1490633 0.327432,0.1103634 0.409181,-0.062188 0.439347,-0.061738 0.484484,0.00714 0.03774,0.057607 0.108806,0.2835734 0.10946,0.3480649 4.59e-4,0.045319 -0.144413,0.081122 -0.427828,0.1057877 -0.538686,0.046889 -0.64529,0.079931 -0.669695,0.2076059 -0.02717,0.142103 0.239407,0.2598157 0.455073,0.2009431 0.198987,-0.054314 0.23677,-0.044725 0.298332,0.075713 0.044,0.086091 0.05255,0.1315843 0.04049,0.2153827 -0.02554,0.1772936 -0.05547,0.2180003 -0.189575,0.2578256 -0.06691,0.019848 -0.127871,0.034882 -0.135454,0.033314 -0.0076,-0.00162 -0.03562,-0.00768 -0.0623,-0.013575 z M 39.835741,8.040896 C 39.598535,7.974393 39.59874,7.974522 39.532631,7.8476918 c -0.02943,-0.05646 -0.07902,-0.1329687 -0.110186,-0.1700195 -0.09515,-0.1130782 -0.100004,-0.2533638 -0.02244,-0.6492309 0.04742,-0.2420013 0.09779,-0.4170937 0.161507,-0.5613979 0.05093,-0.1153437 0.09952,-0.2626873 0.107971,-0.3274331 0.0085,-0.064746 0.02466,-0.1358891 0.03601,-0.1581055 0.02608,-0.051053 0.279356,-0.134137 0.469847,-0.1541741 0.08004,-0.00844 0.200098,-0.029799 0.266797,-0.047483 0.178984,-0.047483 0.446581,-0.089044 0.493032,-0.076546 0.02228,0.00601 0.0688,0.017143 0.103309,0.024769 0.117536,0.025959 0.270366,0.3423756 0.189505,0.3923518 -0.03039,0.018766 -0.195616,0.043319 -0.621266,0.092327 -0.335379,0.038614 -0.421176,0.075427 -0.519214,0.2228243 -0.150438,0.2261772 -0.105501,0.275764 0.197786,0.2182327 0.107039,-0.02028 0.248798,-0.060225 0.315014,-0.088709 0.114255,-0.049159 0.123581,-0.0497 0.18275,-0.010922 0.118832,0.077861 0.202567,0.3814545 0.123343,0.4472061 -0.072,0.05976 -0.328536,0.125511 -0.631059,0.1617561 -0.39304,0.047104 -0.488793,0.071283 -0.533252,0.1347589 -0.04773,0.068152 -0.03528,0.1197789 0.04302,0.1782831 0.05323,0.039804 0.111228,0.05116 0.295037,0.057916 0.199052,0.0073 0.240154,0.00162 0.316287,-0.04321 0.04813,-0.028393 0.105973,-0.045753 0.128534,-0.038614 0.05882,0.018658 0.147603,0.2157127 0.147603,0.3275954 0,0.1504261 -0.04094,0.2124677 -0.167259,0.2535421 -0.202365,0.065795 -0.451714,0.068597 -0.669557,0.00752 z M 35.899726,8.033546 C 35.784842,7.953074 35.764829,7.8685129 35.785471,7.5507387 35.810211,7.169971 35.809421,7.1546661 35.762511,7.1028188 35.6577,6.9870041 35.706921,6.7571495 35.851141,6.6889049 c 0.06637,-0.031421 0.08621,-0.064443 0.144997,-0.2414444 0.03745,-0.1127851 0.06811,-0.2197795 0.06811,-0.2377668 0,-0.017954 -0.02728,-0.072853 -0.06064,-0.1219363 -0.07382,-0.108638 -0.07891,-0.2381184 -0.01432,-0.364711 0.04905,-0.096166 0.09967,-0.1305947 0.257477,-0.1751735 0.08144,-0.022984 0.132868,-0.019199 0.310191,0.022876 0.116907,0.027744 0.252282,0.077471 0.300826,0.1104603 0.160482,0.1090485 0.320303,0.4398025 0.321566,0.6654929 9.2e-4,0.1672454 -0.08621,0.420739 -0.193937,0.5641075 -0.05308,0.070645 -0.09652,0.1457752 -0.09652,0.1669424 0,0.051864 0.126646,0.1781047 0.282452,0.2815238 0.07027,0.046617 0.161599,0.1233478 0.202968,0.1704631 0.09092,0.1035536 0.08283,0.1860439 -0.03229,0.3292987 C 37.199176,8.036791 37.106841,8.0168947 36.836927,7.7501939 36.624824,7.540614 36.304585,7.2952326 36.243173,7.2952326 c -0.04427,0 -0.11101,0.1533898 -0.11101,0.2551268 0,0.041427 0.0075,0.1437147 0.01669,0.2273347 0.0225,0.2049776 -0.01329,0.2936756 -0.11853,0.2936756 -0.0421,0 -0.100875,-0.017035 -0.130594,-0.037857 z m 0.806833,-1.5223891 c 0.10004,-0.095853 0.109569,-0.1150845 0.109569,-0.2210829 0,-0.1028671 -0.01017,-0.1254461 -0.08963,-0.1981904 -0.11497,-0.1053058 -0.238735,-0.1147007 -0.274425,-0.020822 -0.04789,0.12596 -0.0724,0.4621649 -0.03778,0.518182 0.0092,0.014818 0.05399,0.026933 0.09967,0.026933 0.06488,0 0.10699,-0.022984 0.192602,-0.1049873 z"
       id="path1351" />
    <text
       xml:space="preserve"
       style="font-style:normal;font-weight:normal;font-size:3.88056px;line-height:1.25;font-family:sans-serif;letter-spacing:0px;word-spacing:0px;fill:#008080;fill-opacity:1;stroke:none;stroke-width:0.264583"
       x="11.808019"
       y="42.210945"
       id="text32"><tspan
         sodipodi:role="line"
         id="tspan30"
         x="11.808019"
         y="42.210945"
         style="font-style:normal;font-variant:normal;font-weight:normal;font-stretch:normal;font-family:Arial;-inkscape-font-specification:Arial;fill:#008080;stroke-width:0.264583">Client</tspan></text>
    <path
       style="fill:#008080;stroke-width:0.0512006"
       d="m 65.381681,29.606519 c -1.490033,-0.296087 -2.694208,-1.243917 -3.312365,-2.607222 -0.479344,-1.057174 -0.506343,-2.404548 -0.07047,-3.51677 0.407388,-1.039516 1.306546,-1.979112 2.344176,-2.449596 0.342275,-0.155196 0.957709,-0.326857 1.368688,-0.381765 0.233394,-0.03118 0.23483,-0.03261 0.326284,-0.323902 0.218552,-0.696091 0.738888,-1.52518 1.333212,-2.124273 1.009841,-1.017955 2.343001,-1.574576 3.802215,-1.587498 l 0.576073,-0.0051 0.36335,-0.477113 c 0.94409,-1.239663 2.25895,-2.064701 3.86166,-2.423069 0.65506,-0.146475 1.75988,-0.160475 2.47773,-0.03139 2.417024,0.434612 4.434534,2.259401 5.115104,4.626482 l 0.13995,0.486759 0.47105,0.168188 c 1.38082,0.493016 2.47697,1.463619 3.10778,2.751827 1.47358,3.009255 -0.014,6.594972 -3.18343,7.673648 -0.90676,0.308598 -0.62223,0.30011 -9.895694,0.295176 -6.938681,-0.0037 -8.537406,-0.01717 -8.825316,-0.07438 z m 17.964647,-2.062666 c 1.1982,-0.400277 2.09184,-1.335542 2.41131,-2.523639 0.11916,-0.443164 0.11968,-1.293439 0.001,-1.734289 -0.26692,-0.991926 -0.93459,-1.810409 -1.85196,-2.270284 -0.41367,-0.20737 -0.78909,-0.311341 -1.43081,-0.396259 -0.25345,-0.03354 -0.48684,-0.08666 -0.51866,-0.118038 -0.0318,-0.03138 -0.094,-0.349805 -0.13828,-0.707609 -0.21234,-1.717221 -1.04525,-2.980123 -2.437744,-3.696233 -0.56775,-0.291971 -0.99821,-0.420906 -1.64158,-0.491702 -1.31835,-0.145067 -2.65491,0.323332 -3.60387,1.262981 -0.42513,0.420955 -0.6443,0.727468 -0.98241,1.373876 -0.16203,0.309764 -0.30126,0.571784 -0.30942,0.582266 -0.008,0.01048 -0.28657,-0.03205 -0.61871,-0.09451 -0.704885,-0.132562 -1.388363,-0.143172 -1.832696,-0.02845 -0.598698,0.154577 -1.132963,0.464056 -1.583883,0.917479 -0.690237,0.69407 -0.918146,1.196793 -1.105108,2.437663 -0.06151,0.408326 -0.115273,0.745532 -0.119452,0.749348 -0.0039,0.0038 -0.307113,-0.03792 -0.673201,-0.09276 -0.420813,-0.06303 -0.773541,-0.08823 -0.95908,-0.0685 -1.615212,0.171725 -2.663558,1.802848 -2.138866,3.327878 0.276084,0.802461 0.978792,1.440649 1.81014,1.64394 0.207537,0.05075 2.087172,0.06259 8.814306,0.05554 l 8.550514,-0.009 0.35841,-0.119729 z"
       id="path48" />
    <text
       xml:space="preserve"
       style="font-style:normal;font-weight:normal;font-size:3.88056px;line-height:1.25;font-family:sans-serif;letter-spacing:0px;word-spacing:0px;fill:#008080;fill-opacity:1;stroke:none;stroke-width:0.264583"
       x="52.098633"
       y="77.339371"
       id="text32-6-9"><tspan
         sodipodi:role="line"
         id="tspan30-9-6"
         x="52.098633"
         y="77.339371"
         style="font-style:normal;font-variant:normal;font-weight:normal;font-stretch:normal;font-family:Arial;-inkscape-font-specification:Arial;fill:#008080;stroke-width:0.264583" /></text>
    <text
       xml:space="preserve"
       style="font-style:normal;font-weight:normal;font-size:3.88056px;line-height:1.25;font-family:sans-serif;letter-spacing:0px;word-spacing:0px;fill:#000000;fill-opacity:1;stroke:none;stroke-width:0.264583"
       x="53.105656"
       y="76.351196"
       id="text100"><tspan
         sodipodi:role="line"
         id="tspan98"
         x="53.105656"
         y="76.351196"
         style="stroke-width:0.264583" /></text>
    <text
       xml:space="preserve"
       style="font-style:normal;font-weight:normal;font-size:3.88056px;line-height:1.25;font-family:sans-serif;letter-spacing:0px;word-spacing:0px;fill:#008080;fill-opacity:1;stroke:none;stroke-width:0.264583"
       x="72.320366"
       y="23.950235"
       id="text32-6-7"><tspan
         sodipodi:role="line"
         id="tspan30-9-0"
         x="72.320366"
         y="23.950235"
         style="font-style:normal;font-variant:normal;font-weight:normal;font-stretch:normal;font-family:Arial;-inkscape-font-specification:Arial;fill:#008080;stroke-width:0.264583">{...}</tspan></text>
    <text
       xml:space="preserve"
       style="font-style:normal;font-weight:normal;font-size:3.88056px;line-height:1.25;font-family:sans-serif;letter-spacing:0px;word-spacing:0px;fill:#008080;fill-opacity:1;stroke:none;stroke-width:0.264583"
       x="168.04123"
       y="82.48362"
       id="text32-6-97"><tspan
         sodipodi:role="line"
         id="tspan30-9-8"
         x="168.04123"
         y="82.48362"
         style="font-style:normal;font-variant:normal;font-weight:normal;font-stretch:normal;font-family:Arial;-inkscape-font-specification:Arial;fill:#008080;stroke-width:0.264583">Google Sheets</tspan></text>
    <text
       xml:space="preserve"
       style="font-style:normal;font-weight:normal;font-size:3.88056px;line-height:1.25;font-family:sans-serif;letter-spacing:0px;word-spacing:0px;fill:#008080;fill-opacity:1;stroke:none;stroke-width:0.264583"
       x="68.430397"
       y="99.031105"
       id="text32-6-97-0"><tspan
         sodipodi:role="line"
         id="tspan30-9-8-2"
         x="68.430397"
         y="99.031105"
         style="font-style:normal;font-variant:normal;font-weight:normal;font-stretch:normal;font-family:Arial;-inkscape-font-specification:Arial;fill:#008080;stroke-width:0.264583">Bigquery</tspan></text>
    <text
       xml:space="preserve"
       style="font-style:normal;font-weight:normal;font-size:3.88056px;line-height:1.25;font-family:sans-serif;letter-spacing:0px;word-spacing:0px;fill:#008080;fill-opacity:1;stroke:none;stroke-width:0.264583"
       x="181.93463"
       y="30.682037"
       id="text32-6-97-0-4-6"><tspan
         sodipodi:role="line"
         id="tspan30-9-8-2-7-0"
         x="181.93463"
         y="30.682037"
         style="font-style:normal;font-variant:normal;font-weight:normal;font-stretch:normal;font-family:Arial;-inkscape-font-specification:Arial;text-align:center;text-anchor:middle;fill:#008080;stroke-width:0.264583">Google Cloud </tspan><tspan
         sodipodi:role="line"
         x="181.93463"
         y="35.57766"
         style="font-style:normal;font-variant:normal;font-weight:normal;font-stretch:normal;font-family:Arial;-inkscape-font-specification:Arial;text-align:center;text-anchor:middle;fill:#008080;stroke-width:0.264583"
         id="tspan238">Platform</tspan></text>
    <text
       xml:space="preserve"
       style="font-style:normal;font-weight:normal;font-size:3.88056px;line-height:1.25;font-family:sans-serif;letter-spacing:0px;word-spacing:0px;fill:#008080;fill-opacity:1;stroke:none;stroke-width:0.264583"
       x="89.896812"
       y="163.54433"
       id="text32-6-97-0-4-7"><tspan
         sodipodi:role="line"
         id="tspan30-9-8-2-7-3"
         x="89.896812"
         y="163.54433"
         style="font-style:normal;font-variant:normal;font-weight:normal;font-stretch:normal;font-family:Arial;-inkscape-font-specification:Arial;fill:#008080;stroke-width:0.264583">Cloud Tasks</tspan></text>
    <text
       xml:space="preserve"
       style="font-style:normal;font-weight:normal;font-size:3.88056px;line-height:1.25;font-family:sans-serif;letter-spacing:0px;word-spacing:0px;fill:#008080;fill-opacity:1;stroke:none;stroke-width:0.264583"
       x="229.45987"
       y="120.82937"
       id="text32-6-97-0-4-7-7"><tspan
         sodipodi:role="line"
         id="tspan30-9-8-2-7-3-0"
         x="229.45987"
         y="120.82937"
         style="font-style:normal;font-variant:normal;font-weight:normal;font-stretch:normal;font-family:Arial;-inkscape-font-specification:Arial;fill:#008080;stroke-width:0.264583">MySQL</tspan></text>
    <path
       style="fill:#000000;stroke:#000000;stroke-width:0.323673;stroke-linecap:butt;stroke-linejoin:miter;stroke-miterlimit:4;stroke-dasharray:none;stroke-opacity:1;marker-start:url(#Arrow2Lstart-78-2)"
       d="M 91.878608,19.140311 H 157.92879"
       id="path10-9-3" />
    <text
       xml:space="preserve"
       style="font-style:normal;font-weight:normal;font-size:3.88056px;line-height:1.25;font-family:sans-serif;letter-spacing:0px;word-spacing:0px;fill:#000000;fill-opacity:1;stroke:none;stroke-width:0.264583"
       x="97.404488"
       y="27.592255"
       id="text1237"><tspan
         sodipodi:role="line"
         id="tspan1235"
         x="97.404488"
         y="27.592255"
         style="font-size:2.82222px;stroke-width:0.264583">requests - method: GETt</tspan></text>
    <text
       xml:space="preserve"
       style="font-style:normal;font-weight:normal;font-size:3.88056px;line-height:1.25;font-family:sans-serif;letter-spacing:0px;word-spacing:0px;fill:#000000;fill-opacity:1;stroke:none;stroke-width:0.264583"
       x="97.145508"
       y="31.882385"
       id="text1237-2"><tspan
         sodipodi:role="line"
         id="tspan1235-5"
         x="97.145508"
         y="31.882385"
         style="font-size:2.82222px;stroke-width:0.264583">https://url_cloud_run_gcp/get_articles</tspan></text>
    <path
       style="fill:#000000;stroke:#000000;stroke-width:0.323673;stroke-linecap:butt;stroke-linejoin:miter;stroke-miterlimit:4;stroke-dasharray:none;stroke-opacity:1;marker-start:url(#Arrow2Lstart-78-2-5)"
       d="M 160.19998,46.683317 H 94.149798"
       id="path10-9-3-7" />
    <text
       xml:space="preserve"
       style="font-style:normal;font-weight:normal;font-size:3.88056px;line-height:1.25;font-family:sans-serif;letter-spacing:0px;word-spacing:0px;fill:#000000;fill-opacity:1;stroke:none;stroke-width:0.264583"
       x="98.25943"
       y="54.308273"
       id="text1237-4"><tspan
         sodipodi:role="line"
         id="tspan1235-2"
         x="98.25943"
         y="54.308273"
         style="font-size:2.82222px;stroke-width:0.264583">response - 200</tspan></text>
    <text
       xml:space="preserve"
       style="font-style:normal;font-weight:normal;font-size:3.88056px;line-height:1.25;font-family:sans-serif;letter-spacing:0px;word-spacing:0px;fill:#000000;fill-opacity:1;stroke:none;stroke-width:0.264583"
       x="98.00045"
       y="58.409416"
       id="text1237-2-8"><tspan
         sodipodi:role="line"
         id="tspan1235-5-8"
         x="98.00045"
         y="58.409416"
         style="font-size:2.82222px;stroke-width:0.264583">json()</tspan></text>
    <path
       style="fill:#000000;stroke:#000000;stroke-width:0.177832;stroke-linecap:butt;stroke-linejoin:miter;stroke-miterlimit:4;stroke-dasharray:none;stroke-opacity:1;marker-start:url(#Arrow2Lstart-71)"
       d="M 55.730965,25.320746 H 35.793076"
       id="path10-9" />
    <path
       style="fill:#000000;stroke:#000000;stroke-width:0.323673;stroke-linecap:butt;stroke-linejoin:miter;stroke-miterlimit:4;stroke-dasharray:none;stroke-opacity:1;marker-start:url(#Arrow2Lstart-78-2-7)"
       d="M 93.482609,77.177443 H 159.53276"
       id="path10-9-3-0" />
    <rect
       style="fill:none;fill-opacity:1;stroke:url(#linearGradient1785);stroke-width:0.360263;stroke-opacity:1"
       id="rect1221-7"
       width="66.339294"
       height="11.290034"
       x="97.502289"
       y="81.552986" />
    <text
       xml:space="preserve"
       style="font-style:normal;font-weight:normal;font-size:3.88056px;line-height:1.25;font-family:sans-serif;letter-spacing:0px;word-spacing:0px;fill:#000000;fill-opacity:1;stroke:none;stroke-width:0.264583"
       x="99.008522"
       y="85.629395"
       id="text1237-5"><tspan
         sodipodi:role="line"
         id="tspan1235-56"
         x="99.008522"
         y="85.629395"
         style="font-size:2.82222px;stroke-width:0.264583">requests - method: GETt</tspan></text>
    <text
       xml:space="preserve"
       style="font-style:normal;font-weight:normal;font-size:3.88056px;line-height:1.25;font-family:sans-serif;letter-spacing:0px;word-spacing:0px;fill:#000000;fill-opacity:1;stroke:none;stroke-width:0.264583"
       x="98.749512"
       y="89.919525"
       id="text1237-2-6"><tspan
         id="tspan1235-5-9"
         x="98.749512"
         y="89.919525"
         style="font-size:2.82222px;stroke-width:0.264583"
         sodipodi:role="line">https://url_cloud_run_gcp/update_bigquery</tspan></text>
    <rect
       style="fill:none;fill-opacity:1;stroke:url(#linearGradient2238);stroke-width:0.360263;stroke-opacity:1"
       id="rect1221-7-6"
       width="66.339294"
       height="11.290034"
       x="96.728714"
       y="50.786461" />
    <rect
       style="fill:none;fill-opacity:1;stroke:url(#linearGradient2266);stroke-width:0.360263;stroke-opacity:1"
       id="rect1221-7-6-5"
       width="66.339294"
       height="11.290034"
       x="96.188805"
       y="23.760002" />
    <text
       xml:space="preserve"
       style="font-style:normal;font-weight:normal;font-size:3.52778px;line-height:1.25;font-family:sans-serif;letter-spacing:0px;word-spacing:0px;fill:#000000;fill-opacity:1;stroke:none;stroke-width:0.264583"
       x="5.746295"
       y="8.15172"
       id="text2271"><tspan
         sodipodi:role="line"
         id="tspan2269"
         x="5.746295"
         y="8.15172"
         style="font-size:3.52778px;stroke-width:0.264583">ETL CLIPPING</tspan></text>
  </g>
</svg>
