<?xml version="1.0" encoding="UTF-8" standalone="no"?>
<svg
   xmlns:osb="http://www.openswatchbook.org/uri/2009/osb"
   xmlns:dc="http://purl.org/dc/elements/1.1/"
   xmlns:cc="http://creativecommons.org/ns#"
   xmlns:rdf="http://www.w3.org/1999/02/22-rdf-syntax-ns#"
   xmlns:svg="http://www.w3.org/2000/svg"
   xmlns="http://www.w3.org/2000/svg"
   xmlns:xlink="http://www.w3.org/1999/xlink"
   xmlns:sodipodi="http://sodipodi.sourceforge.net/DTD/sodipodi-0.dtd"
   xmlns:inkscape="http://www.inkscape.org/namespaces/inkscape"
   width="210mm"
   height="297mm"
   viewBox="0 0 210 297"
   version="1.1"
   id="svg8"
   inkscape:version="1.0.2 (e86c870879, 2021-01-15)"
   sodipodi:docname="esquema_servicos.svg"
   inkscape:export-filename="C:\Users\Renato\Desktop\sentiment.png"
   inkscape:export-xdpi="96"
   inkscape:export-ydpi="96">
  <defs
     id="defs2">
    <linearGradient
       id="linearGradient1231"
       osb:paint="solid">
      <stop
         style="stop-color:#000000;stop-opacity:1;"
         offset="0"
         id="stop1229" />
    </linearGradient>
    <linearGradient
       id="linearGradient1225"
       osb:paint="solid">
      <stop
         style="stop-color:#008080;stop-opacity:1;"
         offset="0"
         id="stop1223" />
    </linearGradient>
    <linearGradient
       id="linearGradient1217"
       osb:paint="solid">
      <stop
         style="stop-color:#000000;stop-opacity:1;"
         offset="0"
         id="stop1215" />
    </linearGradient>
    <marker
       style="overflow:visible"
       id="Arrow2Lstart"
       refX="0.0"
       refY="0.0"
       orient="auto"
       inkscape:stockid="Arrow2Lstart"
       inkscape:isstock="true">
      <path
         transform="scale(1.1) translate(1,0)"
         d="M 8.7185878,4.0337352 L -2.2072895,0.016013256 L 8.7185884,-4.0017078 C 6.9730900,-1.6296469 6.9831476,1.6157441 8.7185878,4.0337352 z "
         style="fill-rule:evenodd;stroke-width:0.625;stroke-linejoin:round;stroke:#000000;stroke-opacity:1;fill:#000000;fill-opacity:1"
         id="path853" />
    </marker>
    <marker
       style="overflow:visible"
       id="Arrow2Lstart-7"
       refX="0"
       refY="0"
       orient="auto"
       inkscape:stockid="Arrow2Lstart"
       inkscape:isstock="true">
      <path
         transform="matrix(1.1,0,0,1.1,1.1,0)"
         d="M 8.7185878,4.0337352 -2.2072895,0.01601326 8.7185884,-4.0017078 c -1.7454984,2.3720609 -1.7354408,5.6174519 -6e-7,8.035443 z"
         style="fill:#000000;fill-opacity:1;fill-rule:evenodd;stroke:#000000;stroke-width:0.625;stroke-linejoin:round;stroke-opacity:1"
         id="path853-2" />
    </marker>
    <marker
       style="overflow:visible"
       id="Arrow2Lstart-78"
       refX="0"
       refY="0"
       orient="auto"
       inkscape:stockid="Arrow2Lstart"
       inkscape:isstock="true">
      <path
         transform="matrix(1.1,0,0,1.1,1.1,0)"
         d="M 8.7185878,4.0337352 -2.2072895,0.01601326 8.7185884,-4.0017078 c -1.7454984,2.3720609 -1.7354408,5.6174519 -6e-7,8.035443 z"
         style="fill:#000000;fill-opacity:1;fill-rule:evenodd;stroke:#000000;stroke-width:0.625;stroke-linejoin:round;stroke-opacity:1"
         id="path853-8" />
    </marker>
    <marker
       style="overflow:visible"
       id="Arrow2Lstart-78-2"
       refX="0"
       refY="0"
       orient="auto"
       inkscape:stockid="Arrow2Lstart"
       inkscape:isstock="true">
      <path
         transform="matrix(1.1,0,0,1.1,1.1,0)"
         d="M 8.7185878,4.0337352 -2.2072895,0.01601326 8.7185884,-4.0017078 c -1.7454984,2.3720609 -1.7354408,5.6174519 -6e-7,8.035443 z"
         style="fill:#000000;fill-opacity:1;fill-rule:evenodd;stroke:#000000;stroke-width:0.625;stroke-linejoin:round;stroke-opacity:1"
         id="path853-8-0" />
    </marker>
    <linearGradient
       inkscape:collect="always"
       xlink:href="#linearGradient1217"
       id="linearGradient1219"
       x1="111.69196"
       y1="35.340775"
       x2="176.89285"
       y2="35.340775"
       gradientUnits="userSpaceOnUse" />
    <marker
       style="overflow:visible"
       id="Arrow2Lstart-78-2-5"
       refX="0"
       refY="0"
       orient="auto"
       inkscape:stockid="Arrow2Lstart"
       inkscape:isstock="true">
      <path
         transform="matrix(1.1,0,0,1.1,1.1,0)"
         d="M 8.7185878,4.0337352 -2.2072895,0.01601326 8.7185884,-4.0017078 c -1.7454984,2.3720609 -1.7354408,5.6174519 -6e-7,8.035443 z"
         style="fill:#000000;fill-opacity:1;fill-rule:evenodd;stroke:#000000;stroke-width:0.625;stroke-linejoin:round;stroke-opacity:1"
         id="path853-8-0-9" />
    </marker>
    <marker
       style="overflow:visible"
       id="Arrow2Lstart-71"
       refX="0"
       refY="0"
       orient="auto"
       inkscape:stockid="Arrow2Lstart"
       inkscape:isstock="true">
      <path
         transform="matrix(1.1,0,0,1.1,1.1,0)"
         d="M 8.7185878,4.0337352 -2.2072895,0.01601326 8.7185884,-4.0017078 c -1.7454984,2.3720609 -1.7354408,5.6174519 -6e-7,8.035443 z"
         style="fill:#000000;fill-opacity:1;fill-rule:evenodd;stroke:#000000;stroke-width:0.625;stroke-linejoin:round;stroke-opacity:1"
         id="path853-7" />
    </marker>
    <marker
       style="overflow:visible"
       id="Arrow2Lstart-78-2-7"
       refX="0"
       refY="0"
       orient="auto"
       inkscape:stockid="Arrow2Lstart"
       inkscape:isstock="true">
      <path
         transform="matrix(1.1,0,0,1.1,1.1,0)"
         d="M 8.7185878,4.0337352 -2.2072895,0.01601326 8.7185884,-4.0017078 c -1.7454984,2.3720609 -1.7354408,5.6174519 -6e-7,8.035443 z"
         style="fill:#000000;fill-opacity:1;fill-rule:evenodd;stroke:#000000;stroke-width:0.625;stroke-linejoin:round;stroke-opacity:1"
         id="path853-8-0-8" />
    </marker>
    <linearGradient
       inkscape:collect="always"
       xlink:href="#linearGradient1225"
       id="linearGradient1785"
       gradientUnits="userSpaceOnUse"
       gradientTransform="matrix(0.93734827,0,0,0.85010094,-7.8575209,56.051229)"
       x1="112.19791"
       y1="40.254463"
       x2="183.37946"
       y2="40.254463" />
    <linearGradient
       inkscape:collect="always"
       xlink:href="#linearGradient1225"
       id="linearGradient2238"
       gradientUnits="userSpaceOnUse"
       gradientTransform="matrix(0.93856592,0,0,0.55314251,-8.8110484,34.165009)"
       x1="112.19791"
       y1="40.254463"
       x2="183.37946"
       y2="40.254463" />
    <linearGradient
       inkscape:collect="always"
       xlink:href="#linearGradient1225"
       id="linearGradient2266"
       gradientUnits="userSpaceOnUse"
       gradientTransform="matrix(0.93856592,0,0,0.55314251,-9.3509578,7.1385511)"
       x1="112.19791"
       y1="40.254463"
       x2="183.37946"
       y2="40.254463" />
    <marker
       style="overflow:visible"
       id="Arrow2Lstart-78-2-5-5"
       refX="0"
       refY="0"
       orient="auto"
       inkscape:stockid="Arrow2Lstart"
       inkscape:isstock="true">
      <path
         transform="matrix(1.1,0,0,1.1,1.1,0)"
         d="M 8.7185878,4.0337352 -2.2072895,0.01601326 8.7185884,-4.0017078 c -1.7454984,2.3720609 -1.7354408,5.6174519 -6e-7,8.035443 z"
         style="fill:#000000;fill-opacity:1;fill-rule:evenodd;stroke:#000000;stroke-width:0.625;stroke-linejoin:round;stroke-opacity:1"
         id="path853-8-0-9-8" />
    </marker>
    <linearGradient
       inkscape:collect="always"
       xlink:href="#linearGradient1225"
       id="linearGradient141"
       gradientUnits="userSpaceOnUse"
       gradientTransform="matrix(0.93856592,0,0,0.55314251,-7.617026,97.532802)"
       x1="112.19791"
       y1="40.254463"
       x2="183.37946"
       y2="40.254463" />
    <marker
       style="overflow:visible"
       id="Arrow2Lstart-78-2-7-9"
       refX="0"
       refY="0"
       orient="auto"
       inkscape:stockid="Arrow2Lstart"
       inkscape:isstock="true">
      <path
         transform="matrix(1.1,0,0,1.1,1.1,0)"
         d="M 8.7185878,4.0337352 -2.2072895,0.01601326 8.7185884,-4.0017078 c -1.7454984,2.3720609 -1.7354408,5.6174519 -6e-7,8.035443 z"
         style="fill:#000000;fill-opacity:1;fill-rule:evenodd;stroke:#000000;stroke-width:0.625;stroke-linejoin:round;stroke-opacity:1"
         id="path853-8-0-8-4" />
    </marker>
    <linearGradient
       inkscape:collect="always"
       xlink:href="#linearGradient1225"
       id="linearGradient230"
       gradientUnits="userSpaceOnUse"
       gradientTransform="matrix(0.93856592,0,0,0.55314251,-7.7473409,127.40446)"
       x1="112.19791"
       y1="40.254463"
       x2="183.37946"
       y2="40.254463" />
  </defs>
  <sodipodi:namedview
     id="base"
     pagecolor="#ffffff"
     bordercolor="#666666"
     borderopacity="1.0"
     inkscape:pageopacity="0.0"
     inkscape:pageshadow="2"
     inkscape:zoom="0.98994949"
     inkscape:cx="156.07114"
     inkscape:cy="169.79594"
     inkscape:document-units="mm"
     inkscape:current-layer="layer1"
     inkscape:document-rotation="0"
     showgrid="false"
     inkscape:window-width="1366"
     inkscape:window-height="705"
     inkscape:window-x="-8"
     inkscape:window-y="-8"
     inkscape:window-maximized="1" />
  <metadata
     id="metadata5">
    <rdf:RDF>
      <cc:Work
         rdf:about="">
        <dc:format>image/svg+xml</dc:format>
        <dc:type
           rdf:resource="http://purl.org/dc/dcmitype/StillImage" />
        <dc:title />
      </cc:Work>
    </rdf:RDF>
  </metadata>
  <g
     inkscape:label="Layer 1"
     inkscape:groupmode="layer"
     id="layer1">
    <path
       style="fill:#000000;stroke:#000000;stroke-width:0.323673;stroke-linecap:butt;stroke-linejoin:miter;stroke-miterlimit:4;stroke-dasharray:none;stroke-opacity:1;marker-start:url(#Arrow2Lstart-78-2-5-5)"
       d="M 161.39401,110.05111 H 95.343816"
       id="path10-9-3-7-4" />
    <text
       xml:space="preserve"
       style="font-style:normal;font-weight:normal;font-size:3.88056px;line-height:1.25;font-family:sans-serif;letter-spacing:0px;word-spacing:0px;fill:#000000;fill-opacity:1;stroke:none;stroke-width:0.264583"
       x="99.453453"
       y="117.67607"
       id="text1237-4-7"><tspan
         sodipodi:role="line"
         id="tspan1235-2-2"
         x="99.453453"
         y="117.67607"
         style="font-size:2.82222px;stroke-width:0.264583">response - 200</tspan></text>
    <text
       xml:space="preserve"
       style="font-style:normal;font-weight:normal;font-size:3.88056px;line-height:1.25;font-family:sans-serif;letter-spacing:0px;word-spacing:0px;fill:#000000;fill-opacity:1;stroke:none;stroke-width:0.264583"
       x="99.194481"
       y="121.77721"
       id="text1237-2-8-8"><tspan
         sodipodi:role="line"
         id="tspan1235-5-8-5"
         x="99.194481"
         y="121.77721"
         style="font-size:2.82222px;stroke-width:0.264583">https://url_cloud_run_gcp/predict)</tspan></text>
    <rect
       style="fill:none;fill-opacity:1;stroke:url(#linearGradient141);stroke-width:0.360263;stroke-opacity:1"
       id="rect1221-7-6-6"
       width="66.339294"
       height="11.290034"
       x="97.922737"
       y="114.15426" />
    <text
       xml:space="preserve"
       style="font-style:normal;font-weight:normal;font-size:3.88056px;line-height:1.25;font-family:sans-serif;letter-spacing:0px;word-spacing:0px;fill:#008080;fill-opacity:1;stroke:none;stroke-width:0.264583"
       x="67.150436"
       y="38.052586"
       id="text32-6"><tspan
         sodipodi:role="line"
         id="tspan30-9"
         x="67.150436"
         y="38.052586"
         style="font-style:normal;font-variant:normal;font-weight:normal;font-stretch:normal;font-family:Arial;-inkscape-font-specification:Arial;fill:#008080;stroke-width:0.264583">Rest API</tspan></text>
    <path
       style="fill:#000000;stroke:#000000;stroke-width:0.177832;stroke-linecap:butt;stroke-linejoin:miter;stroke-miterlimit:4;stroke-dasharray:none;stroke-opacity:1;marker-start:url(#Arrow2Lstart)"
       d="M 35.820771,21.235748 H 55.75866"
       id="path10" />
    <path
       style="fill:#008080;stroke-width:0.148823"
       d="m 12.038166,36.097422 c -0.14732,-0.107727 -0.243133,-0.325379 -0.212911,-0.483678 0.04877,-0.255463 0.222028,-0.29617 1.541622,-0.362222 l 1.486673,-0.07441 0.045,-0.78132 0.045,-0.781321 h 2.894244 2.894278 v 0.813489 0.813495 l 1.598084,0.04224 c 1.44361,0.03814 1.603422,0.07006 1.653241,0.330048 0.124112,0.647641 -0.161269,0.679545 -6.078965,0.679545 -4.393771,0 -5.656036,-0.04213 -5.866263,-0.195867 z M 6.6533867,32.661997 c -0.497003,-0.496998 -0.506003,-0.528756 -0.506003,-1.78588 V 29.59624 H 17.830018 29.512646 v 1.056476 c 0,1.239041 -0.292547,1.981573 -0.905618,2.298604 C 28.251809,33.13501 26.587296,33.168 17.673699,33.168 H 7.1593837 Z M 18.17231,31.798823 c 0.248516,-0.248515 0.222839,-0.641178 -0.05713,-0.873528 -0.463946,-0.385041 -1.045333,0.361248 -0.651292,0.836033 0.218085,0.262781 0.469807,0.2761 0.708417,0.03752 z M 6.1473837,23.068086 c 0,-6.013341 0.0034,-6.086295 0.322634,-6.49185 0.657783,-0.83623 0.449428,-0.82128 11.3180113,-0.812162 7.351394,0.0062 10.150242,0.05563 10.528876,0.18603 0.294673,0.101494 0.661462,0.394378 0.855732,0.683314 l 0.340009,0.505682 v 6.005337 6.005334 H 17.830018 6.1473837 Z m 22.8865903,-0.157057 -0.04219,-5.792268 -0.360798,-0.3839 -0.360793,-0.383893 H 17.796989 7.3237807 l -0.36495,0.393787 -0.364955,0.393794 v 5.782374 5.782378 H 17.835041 29.076205 Z"
       id="path1161" />
    <path
       style="fill:#008080;stroke-width:0.116881"
       d="m 175.36445,24.734109 c -2.68172,-0.380875 -5.05896,-2.469405 -5.71735,-5.02298 -0.24224,-0.939499 -0.24152,-2.729432 0.001,-3.556015 0.33915,-1.153981 0.98357,-2.21932 1.88187,-3.111076 0.70031,-0.695218 0.88827,-0.965243 1.09118,-1.567589 0.88557,-2.6287735 2.8793,-4.7409805 5.39515,-5.7157635 4.58237,-1.7754725 9.67286,0.211626 11.77499,4.5964145 0.25192,0.52549 0.5136,1.168181 0.58152,1.428201 0.0919,0.352018 0.29205,0.618313 0.78347,1.042584 0.82901,0.715712 1.58545,1.875302 1.96934,3.018883 0.54667,1.628484 0.36893,3.744484 -0.44375,5.283049 -0.5366,1.015876 -1.78339,2.281907 -2.73909,2.781348 -1.63885,0.856438 -1.39221,0.830633 -8.15027,0.852805 -3.34281,0.01095 -6.23563,-0.0028 -6.42848,-0.02981 z m 12.28707,-4.562677 c 1.75006,-0.936158 1.96181,-3.257169 0.40568,-4.446711 -0.27337,-0.208977 -0.70329,-0.412934 -0.95536,-0.453244 l -0.45832,-0.07329 v -0.675942 c 0,-1.33915 -0.68482,-2.822249 -1.72659,-3.739263 -1.96185,-1.7268815 -5.01022,-1.7394585 -6.92053,-0.02857 l -0.52385,0.46917 0.40697,0.08407 c 1.1083,0.228945 3.62121,1.841967 3.62121,2.324436 0,0.07622 -0.61965,0.756619 -1.37701,1.512004 l -1.37701,1.37342 -0.45743,-0.468449 c -1.20991,-1.239074 -3.17389,-1.06303 -4.12187,0.369469 -0.28221,0.426448 -0.32242,0.599996 -0.32242,1.39151 0,0.816682 0.034,0.952339 0.35064,1.4001 0.19286,0.272687 0.49095,0.599829 0.66243,0.726979 0.68809,0.510202 1.13263,0.543628 6.87643,0.517177 5.35686,-0.02461 5.44192,-0.02877 5.91703,-0.282893 z"
       id="path1223" />
    <path
       style="fill:#000000;stroke-width:0.264583"
       id="path1239"
       d="" />
    <path
       style="fill:#008080;stroke-width:0.0323189"
       d="m 190.97006,76.510923 c -0.96767,-0.130814 -1.96697,-0.48515 -2.75431,-0.976618 -1.70982,-1.067295 -2.86025,-2.821684 -3.12091,-4.759337 -0.0646,-0.48054 -0.0648,-1.284067 -3.7e-4,-1.76705 0.471,-3.529961 3.78716,-6.095369 7.43319,-5.75039 2.95979,0.280049 5.39235,2.374218 6.03778,5.197849 0.5157,2.25614 -0.23101,4.643866 -1.9572,6.258413 -1.07628,1.006691 -2.49503,1.658771 -3.94265,1.812091 -0.42441,0.045 -1.31024,0.03719 -1.69554,-0.01497 z m 5.36924,-2.567502 c 0,-0.01754 -0.0221,-0.03195 -0.0491,-0.03195 -0.0537,0 -1.29693,-0.962137 -1.47804,-1.14386 -0.0797,-0.08007 -0.1,-0.118546 -0.07,-0.133357 0.0231,-0.01148 0.31464,-0.0753 0.64776,-0.141871 0.33313,-0.06657 0.61751,-0.13131 0.63196,-0.143863 0.0443,-0.03847 -0.59277,-0.598921 -0.9246,-0.813435 -0.27403,-0.177158 -0.60187,-0.350589 -1.02567,-0.542596 -0.26844,-0.121613 -0.49196,-0.46336 -0.90494,-1.383643 -0.44372,-0.988757 -1.05506,-1.782698 -1.78731,-2.321162 -0.82544,-0.606993 -1.22266,-0.788513 -1.9061,-0.871028 -0.16833,-0.02029 -0.33088,-0.06299 -0.43399,-0.1139 -0.18173,-0.08971 -0.57385,-0.333482 -0.66374,-0.412571 -0.0454,-0.03994 -0.13763,-0.05041 -0.44519,-0.05041 h -0.38789 l -0.0623,0.134781 c -0.0401,0.08678 -0.0616,0.203255 -0.0604,0.327018 0.002,0.232162 0.0837,0.400542 0.36487,0.754556 0.13949,0.175598 0.26524,0.397503 0.452,0.797595 0.1423,0.304879 0.33842,0.703199 0.43583,0.88516 0.20155,0.376558 0.19972,0.351269 0.0745,1.025075 -0.0815,0.438851 -0.0899,0.959722 -0.0196,1.222572 0.16113,0.602778 0.66072,0.982485 0.91115,0.692482 0.0903,-0.104534 0.14568,-0.245394 0.20086,-0.510466 l 0.0364,-0.174661 0.40462,0.493699 c 0.50236,0.612944 0.48485,0.594524 0.52638,0.554047 0.0228,-0.02222 -0.12115,-0.298322 -0.45219,-0.867089 -0.47724,-0.819927 -0.48692,-0.833609 -0.55659,-0.786053 -0.13297,0.09072 -0.22852,0.307671 -0.31331,0.711289 -0.0456,0.217066 -0.0911,0.402654 -0.10117,0.412425 -0.0335,0.0326 -0.21909,-0.167086 -0.30141,-0.324337 -0.11433,-0.218397 -0.17325,-0.524635 -0.17392,-0.903892 -4.7e-4,-0.354565 0.0284,-0.530365 0.15093,-0.916546 0.0522,-0.164496 0.0731,-0.287221 0.0597,-0.350938 -0.0187,-0.0887 -0.97888,-1.842146 -1.19808,-2.187694 -0.0501,-0.07897 -0.12746,-0.200996 -0.17191,-0.271188 -0.12241,-0.193219 -0.13641,-0.285209 -0.0554,-0.364124 0.13067,-0.127334 0.28019,-0.09306 0.86377,0.198021 0.54138,0.270031 0.75836,0.341572 1.03594,0.341572 0.26635,0 0.95409,0.313841 1.45429,0.663641 0.77087,0.539088 1.1871,1.108699 2.02118,2.766046 0.21194,0.42113 0.41213,0.794767 0.44486,0.830304 0.13294,0.144358 0.30297,0.238075 0.55103,0.30374 0.14381,0.03811 0.38671,0.132651 0.53976,0.210188 0.34307,0.173798 0.98218,0.604863 0.98218,0.662474 0,0.03012 -0.11725,0.05767 -0.40509,0.0953 -0.60622,0.07915 -0.93722,0.177048 -0.93722,0.277156 0,0.142339 0.3191,0.45303 0.73961,0.72015 0.2175,0.138142 1.29439,0.707523 1.34752,0.712454 0.005,3.59e-4 0.008,-0.01359 0.008,-0.03113 z m -6.75751,-6.357465 c -0.0107,-0.05234 -0.0195,-0.115067 -0.0195,-0.139446 0,-0.05216 -0.18743,-0.170722 -0.27011,-0.170897 -0.085,-2.47e-4 -0.0712,0.04711 0.0741,0.255707 0.0942,0.135249 0.14602,0.183044 0.18322,0.169133 0.038,-0.01423 0.0466,-0.04481 0.0323,-0.114497 z m -6.32607,8.206406 c -2.59533,-0.118602 -5.086,-0.518685 -6.98561,-1.122115 -2.02131,-0.64208 -3.25407,-1.448261 -3.64117,-2.381179 l -0.0747,-0.180125 -0.006,-2.249226 c -0.006,-2.192266 -0.004,-2.244735 0.0521,-2.071718 0.1125,0.345006 0.26538,0.573936 0.60785,0.910219 0.37103,0.364317 0.73014,0.607333 1.36181,0.921523 1.98772,0.988656 5.27466,1.657062 8.83591,1.796784 l 0.57181,0.02241 0.11977,0.462607 c 0.21467,0.829165 0.5434,1.564034 1.009,2.255589 0.34117,0.506739 0.59901,0.816989 1.04008,1.251516 0.20352,0.20051 0.36159,0.372793 0.35128,0.382848 -0.0304,0.02966 -2.5967,0.03039 -3.24236,9.18e-4 z m -0.20857,-5.156179 c -0.081,-0.0055 -0.39042,-0.02525 -0.68753,-0.04398 -3.55004,-0.223393 -6.84242,-1.046525 -8.51819,-2.129642 -0.61003,-0.394289 -1.04361,-0.858356 -1.21342,-1.298741 l -0.0738,-0.191428 -0.006,-2.249226 c -0.006,-2.192267 -0.004,-2.244736 0.0521,-2.071718 0.11099,0.340369 0.26606,0.574478 0.59156,0.89302 0.63993,0.626249 1.57735,1.120067 3.00176,1.58126 2.11033,0.683301 4.56775,1.057516 7.639,1.163272 0.58521,0.0202 1.06626,0.03857 1.06899,0.04095 0.003,0.0018 -0.0946,0.200161 -0.2163,0.439494 -0.54371,1.069252 -0.79594,2.105116 -0.80102,3.289599 l -0.002,0.598168 -0.34376,-0.0055 c -0.18907,-0.0037 -0.41006,-0.01001 -0.49109,-0.01552 z m 0,-5.119126 c -3.34049,-0.161751 -6.43596,-0.797642 -8.36489,-1.718356 -1.22031,-0.582485 -1.90953,-1.209083 -2.09559,-1.905193 -0.0411,-0.15366 -0.0486,-0.5304 -0.0472,-2.36941 l 9.4e-4,-2.186693 0.0903,0.255232 c 0.0497,0.140374 0.12784,0.312658 0.17373,0.382847 0.97274,1.487272 4.44343,2.674211 8.94892,3.060432 2.04147,0.174999 4.30487,0.175195 6.38416,4.56e-4 3.89542,-0.32717 7.14392,-1.29551 8.50673,-2.535757 0.2814,-0.25609 0.54175,-0.612616 0.6323,-0.865899 0.0604,-0.169006 0.0608,-0.159999 0.0693,1.919908 0.006,1.419232 -0.003,2.143903 -0.0271,2.25861 -0.0921,0.434582 -0.46814,0.937372 -0.99551,1.331 l -0.24473,0.182677 -0.43463,-0.192099 c -2.07773,-0.918327 -4.34194,-1.020106 -6.42234,-0.288717 -0.45905,0.161392 -1.25649,0.539832 -1.64053,0.778542 -0.69032,0.4291 -1.4899,1.120462 -1.96219,1.696629 l -0.18961,0.231309 -0.9212,-0.0046 c -0.50666,-0.0028 -1.16428,-0.01653 -1.4614,-0.03095 z m 14.05986,-1.538204 c -0.10716,-0.07594 -0.25826,-0.177177 -0.33579,-0.224871 l -0.14095,-0.08668 0.17113,-0.181916 c 0.21944,-0.233245 0.40355,-0.510539 0.47165,-0.710342 0.0295,-0.08659 0.0598,-0.157499 0.0675,-0.157499 0.008,0 0.0138,0.337385 0.0138,0.749745 0,0.412351 -0.0118,0.749736 -0.0262,0.749736 -0.0144,0 -0.11385,-0.06217 -0.22101,-0.138142 z m -13.47056,-3.454155 c -0.11704,-0.0062 -0.50008,-0.02638 -0.85121,-0.04497 -4.5557,-0.241139 -8.53916,-1.407901 -9.77347,-2.862661 -0.49601,-0.584594 -0.59455,-1.163548 -0.29706,-1.745434 0.87019,-1.702164 5.05771,-3.036691 10.36517,-3.303298 0.81742,-0.04106 2.90622,-0.04118 3.73229,-2.05e-4 4.99806,0.24788 9.08956,1.478681 10.21011,3.071401 1.07533,1.528429 -0.63963,3.087926 -4.46437,4.059661 -1.4369,0.365068 -3.27893,0.638875 -5.15643,0.766472 -0.68102,0.04628 -3.24287,0.08645 -3.76503,0.05903 z"
       id="path1255" />
    <path
       style="fill:#008080;fill-opacity:1;stroke-width:0.0367015"
       d="m 69.399416,101.16898 c -0.50906,-0.13717 -0.97674,-0.47828 -1.27195,-0.92772 -0.0746,-0.11367 -0.62945,-1.086005 -1.23287,-2.160741 -0.60343,-1.074736 -1.43119,-2.548657 -1.83946,-3.275387 -2.38569,-4.246476 -2.19222,-3.885332 -2.28804,-4.270678 -0.12595,-0.506508 -0.0679,-1.052678 0.1632,-1.535669 0.0637,-0.133064 0.72359,-1.32225 1.46648,-2.642644 0.7429,-1.320385 1.77376,-3.154413 2.29078,-4.075612 1.36031,-2.423658 1.47115,-2.610893 1.67511,-2.829205 0.37784,-0.404429 0.81986,-0.621101 1.40944,-0.690904 0.21468,-0.02541 2.07749,-0.03451 5.46469,-0.02649 4.77091,0.01117 5.15453,0.01666 5.35612,0.07731 0.51027,0.153373 0.95363,0.462348 1.22326,0.852468 0.0892,0.12911 0.52463,0.879591 0.96755,1.667726 1.42287,2.531835 2.49879,4.445875 3.41808,6.080693 0.49351,0.877608 0.93539,1.706686 0.98197,1.8424 0.0713,0.207851 0.0848,0.320507 0.0855,0.714556 8.7e-4,0.710358 0.004,0.702321 -0.84023,2.208976 -1.67516,2.988822 -4.09207,7.288351 -4.32959,7.702097 -0.35822,0.623964 -0.6097,0.887764 -1.0657,1.117914 -0.18273,0.0922 -0.42886,0.18534 -0.54696,0.20693 -0.14447,0.0264 -1.95069,0.0387 -5.51898,0.0372 -5.10316,-0.002 -5.31426,-0.004 -5.56837,-0.0733 z m 1.58507,-11.146647 v -4.112834 h -0.57905 -0.57904 v 4.112834 4.112835 h 0.57904 0.57905 z m 2.27996,0 v -4.112834 h -0.56095 -0.56093 v 4.112834 4.112835 h 0.56093 0.56095 z m 2.27997,0 v -4.112834 h -0.56095 -0.56093 v 4.112834 4.112835 h 0.56093 0.56095 z m 2.31617,0 v -4.112834 h -0.57905 -0.57904 v 4.112834 4.112835 h 0.57904 0.57905 z m 2.27997,0 v -4.112834 h -0.56095 -0.56095 v 4.112834 4.112835 h 0.56095 0.56095 z"
       id="path1287" />
    <path
       style="fill:#008080;stroke-width:0.191558"
       d="m 184.27802,144.13539 c 0,-0.16124 0.0845,-0.29318 0.18775,-0.29318 0.10325,0 0.18774,0.13194 0.18774,0.29318 0,0.16125 -0.0845,0.29318 -0.18774,0.29318 -0.10326,0 -0.18775,-0.13193 -0.18775,-0.29318 z m 1.06897,0.1682 c -0.14999,-0.15616 0.0196,-0.46138 0.2563,-0.46138 0.0972,0 0.17666,0.13194 0.17666,0.29318 0,0.30225 -0.22153,0.38831 -0.43296,0.1682 z m 1.11624,-0.0106 c -0.21143,-0.22012 -0.12877,-0.45075 0.16156,-0.45075 0.15488,0 0.2816,0.0828 0.2816,0.18392 0,0.24647 -0.29317,0.42299 -0.44316,0.26683 z m -3.31165,-0.35301 c 0,-0.17917 0.0908,-0.29424 0.20182,-0.25572 0.11101,0.0385 0.20182,0.15359 0.20182,0.25572 0,0.10212 -0.0908,0.21719 -0.20182,0.25571 -0.111,0.0385 -0.20182,-0.0765 -0.20182,-0.25571 z m 4.31804,0 c 0,-0.17917 0.0908,-0.29424 0.20182,-0.25572 0.111,0.0385 0.20182,0.15359 0.20182,0.25572 0,0.10212 -0.0908,0.21719 -0.20182,0.25571 -0.111,0.0385 -0.20182,-0.0765 -0.20182,-0.25571 z m 1.12644,-0.19546 c 0,-0.17916 0.0908,-0.29424 0.20183,-0.25571 0.11099,0.0385 0.20182,0.15359 0.20182,0.25571 0,0.10213 -0.0908,0.2172 -0.20182,0.25571 -0.11101,0.0385 -0.20183,-0.0765 -0.20183,-0.25571 z m -6.57093,-0.0977 c 0,-0.10749 0.12673,-0.19545 0.28162,-0.19545 0.15488,0 0.2816,0.088 0.2816,0.19545 0,0.1075 -0.12672,0.19545 -0.2816,0.19545 -0.15489,0 -0.28162,-0.0879 -0.28162,-0.19545 z m -1.00638,-0.13561 c -0.21143,-0.22011 -0.12878,-0.45074 0.16155,-0.45074 0.15489,0 0.28161,0.0828 0.28161,0.18392 0,0.24645 -0.29317,0.42297 -0.44316,0.26682 z m 8.64628,0.0106 c -0.14999,-0.15616 0.0196,-0.46137 0.2563,-0.46137 0.0972,0 0.17666,0.13192 0.17666,0.29318 0,0.30224 -0.22153,0.3883 -0.43296,0.16819 z m 1.11624,-0.40153 c -0.21143,-0.22012 -0.12877,-0.45075 0.16155,-0.45075 0.15489,0 0.28162,0.0828 0.28162,0.18392 0,0.24646 -0.29318,0.42298 -0.44317,0.26682 z m -10.82128,-0.35302 c 0,-0.17917 0.0908,-0.29424 0.20181,-0.25572 0.11101,0.0386 0.20183,0.15359 0.20183,0.25572 0,0.10212 -0.0908,0.21719 -0.20183,0.25571 -0.11099,0.0385 -0.20181,-0.0765 -0.20181,-0.25571 z m 14.54991,-0.21141 c -0.41303,-0.17375 -1.02554,-0.41668 -1.36112,-0.53984 -0.33559,-0.12317 -0.61016,-0.3179 -0.61016,-0.43272 0,-0.11484 -0.24732,-0.45547 -0.5496,-0.75697 -1.37112,-1.36758 -1.84807,-4.29494 -1.01091,-6.20467 1.67158,-3.81322 6.29879,-4.80592 9.1333,-1.95941 0.39614,0.39782 0.94364,1.16307 1.21668,1.70056 0.41716,0.82121 0.49644,1.22696 0.49644,2.54089 0,1.3107 -0.0799,1.72168 -0.49396,2.54088 -0.63206,1.2505 -1.65214,2.30463 -2.75734,2.84939 -1.14928,0.56647 -3.04832,0.68887 -4.06333,0.26189 z m 3.4323,-1.36212 c 1.64179,-0.7129 2.66102,-2.35609 2.66102,-4.29004 0,-2.69422 -1.84501,-4.59913 -4.44456,-4.58884 -1.35202,0.005 -2.38889,0.47687 -3.22272,1.46556 -0.84835,1.00591 -1.14828,1.82171 -1.14828,3.12328 0,1.87362 0.95029,3.45656 2.53449,4.2218 0.9306,0.44951 2.66662,0.48223 3.62005,0.0683 z m -2.4645,-0.6407 c -0.68144,-0.78391 -0.15399,-1.988 0.87085,-1.988 0.5486,0 0.88359,0.47149 0.88359,1.24363 0,0.99286 -1.12392,1.46971 -1.75444,0.74437 z m -1.50193,-4.1045 c -0.6599,-0.75914 -0.21602,-1.67891 0.754,-1.56235 0.72534,0.0872 1.03063,0.95422 0.53624,1.52296 -0.42797,0.49232 -0.8844,0.50625 -1.29024,0.0394 z m 3.15126,-0.12163 c -0.38899,-0.61806 -0.19887,-1.24219 0.42829,-1.40606 0.62421,-0.1631 1.06968,0.13195 1.142,0.75641 0.11928,1.02979 -1.03142,1.50585 -1.57029,0.64965 z m -2.86064,-1.89197 c -0.72178,-0.21665 -0.95679,-0.66537 -0.5631,-1.07522 0.23113,-0.24062 0.42202,-0.25076 1.14643,-0.0609 0.97384,0.25529 1.31882,0.56831 1.14526,1.03918 -0.13027,0.35342 -0.75695,0.38854 -1.72859,0.0969 z m 2.2917,-0.0476 c -0.20385,-0.55303 0.053,-0.84243 0.95842,-1.07978 0.66843,-0.17522 0.94268,-0.17606 1.14244,-0.004 0.62634,0.54117 0.14483,1.04652 -1.21243,1.27247 -0.61484,0.10235 -0.79511,0.064 -0.88843,-0.18923 z m -23.2629,8.02068 c -1.22724,-0.42337 -1.86496,-0.83895 -2.6167,-1.70522 -1.07418,-1.23783 -1.50344,-2.37832 -1.50344,-3.99449 0,-1.60951 0.42905,-2.75642 1.48741,-3.97601 2.13707,-2.46264 5.90204,-2.53948 8.13372,-0.16599 2.09776,2.23106 2.22802,5.72771 0.29629,7.95372 -0.34892,0.40209 -0.63441,0.88374 -0.63441,1.07034 0,0.22686 -0.0969,0.30055 -0.29247,0.22242 -0.16086,-0.0643 -0.64416,0.07 -1.07399,0.29823 -0.96098,0.51039 -2.76806,0.65176 -3.79641,0.297 z m 3.57097,-1.54228 c 1.50019,-0.81952 2.36633,-2.34125 2.36633,-4.15743 0,-2.65365 -1.87286,-4.59313 -4.43537,-4.59313 -2.54174,0 -4.39818,1.91657 -4.40779,4.55055 -0.009,2.37523 1.43573,4.21151 3.62423,4.60754 0.95131,0.17214 2.08899,0.01 2.8526,-0.40753 z m -4.04032,-1.03018 c -0.18647,-0.23391 -0.18647,-0.35246 0,-0.58636 0.35497,-0.44529 3.85426,-0.42373 4.01958,0.0248 0.2419,0.65627 -0.23377,0.85476 -2.0483,0.85476 -1.31547,0 -1.79435,-0.0712 -1.97128,-0.29318 z m -0.2676,-3.59976 c -0.65993,-0.75916 -0.068,-1.75886 0.89277,-1.50781 0.65124,0.17016 0.86395,0.96649 0.40055,1.49957 -0.42133,0.4847 -0.87663,0.4876 -1.29332,0.008 z m 3.27145,-0.0161 c -0.46616,-0.4853 -0.47491,-0.823 -0.0322,-1.24015 0.94996,-0.89501 2.14447,0.38131 1.23906,1.32392 -0.39552,0.41176 -0.75487,0.38683 -1.20691,-0.0838 z m 15.89028,6.31431 c -0.21143,-0.22011 -0.12876,-0.45074 0.16156,-0.45074 0.15488,0 0.2816,0.0828 0.2816,0.18392 0,0.24646 -0.29317,0.42298 -0.44316,0.26682 z m -12.79256,-0.25529 c -0.0638,-0.10749 0.0157,-0.19545 0.17666,-0.19545 0.16099,0 0.2927,0.088 0.2927,0.19545 0,0.1075 -0.0795,0.19545 -0.17667,0.19545 -0.0972,0 -0.22887,-0.088 -0.29269,-0.19545 z m 5.66133,-10.13005 c -0.41241,-0.47442 -0.39518,-1.45692 0.0326,-1.85998 0.4557,-0.42934 1.39944,-0.4114 1.78659,0.034 0.4124,0.47442 0.39517,1.45693 -0.0326,1.85999 -0.4557,0.42934 -1.39944,0.41139 -1.78659,-0.034 z m -11.45,-1.53194 c -0.21603,-0.2249 -0.13672,-0.45606 0.15645,-0.45606 0.15488,0 0.28161,0.13193 0.28161,0.29319 0,0.3052 -0.22204,0.38776 -0.43806,0.16287 z m 24.46888,-0.0652 c 0,-0.10749 0.12673,-0.19545 0.28161,-0.19545 0.15489,0 0.28161,0.088 0.28161,0.19545 0,0.1075 -0.12672,0.19545 -0.28161,0.19545 -0.15488,0 -0.28161,-0.088 -0.28161,-0.19545 z m -0.0677,-0.91742 c -0.21143,-0.22012 -0.12877,-0.45075 0.16155,-0.45075 0.15489,0 0.28162,0.0828 0.28162,0.18392 0,0.24647 -0.29318,0.42298 -0.44317,0.26683 z m -24.33862,-0.35302 c 0,-0.17916 0.0908,-0.29423 0.20182,-0.25572 0.111,0.0385 0.20182,0.1536 0.20182,0.25572 0,0.10212 -0.0908,0.21719 -0.20182,0.25572 -0.111,0.0385 -0.20182,-0.0765 -0.20182,-0.25572 z m 24.15088,-0.8197 c -0.21143,-0.22011 -0.12877,-0.45074 0.16155,-0.45074 0.15489,0 0.28162,0.0828 0.28162,0.18392 0,0.24646 -0.29318,0.42298 -0.44317,0.26682 z m -23.92012,-0.29193 c 0.11605,-0.36242 0.5202,-0.42253 0.5202,-0.0774 0,0.1702 -0.13376,0.30946 -0.29725,0.30946 -0.16349,0 -0.26382,-0.10443 -0.22295,-0.23209 z m 23.55484,-0.87015 c -0.14998,-0.15616 0.0196,-0.46138 0.2563,-0.46138 0.0972,0 0.17666,0.13194 0.17666,0.29319 0,0.30224 -0.22152,0.3883 -0.43296,0.16819 z m -23.18639,-0.28058 c 0.037,-0.11556 0.14753,-0.21011 0.24562,-0.21011 0.0981,0 0.20863,0.0945 0.24564,0.21011 0.037,0.11556 -0.0735,0.21011 -0.24564,0.21011 -0.17209,0 -0.28263,-0.0945 -0.24562,-0.21011 z m 0.45955,-0.90277 c -0.21143,-0.22011 -0.12877,-0.45074 0.16156,-0.45074 0.15488,0 0.2816,0.0828 0.2816,0.18392 0,0.24646 -0.29317,0.42298 -0.44316,0.26682 z m 22.25708,-0.0745 c 0.037,-0.11556 0.14753,-0.21011 0.24563,-0.21011 0.0981,0 0.20862,0.0945 0.24563,0.21011 0.037,0.11556 -0.0735,0.21011 -0.24563,0.21011 -0.1721,0 -0.28263,-0.0945 -0.24563,-0.21011 z M 183.9964,125.7827 c -1.19474,-0.39336 -1.85675,-0.81767 -2.58493,-1.65679 -0.82136,-0.9465 -1.17321,-1.6268 -1.46475,-2.83218 -0.12137,-0.50181 -0.28975,-0.95684 -0.37418,-1.01116 -0.0844,-0.0543 -0.0379,-0.33868 0.10345,-0.6319 0.14134,-0.29322 0.34988,-0.90329 0.46342,-1.35572 0.44994,-1.79269 2.34137,-3.55727 4.25673,-3.97123 3.11713,-0.67369 6.1386,1.53564 6.73803,4.9269 0.0894,0.50583 0.20531,0.68823 0.39032,0.61432 0.16263,-0.065 0.26315,0.0228 0.26315,0.22987 0,0.21748 -0.0988,0.29553 -0.28161,0.22249 -0.19041,-0.0761 -0.28161,0.01 -0.28161,0.26494 0,0.20759 -0.18087,0.88647 -0.40193,1.50862 -1.01822,2.86568 -4.16548,4.56785 -6.82609,3.69184 z m 3.72169,-1.64695 c 1.45069,-0.80554 2.23908,-2.22747 2.23908,-4.03838 0,-2.62541 -1.91162,-4.59569 -4.45884,-4.59569 -2.54175,0 -4.39818,1.91656 -4.40779,4.55054 -0.005,1.34463 0.36033,2.34708 1.17877,3.23536 1.485,1.61172 3.50691,1.92645 5.44878,0.84817 z m -2.94833,-0.4318 c -0.62928,-0.19615 -1.43045,-0.92302 -1.43045,-1.29778 0,-0.20016 0.49122,-0.25911 2.15902,-0.25911 1.18746,0 2.15901,0.0761 2.15901,0.1691 0,0.41693 -0.83024,1.20358 -1.46353,1.38669 -0.78474,0.22691 -0.69986,0.22684 -1.42405,7.4e-4 z m -1.51032,-4.08165 c -0.65992,-0.75916 -0.068,-1.75887 0.89278,-1.50782 0.71152,0.18592 0.89205,1.0433 0.32103,1.52467 -0.53955,0.45485 -0.80699,0.45114 -1.21381,-0.0168 z m 3.27145,-0.0161 c -0.46615,-0.4853 -0.47491,-0.823 -0.0321,-1.24014 0.65267,-0.61493 1.53408,-0.29038 1.53408,0.56486 0,0.44047 -0.53203,1.06619 -0.90655,1.06619 -0.12094,0 -0.38886,-0.17591 -0.59538,-0.39091 z m 9.51731,5.54313 c -0.14999,-0.15615 0.0196,-0.46136 0.2563,-0.46136 0.0972,0 0.17666,0.13192 0.17666,0.29317 0,0.30226 -0.22153,0.38831 -0.43296,0.16819 z m -21.34498,-0.26591 c 0,-0.1075 0.12673,-0.19545 0.28162,-0.19545 0.15488,0 0.28161,0.0879 0.28161,0.19545 0,0.10749 -0.12673,0.19545 -0.28161,0.19545 -0.15489,0 -0.28162,-0.088 -0.28162,-0.19545 z m 20.78176,-0.71135 c -0.14999,-0.15615 0.0196,-0.46137 0.25629,-0.46137 0.0972,0 0.17667,0.13193 0.17667,0.29318 0,0.30225 -0.22153,0.3883 -0.43296,0.16819 z m -20.21853,-0.26592 c 0,-0.1075 0.12673,-0.19545 0.28161,-0.19545 0.15489,0 0.28161,0.0879 0.28161,0.19545 0,0.1075 -0.12672,0.19546 -0.28161,0.19546 -0.15488,0 -0.28161,-0.088 -0.28161,-0.19546 z m 0.75096,-0.86324 c 0,-0.17021 0.13377,-0.30947 0.29726,-0.30947 0.16349,0 0.26382,0.10445 0.22294,0.2321 -0.11604,0.36241 -0.5202,0.42252 -0.5202,0.0774 z m 18.77408,-0.0162 c 0,-0.17917 0.0908,-0.29424 0.20182,-0.25572 0.111,0.0385 0.20183,0.15359 0.20183,0.25572 0,0.10212 -0.0908,0.21719 -0.20183,0.25571 -0.111,0.0385 -0.20182,-0.0765 -0.20182,-0.25571 z m -0.75096,-0.78181 c 0,-0.17917 0.0908,-0.29424 0.20182,-0.25572 0.111,0.0386 0.20182,0.15359 0.20182,0.25572 0,0.10212 -0.0908,0.21719 -0.20182,0.25571 -0.111,0.0385 -0.20182,-0.0766 -0.20182,-0.25571 z m -17.27215,-0.0977 c 0,-0.1075 0.12672,-0.19545 0.28161,-0.19545 0.15489,0 0.28161,0.0879 0.28161,0.19545 0,0.1075 -0.12672,0.19545 -0.28161,0.19545 -0.15489,0 -0.28161,-0.0879 -0.28161,-0.19545 z m 16.46371,-0.51589 c -0.14999,-0.15615 0.0196,-0.46137 0.25629,-0.46137 0.0972,0 0.17667,0.13193 0.17667,0.29318 0,0.30225 -0.22153,0.3883 -0.43296,0.16819 z m -15.61888,-0.26592 c 0.0638,-0.1075 0.19552,-0.19545 0.29269,-0.19545 0.0972,0 0.17666,0.088 0.17666,0.19545 0,0.1075 -0.13171,0.19545 -0.29269,0.19545 -0.16098,0 -0.24048,-0.088 -0.17666,-0.19545 z m 0.9751,-0.51589 c -0.14999,-0.15616 0.0196,-0.46137 0.25629,-0.46137 0.0972,0 0.17666,0.13193 0.17666,0.29318 0,0.30224 -0.22152,0.38831 -0.43295,0.16819 z m 13.6767,-0.057 c -0.12824,-0.21601 0.16791,-0.44927 0.34128,-0.26879 0.1785,0.18584 0.14523,0.45074 -0.0566,0.45074 -0.0972,0 -0.22526,-0.0819 -0.28467,-0.18195 z"
       id="path1303" />
    <path
       style="fill:#ff0000;stroke-width:0.264583"
       d="m 257.28839,286.38351 c -14.24036,-1.28783 -22.87771,-7.15194 -29.22923,-19.84447 -1.89877,-3.79439 -2.66933,-5.92334 -3.83582,-10.59774 -0.50435,-2.02107 -1.21846,-4.3909 -1.58691,-5.2663 -0.81214,-1.92955 -0.83146,-2.52997 -0.11898,-3.69865 0.75595,-1.23999 1.44451,-1.74282 3.10206,-2.26532 0.78133,-0.24629 1.35951,-0.50888 1.28486,-0.58353 -0.0746,-0.0747 -0.56129,0.0181 -1.08141,0.20623 -0.68776,0.24869 -1.02506,0.26258 -1.23672,0.0509 -0.53424,-0.53424 0.007,-1.35227 1.14661,-1.73204 0.60294,-0.20098 1.33255,-0.6819 1.62133,-1.0687 0.45758,-0.61287 0.48198,-0.79779 0.18981,-1.43853 -0.31821,-0.69781 -0.28014,-0.78276 0.74779,-1.6685 1.25977,-1.08551 1.33378,-1.5171 0.40916,-2.38573 -0.98561,-0.92593 -0.82142,-2.13374 0.33485,-2.46324 0.65608,-0.18696 1.00692,-0.14089 1.52825,0.2007 0.60228,0.39464 0.66865,0.59493 0.60364,1.82183 l -0.073,1.37844 1.57835,0.0811 c 1.6858,0.0866 2.37387,0.42627 2.13329,1.0532 -0.24586,0.64072 0.34649,1.06844 1.93109,1.39437 1.74796,0.35954 2.42452,0.67056 2.4335,1.1187 0.007,0.35955 3.25152,1.98041 5.6821,2.83877 2.8356,1.00139 4.42035,2.17592 3.954,2.93049 -0.22208,0.35934 -0.86253,0.29063 -2.7208,-0.29187 -2.01774,-0.6325 -2.01482,-0.63237 -2.53721,-0.10998 -0.54258,0.54258 -0.5442,2.9003 -0.006,8.54796 0.75563,7.92732 2.30095,12.09629 6.2254,16.79503 2.51554,3.01183 4.66311,4.86854 7.52555,6.50631 2.21357,1.2665 6.44699,2.82177 8.41514,3.09154 1.23226,0.16889 1.25965,0.15601 2.8083,-1.32115 1.53392,-1.46311 1.93115,-1.65385 2.77218,-1.33112 0.58065,0.22282 0.53369,0.41546 -0.38223,1.56799 -0.4404,0.55418 -0.75726,1.1361 -0.70413,1.29315 0.0531,0.15706 0.68136,0.29849 1.39606,0.31429 0.71469,0.0158 1.89871,0.11863 2.63115,0.2285 1.07584,0.16138 1.40032,0.11711 1.68875,-0.23044 0.27052,-0.32595 0.44371,-0.35826 0.71472,-0.13335 0.19672,0.16327 1.14361,0.28506 2.10419,0.27065 1.94747,-0.0292 2.75959,0.27006 2.75959,1.01694 0,0.80644 -0.68292,1.26781 -2.17594,1.47005 -0.76777,0.10399 -1.70784,0.34875 -2.08906,0.5439 -0.41128,0.21054 -1.0727,0.29322 -1.62663,0.20332 -0.56111,-0.091 -1.46776,0.026 -2.27269,0.29332 -2.97293,0.98744 -11.45145,1.62842 -16.04506,1.213 z m 6.4823,-0.539 c 0.57677,-0.18472 0.59371,-0.22077 0.13229,-0.2816 -0.6376,-0.0841 -4.44254,-0.20764 -6.53873,-0.21237 -3.92197,-0.009 -8.08009,-1.1757 -12.97648,-3.64148 -1.00567,-0.50645 -1.95718,-0.87792 -2.11446,-0.82549 -0.15729,0.0524 0.50023,0.50295 1.46114,1.00116 2.35736,1.22223 2.06143,1.32441 -0.37571,0.12973 -1.06994,-0.52448 -1.70722,-0.76052 -1.41618,-0.52453 0.85647,0.69447 3.83104,2.1182 5.73468,2.7448 3.82427,1.2588 14.0085,2.2775 16.09345,1.60978 z m -5.60483,-3.52613 c 0.1023,-0.86411 -0.40272,-0.93329 -1.22445,-0.16773 -0.71969,0.67049 -0.73486,0.86855 -0.0499,0.65115 0.3199,-0.10153 0.52917,-0.0475 0.52917,0.13651 0,0.61646 0.66422,0.0639 0.74517,-0.61993 z m 6.88984,0.38015 c 0.45,-0.28513 0.26982,-0.38884 -1.61574,-0.93005 -0.83675,-0.24017 -1.52136,-0.55241 -1.52136,-0.69386 0,-0.14146 -0.3631,-0.25719 -0.80689,-0.25719 -0.98215,0 -2.023,-0.51566 -2.86913,-1.42143 -0.34832,-0.37288 -1.24129,-0.87387 -1.98437,-1.11331 -2.60096,-0.8381 -4.80197,-2.50015 -5.0557,-3.81771 -0.0658,-0.34169 -0.48317,-0.99632 -0.92747,-1.45472 -0.44431,-0.45841 -1.31025,-1.59042 -1.92432,-2.51558 -0.61407,-0.92515 -1.35281,-1.80874 -1.64163,-1.96353 -0.28883,-0.15479 -0.68254,-0.48979 -0.8749,-0.74445 -0.19237,-0.25466 -0.5216,-0.46302 -0.73163,-0.46302 -0.48843,0 -0.49954,-0.69198 -0.0141,-0.87826 0.30695,-0.11779 0.2898,-0.37742 -0.10373,-1.5703 -0.25932,-0.78605 -0.68163,-2.31286 -0.93846,-3.39292 -0.25683,-1.08005 -0.50904,-2.01457 -0.56046,-2.07671 -0.0514,-0.0621 -0.26707,0.11646 -0.47922,0.39688 -0.30206,0.39925 -0.38755,0.42217 -0.39414,0.10563 -0.005,-0.22232 0.23879,-0.61589 0.54094,-0.8746 0.41302,-0.35364 0.47763,-0.55681 0.26033,-0.81864 -0.15897,-0.19155 -0.36509,-1.67758 -0.45805,-3.3023 -0.093,-1.62472 -0.25002,-3.0041 -0.34902,-3.06529 -0.099,-0.0612 -0.0705,-0.80096 0.0634,-1.64393 0.16544,-1.04175 0.15008,-1.77492 -0.0479,-2.28892 -0.26937,-0.6992 -0.36585,-0.74254 -1.27919,-0.57461 -2.51216,0.4619 -3.5014,0.73196 -3.5014,0.95589 0,0.13346 0.11907,0.24266 0.26459,0.24266 0.14552,0 0.26458,0.10947 0.26458,0.24326 0,0.14356 -0.39678,0.1337 -0.9682,-0.0241 -0.79827,-0.22041 -1.00954,-0.19345 -1.20377,0.15362 -0.12957,0.23152 -0.46237,0.42095 -0.73957,0.42095 -0.27719,0 -0.80165,0.29766 -1.16545,0.66146 -0.48755,0.48755 -0.94288,0.66146 -1.73182,0.66146 -1.20417,0 -1.33534,0.30761 -0.67535,1.58388 0.46888,0.90672 0.27932,1.59112 -0.44071,1.59112 -0.67876,0 -1.5418,0.47022 -1.5418,0.84003 0,0.16074 -0.18085,0.4245 -0.40189,0.58612 -0.35876,0.26234 -0.35897,0.35514 -0.002,0.86482 0.25971,0.37078 0.58088,0.52361 0.91613,0.43595 0.33156,-0.0867 0.76357,0.11235 1.20767,0.55645 0.5569,0.5569 0.67565,0.89772 0.61025,1.75142 -0.0969,1.26499 -0.49679,1.46969 -0.859,0.43973 -0.20262,-0.57614 -0.17432,-0.79719 0.12592,-0.98348 0.32467,-0.20144 0.28827,-0.33794 -0.22513,-0.84431 l -0.61242,-0.60403 -0.63739,0.78937 -0.63739,0.78936 0.69903,0.55739 c 0.44402,0.35405 0.64035,0.71033 0.53817,0.97661 -0.10251,0.26715 0.0649,0.56716 0.46164,0.82709 0.34237,0.22434 0.70003,0.76087 0.79479,1.19231 0.23249,1.05854 0.75803,1.48174 1.19148,0.95947 0.18132,-0.21847 0.46501,-0.32151 0.63042,-0.22898 0.16541,0.0925 -0.14574,-0.30074 -0.69144,-0.87396 -1.04332,-1.09593 -1.25967,-1.57604 -0.59531,-1.3211 0.31169,0.11961 0.39687,-0.0731 0.39687,-0.89773 0,-0.57752 0.12446,-1.05003 0.27658,-1.05003 0.171,0 0.21243,0.34191 0.10853,0.89574 -0.21584,1.15048 0.25124,1.46104 1.05778,0.70333 l 0.60997,-0.57304 0.57114,0.72609 c 0.94857,1.20591 0.52067,1.81413 -0.9042,1.28525 -0.32527,-0.12074 -0.0959,0.2365 0.59531,0.92709 0.78041,0.77974 1.12448,1.34716 1.12448,1.85442 0,0.7311 0.56176,1.46867 0.87784,1.15258 0.0922,-0.0922 0.33956,-0.0251 0.54961,0.14925 0.30365,0.25201 0.43256,0.22646 0.62906,-0.12466 0.2021,-0.36113 0.35066,-0.38622 0.81511,-0.13765 0.31238,0.16718 0.56796,0.45561 0.56796,0.64096 0,0.18535 0.18743,0.56811 0.41651,0.85059 0.41093,0.50671 0.41488,0.5065 0.2946,-0.0156 -0.067,-0.29104 -0.21513,-0.76729 -0.32908,-1.05833 -0.20711,-0.529 -0.20698,-0.529 0.39394,-5.3e-4 0.33062,0.2907 0.76439,0.84427 0.96394,1.23016 0.38876,0.75178 0.2408,1.01361 -0.7793,1.37904 -0.43375,0.15538 -0.37231,0.27437 0.4994,0.96712 0.5467,0.43437 1.11879,0.78984 1.2713,0.78984 0.52326,0 1.50202,1.15072 1.50202,1.76591 0,0.72509 -0.48348,0.78938 -1.59884,0.2126 -1.27915,-0.66147 -2.15597,-0.95159 -1.97089,-0.65212 0.0906,0.14655 1.85355,1.0869 3.91773,2.08968 2.77391,1.34756 4.05156,2.13129 4.89726,3.00402 0.96735,0.99826 1.0696,1.19974 0.66146,1.3034 -0.26552,0.0674 -0.87938,0.0182 -1.36415,-0.10941 -0.69237,-0.18226 -0.81878,-0.30745 -0.58944,-0.58379 0.22845,-0.27526 0.13241,-0.38242 -0.44153,-0.49267 -0.88631,-0.17025 -0.96179,-0.11323 -0.74682,0.56408 0.1877,0.59139 1.39603,1.09833 2.63252,1.10444 1.0708,0.005 1.37439,0.24731 1.32244,1.05428 -0.0489,0.75959 0.28212,1.04853 1.20783,1.05428 0.38995,0.002 0.8851,0.29617 1.23332,0.73166 l 0.58181,0.7276 0.69959,-0.65523 c 0.47516,-0.44503 0.64483,-0.51253 0.5289,-0.21041 -0.15893,0.41416 -0.0964,0.41564 0.907,0.0215 1.02333,-0.40197 1.16132,-0.39387 2.73569,0.16062 4.37157,1.53965 5.78352,1.83743 6.51489,1.37401 z m -16.24867,-9.40703 c -0.24962,-0.38097 -0.38771,-0.75882 -0.30687,-0.83966 0.0808,-0.0808 0.35123,0.16471 0.60085,0.54568 0.24962,0.38097 0.38771,0.75882 0.30687,0.83966 -0.0808,0.0808 -0.35123,-0.16471 -0.60085,-0.54568 z m -4.6957,-7.65934 c -0.10827,-0.27549 -0.13452,-0.56322 -0.0583,-0.63941 0.24131,-0.24131 0.45364,0.15414 0.35253,0.65657 -0.0927,0.46046 -0.10682,0.45964 -0.2942,-0.0172 z m -8.14086,-5.80941 c -0.65012,-1.43176 -0.63578,-2.16168 0.019,-0.96574 0.27884,0.50932 0.51198,0.76939 0.51808,0.57792 0.006,-0.19147 -0.11217,-0.57842 -0.26281,-0.8599 -0.49326,-0.92167 0.19931,-0.5498 1.10445,0.59303 0.56764,0.71671 0.76076,1.14289 0.54975,1.21322 -0.1789,0.0596 -0.27642,0.18756 -0.21672,0.28427 0.0597,0.0967 -0.18883,0.1937 -0.55229,0.21553 -0.53433,0.0321 -0.7563,-0.17052 -1.15943,-1.05833 z m 4.41521,0.3206 c -0.4718,-0.67359 -0.57939,-2.48415 -0.16291,-2.74155 0.14552,-0.0899 0.26458,0.0816 0.26458,0.38126 0,0.29963 0.10349,0.54478 0.22997,0.54478 0.31946,0 0.60146,1.92025 0.32289,2.19881 -0.12633,0.12633 -0.41666,-0.0437 -0.65453,-0.3833 z m -8.43971,-3.27401 c -0.43347,-0.59574 -0.4351,-0.63413 -0.0202,-0.47492 0.34468,0.13226 0.41113,0.0683 0.28112,-0.27048 -0.158,-0.41175 -0.12322,-0.41287 0.48323,-0.0155 0.75973,0.4978 0.88498,1.42982 0.19047,1.41735 -0.25466,-0.005 -0.67523,-0.29997 -0.93461,-0.65644 z m 0.58386,-1.35328 -0.64144,-0.69513 0.84312,0.42866 c 0.95407,0.48506 1.35354,0.96159 0.80612,0.96159 -0.2015,0 -0.65502,-0.31281 -1.0078,-0.69512 z m 1.69392,0.0196 c -0.85139,-0.37293 -1.30784,-0.83705 -1.06352,-1.08137 0.18445,-0.18445 1.59979,0.5705 2.02098,1.078 0.4114,0.49572 0.16851,0.49657 -0.95746,0.003 z m 0.70735,-0.91196 c -0.21828,-0.14107 -0.27781,-0.25648 -0.13229,-0.25648 0.14552,0 0.44318,0.11541 0.66146,0.25648 0.21828,0.14106 0.27781,0.25648 0.13229,0.25648 -0.14552,0 -0.44318,-0.11542 -0.66146,-0.25648 z m -0.0479,-0.8599 c -0.22752,-0.1819 -0.47632,-0.59507 -0.5529,-0.91815 -0.13554,-0.57182 -0.12286,-0.57533 0.47689,-0.13229 0.5986,0.44218 1.06017,1.38117 0.67892,1.38117 -0.10408,0 -0.37539,-0.14883 -0.60291,-0.33073 z m 6.13698,-2.11667 c 0.005,-1.14066 0.262,-2.05052 0.57967,-2.05052 0.15279,0 0.18758,0.45591 0.0858,1.12448 -0.12461,0.81859 -0.096,1.01652 0.10498,0.72761 0.35792,-0.51439 0.36546,-0.11694 0.0104,0.54656 -0.41601,0.77733 -0.78487,0.61288 -0.78083,-0.34813 z m 1.0756,-1.14652 c 0.0127,-0.30823 0.0754,-0.37092 0.15986,-0.15986 0.0764,0.191 0.067,0.4192 -0.0209,0.50712 -0.0879,0.0879 -0.15046,-0.0684 -0.13897,-0.34726 z m 29.87703,32.16892 c 0.35278,-0.22798 0.35278,-0.25751 0,-0.26577 -0.21828,-0.005 -1.19582,-0.12485 -2.17232,-0.26608 -1.29188,-0.18684 -1.97648,-0.17096 -2.51354,0.0583 -0.72727,0.31048 -0.71869,0.31759 0.58482,0.48504 2.10328,0.27018 3.67197,0.26578 4.10104,-0.0115 z m -32.01458,-3.55267 c 0,-0.40527 -1.21262,-1.47441 -1.67227,-1.47441 -0.40824,0 -1.50273,-1.09347 -1.50273,-1.50133 0,-0.19292 -0.1775,-0.35076 -0.39444,-0.35076 -0.21695,0 -0.66343,-0.41105 -0.99219,-0.91345 -0.32876,-0.5024 -0.8557,-0.97843 -1.17098,-1.05784 -0.38023,-0.0958 -0.73067,-0.55659 -1.04079,-1.36864 -0.25716,-0.67334 -0.83264,-1.68183 -1.27885,-2.24107 -2.04048,-2.55738 -2.81297,-3.6974 -3.49284,-5.15462 -0.99045,-2.1229 -1.00974,-2.19454 -0.38659,-1.43521 0.67692,0.82485 0.68035,0.72844 0.0346,-0.97065 -0.70531,-1.85568 -2.15454,-4.5856 -2.43435,-4.5856 -0.22756,0 -0.0833,0.38876 1.20057,3.23513 0.37592,0.83344 0.61734,1.68773 0.53649,1.89841 -0.22715,0.59196 1.39371,3.58205 4.4602,8.22792 2.1256,3.22039 3.23937,4.62966 4.65473,5.88969 2.20715,1.96492 3.47948,2.62401 3.47948,1.80243 z m 4.64578,-1.61512 c -0.28247,-0.21365 -0.69919,-0.38467 -0.92604,-0.38005 -0.32974,0.007 -0.30945,0.0863 0.10114,0.39688 0.28248,0.21365 0.6992,0.38467 0.92604,0.38005 0.32974,-0.007 0.30946,-0.0863 -0.10114,-0.39688 z m 0.11672,-1.44679 c -0.21828,-0.14107 -0.635,-0.25648 -0.92604,-0.25648 -0.43819,0 -0.46093,0.0441 -0.13229,0.25648 0.21828,0.14106 0.635,0.25648 0.92604,0.25648 0.43818,0 0.46093,-0.0441 0.13229,-0.25648 z m -1.71592,-0.27085 c 0.24069,-0.38945 -2.12114,-1.36422 -3.06903,-1.26664 -0.72479,0.0746 -0.76593,0.12751 -0.44161,0.56783 0.54084,0.73431 3.16577,1.25682 3.51064,0.69881 z m 0.16064,-1.1996 c -1.78509,-0.81066 -1.95431,-0.80941 -0.95826,0.007 0.4584,0.37575 1.1291,0.64821 1.5875,0.64491 0.71409,-0.005 0.65095,-0.0706 -0.62924,-0.65195 z m 2.78506,0.23078 c -0.24146,-0.24146 -2.0576,-0.86799 -2.53065,-0.87302 -0.56667,-0.006 -0.17865,0.26762 0.95045,0.67027 1.1005,0.39246 1.86844,0.49099 1.5802,0.20275 z m -6.78913,-3.05981 c -0.28683,-0.47295 -0.60605,-1.03849 -0.70936,-1.25677 -0.10332,-0.21828 -0.43176,-0.60128 -0.72988,-0.8511 -0.33417,-0.28002 -0.40921,-0.45759 -0.19569,-0.46302 0.19049,-0.005 0.26786,-0.13578 0.17194,-0.29099 -0.0959,-0.1552 0.0332,-0.43402 0.28705,-0.61961 0.41015,-0.2999 0.33412,-0.36974 -0.68374,-0.6281 -1.01409,-0.2574 -1.19568,-0.23245 -1.58629,0.21792 -0.24261,0.27973 -0.51832,0.4314 -0.61269,0.33703 -0.0944,-0.0944 -0.17157,-0.0454 -0.17157,0.10879 0,0.15421 0.18614,0.35181 0.41364,0.43911 0.22751,0.0873 0.33749,0.28196 0.2444,0.43257 -0.0931,0.15062 0.10773,0.50888 0.44625,0.79614 0.54276,0.46057 0.55296,0.502 0.0863,0.35054 -0.41854,-0.13584 -0.46424,-0.10145 -0.21863,0.1645 0.32898,0.35622 3.25912,2.07643 3.5867,2.10566 0.10618,0.009 -0.0416,-0.36973 -0.32846,-0.84267 z m -8.20158,-19.64218 c 0.3602,-0.43402 0.28177,-0.48544 -1.18803,-0.77884 -0.7494,-0.1496 -0.76505,-0.13605 -0.28016,0.24248 0.28602,0.22328 0.36703,0.40093 0.18283,0.40093 -0.18193,0 -0.25719,0.11907 -0.16725,0.26459 0.24358,0.39413 1.08004,0.31975 1.45261,-0.12916 z m -6.55967,-2.84741 c 0.0703,-1.22093 0.15384,-1.39953 0.69025,-1.47557 0.55994,-0.0794 0.58176,-0.0398 0.26458,0.48026 -0.30501,0.50007 -0.27219,0.62699 0.27894,1.07869 0.75035,0.61498 1.88891,0.68434 1.88891,0.11506 0,-0.21828 0.22839,-0.39687 0.50753,-0.39687 0.27914,0 0.69586,-0.0723 0.92604,-0.1606 0.27894,-0.10704 0.41852,-0.0129 0.41852,0.28241 0,0.5429 0.52581,0.40726 2.75365,-0.71033 1.16524,-0.58454 2.3097,-0.88187 4.49684,-1.16827 5.27502,-0.69075 7.73859,-1.80158 7.51179,-3.38708 -0.0648,-0.45297 -0.30064,-0.559 -1.40082,-0.62979 -1.17637,-0.0757 -4.60191,0.2894 -6.11458,0.65166 -0.47808,0.11449 -0.55413,0.0193 -0.52916,-0.66236 l 0.0292,-0.79607 0.59531,0.55821 c 0.32742,0.30701 0.59531,0.43297 0.59531,0.2799 0,-0.15307 -0.18128,-0.42876 -0.40285,-0.61264 -0.23256,-0.19301 -0.33686,-0.54223 -0.24675,-0.82615 0.10386,-0.32722 0.0258,-0.49181 -0.23314,-0.49181 -0.7251,0 -7.71439,1.91708 -7.9808,2.18904 -0.17915,0.18288 -0.0939,0.20936 0.26399,0.082 1.91889,-0.68281 3.42102,-0.76507 4.73851,-0.2595 0.27781,0.10661 0.42146,0.0168 0.42146,-0.26345 0,-0.60159 0.21642,-0.53256 1.01833,0.32478 l 0.70146,0.74996 -2.91042,0.81891 c -1.60072,0.4504 -3.296,0.89598 -3.76727,0.99019 -1.06614,0.2131 -1.3148,0.56463 -0.56723,0.80189 0.44212,0.14033 0.48723,0.23017 0.20356,0.40548 -0.29601,0.18295 -0.27078,0.29366 0.13446,0.58998 0.40469,0.29592 0.4268,0.39242 0.11715,0.51125 -0.6548,0.25127 -2.07379,-0.50615 -2.07379,-1.10693 0,-0.62663 -0.21621,-0.65695 -1.64093,-0.23009 -1.80382,0.54043 -2.49775,2.09886 -1.4804,3.32469 0.50847,0.61267 0.7119,0.34135 0.7924,-1.05686 z m 6.7607,-1.46501 c -0.40018,-0.24392 -0.7276,-0.53497 -0.7276,-0.64679 0,-0.35608 0.98104,-0.21836 1.31553,0.18468 0.54215,0.65325 0.18553,0.93355 -0.58793,0.46211 z m 0.33073,-1.37926 c 0,-0.14552 0.17157,-0.26458 0.38126,-0.26458 0.2097,0 0.45485,0.11906 0.54479,0.26458 0.0899,0.14552 -0.0816,0.26459 -0.38126,0.26459 -0.29963,0 -0.54479,-0.11907 -0.54479,-0.26459 z m 2.24896,-0.98493 c 0.36864,-0.37488 2.20625,-0.62114 2.39202,-0.32056 0.084,0.13594 -0.26125,0.24716 -0.76726,0.24716 -0.50601,0 -1.13812,0.077 -1.40468,0.17123 -0.32685,0.11548 -0.39851,0.0836 -0.22008,-0.0978 z m 14.3859,-0.0999 c -0.74831,-0.47402 -1.16684,-0.23406 -0.49527,0.28395 0.39519,0.30484 0.70106,0.39666 0.75985,0.2281 0.0541,-0.15516 -0.0649,-0.38559 -0.26458,-0.51205 z m -13.72444,-4.18473 c 0,-0.27892 0.14851,-0.55663 0.33002,-0.61713 0.38027,-0.12676 -0.54082,-0.67347 -1.68982,-1.003 -0.65062,-0.1866 -0.75687,-0.14369 -0.75687,0.30566 0,0.62042 1.12611,1.82158 1.70777,1.82158 0.22659,0 0.4089,-0.2261 0.4089,-0.50711 z m -2.92365,-0.0184 c 0.70197,-0.003 0.84062,-0.0758 0.60025,-0.31618 -0.24037,-0.24037 -0.60401,-0.21022 -1.57427,0.13051 -0.69394,0.24369 -0.96405,0.38597 -0.60025,0.31618 0.36381,-0.0698 1.07223,-0.12852 1.57427,-0.13051 z m -0.92599,-6.33228 c 0.1813,-0.29335 -0.5551,-1.07967 -1.01113,-1.07967 -0.42623,0 -0.96006,0.54434 -0.96006,0.97896 0,0.39712 1.73327,0.48567 1.97119,0.10071 z"
       id="path1335" />
    <path
       style="fill:#72c92d;fill-opacity:1;stroke-width:0.0242543"
       d="m 63.017881,8.4617319 c -0.101481,-0.037478 -0.109388,-0.046889 -0.12434,-0.1484845 -0.0088,-0.059662 -0.0099,-0.1873418 -0.0025,-0.2837303 0.01114,-0.1459319 0.007,-0.1777316 -0.02509,-0.1900349 -0.02118,-0.00811 -0.143026,0.00936 -0.270767,0.038884 -0.53079,0.1226556 -1.196095,-0.023633 -1.335768,-0.2937514 -0.02195,-0.042453 -0.0515,-0.1836751 -0.06564,-0.3138208 -0.03143,-0.2892195 0.0036,-0.4859659 0.114545,-0.6415028 0.206813,-0.2901982 0.34063,-0.4485742 0.467086,-0.5528153 0.07685,-0.063356 0.232512,-0.1925497 0.3459,-0.2870994 0.113384,-0.09455 0.274718,-0.2048857 0.358508,-0.2451975 0.13069,-0.062874 0.168569,-0.070862 0.266477,-0.056179 0.216306,0.032448 0.318086,0.1200974 0.393312,0.3387414 0.08108,0.2356631 0.06304,0.3005007 -0.08931,0.3209379 -0.09612,0.012871 -0.09713,0.012168 -0.173213,-0.1226339 -0.0496,-0.087882 -0.09681,-0.1406916 -0.134144,-0.1500638 -0.06264,-0.015737 -0.356661,0.1164528 -0.487989,0.2193685 -0.170836,0.1338773 -0.406397,0.3789884 -0.559077,0.5817486 -0.179343,0.2381724 -0.252329,0.37669 -0.253148,0.4804496 -8.66e-4,0.1076427 0.06243,0.2293898 0.140102,0.2695556 0.282845,0.1462619 0.869486,0.1935179 1.120586,0.090267 0.170914,-0.070283 0.266797,-0.1603771 0.266797,-0.2506922 0,-0.042076 -0.0158,-0.075048 -0.04056,-0.084551 -0.0223,-0.00855 -0.224717,0.014926 -0.449795,0.052242 -0.225079,0.037261 -0.412363,0.063729 -0.416185,0.058776 -0.09562,-0.1239968 -0.116495,-0.2835301 -0.05314,-0.4060343 0.03177,-0.061447 0.05817,-0.071717 0.309242,-0.1203784 0.150977,-0.029257 0.356362,-0.063572 0.45641,-0.076254 0.100052,-0.012709 0.234809,-0.033152 0.299467,-0.045536 0.06466,-0.01233 0.167918,-0.019252 0.229468,-0.015413 0.136437,0.0086 0.175269,0.050349 0.246834,0.2653913 l 0.05182,0.1557153 -0.07407,0.1535844 c -0.117451,0.2435318 -0.19307,0.575605 -0.205323,0.9016806 -0.0061,0.1607827 -0.02268,0.2986512 -0.0383,0.3174822 -0.05582,0.06726 -0.153625,0.081608 -0.268126,0.039317 z M 73.528372,8.1476028 c -0.185616,-0.064139 -0.311717,-0.1576405 -0.38829,-0.2879107 -0.06374,-0.108437 -0.06795,-0.1326011 -0.06662,-0.3825469 0.0011,-0.2425205 0.0096,-0.2903984 0.09096,-0.5262238 0.04921,-0.1426871 0.08953,-0.2763859 0.08953,-0.2971151 0,-0.071781 -0.08417,-0.038884 -0.278922,0.1089843 -0.133623,0.1014552 -0.364224,0.2143335 -0.569975,0.278998 -0.07337,0.023039 -0.148895,0.056293 -0.16784,0.073853 -0.04039,0.037424 -0.09361,0.3240908 -0.1144,0.6161767 -0.02596,0.3647543 -0.03521,0.3955155 -0.126994,0.4218366 -0.06367,0.018279 -0.09796,0.013845 -0.162416,-0.020875 -0.137565,-0.07408 -0.145682,-0.1388311 -0.09573,-0.7635795 0.0059,-0.073664 -0.0093,-0.098806 -0.12715,-0.2102342 l -0.133847,-0.1265663 0.01725,-0.1523894 c 0.02158,-0.1905649 0.04727,-0.2396596 0.125597,-0.2396596 0.0358,0 0.09137,-0.029744 0.132542,-0.070895 0.06226,-0.062264 0.07085,-0.088108 0.07053,-0.2122244 -1.84e-4,-0.077731 -0.0099,-0.1563805 -0.02158,-0.1747788 -0.03131,-0.049485 -0.226053,-0.037748 -0.340121,0.020443 -0.118178,0.060295 -0.249632,0.063334 -0.343408,0.00796 -0.117222,-0.069246 -0.128399,-0.032989 -0.134348,0.4356761 -0.0027,0.2300711 -0.01187,0.4455944 -0.0198,0.4789462 -0.008,0.033368 -0.01314,0.1806952 -0.0115,0.327433 0.0056,0.4942565 0.0016,0.5465364 -0.04495,0.6266357 -0.03899,0.066687 -0.05897,0.077201 -0.152605,0.080256 -0.180712,0.0059 -0.268046,-0.088071 -0.296304,-0.3188234 -0.01974,-0.1610639 -0.0232,-0.1676238 -0.394504,-0.7473985 -0.03715,-0.057991 -0.06719,-0.077243 -0.12054,-0.077243 -0.0687,0 -0.07287,0.00682 -0.125813,0.2061564 -0.03013,0.1133918 -0.05501,0.2754289 -0.05531,0.3600818 -5.4e-4,0.1791106 -0.05979,0.4056719 -0.111022,0.4253356 -0.03467,0.013304 -0.275181,-0.023039 -0.297023,-0.044887 -0.06021,-0.060214 -0.03921,-0.4800603 0.0412,-0.8235283 0.09723,-0.4153578 0.1216,-0.6895806 0.09179,-1.0327133 -0.0166,-0.1909922 0.01785,-0.3677557 0.08311,-0.4268446 0.06109,-0.055281 0.181198,-0.055855 0.29593,-0.00162 0.102595,0.048672 0.108298,0.066255 0.119849,0.3690213 0.0098,0.257874 0.0444,0.3387737 0.255446,0.5979782 0.07626,0.093651 0.153617,0.19083 0.171917,0.2159614 0.04186,0.057461 0.13808,0.059414 0.160016,0.00325 0.0091,-0.023363 0.02136,-0.1625025 0.02715,-0.3092402 0.0058,-0.1467379 0.02136,-0.3261027 0.0345,-0.3985874 0.0132,-0.072485 0.02396,-0.1850757 0.02396,-0.2502 0,-0.1540388 0.03223,-0.2122407 0.117585,-0.2122407 0.07378,0 0.169387,0.088211 0.216875,0.2000996 0.03493,0.082321 0.07699,0.084437 0.149275,0.00752 0.07946,-0.084582 0.28094,-0.1774557 0.44844,-0.2067136 0.07915,-0.013845 0.292274,-0.025148 0.473596,-0.025148 0.54889,0 0.909307,0.062826 1.013331,0.1766392 0.118433,0.1295726 0.202858,0.3982412 0.175201,0.5575312 -0.02083,0.1200538 0.02336,0.1908084 0.08647,0.1384255 0.06352,-0.052728 0.149182,-0.1977684 0.217584,-0.3684425 0.09811,-0.244792 0.136343,-0.2773379 0.37597,-0.3199969 0.113383,-0.020173 0.395035,-0.085751 0.625879,-0.1457048 0.302907,-0.078661 0.435141,-0.1031323 0.475138,-0.087925 0.1152,0.043806 0.216914,0.4581357 0.129888,0.5290791 -0.01666,0.013575 -0.155835,0.047916 -0.309247,0.076319 -0.153405,0.028393 -0.424298,0.085264 -0.60198,0.126398 -0.350206,0.081078 -0.401908,0.1102605 -0.488481,0.2757208 l -0.05078,0.097016 0.05869,0.05116 c 0.04684,0.040831 0.08246,0.049268 0.176483,0.041642 0.243997,-0.019794 0.427948,-0.060376 0.554205,-0.1222985 0.159323,-0.078142 0.182177,-0.065222 0.252401,0.142725 0.04423,0.1310488 0.04592,0.1550391 0.01568,0.2274264 -0.02623,0.062707 -0.05471,0.086308 -0.126599,0.1048312 -0.12384,0.031908 -0.39113,0.071641 -0.758614,0.1127693 -0.329295,0.036884 -0.419653,0.076006 -0.43307,0.1876554 -0.0057,0.047645 0.01352,0.078001 0.083,0.1310003 0.130373,0.099444 0.293092,0.095334 0.576481,-0.014548 l 0.215458,-0.083545 0.04397,0.054276 c 0.08764,0.1082263 0.08982,0.3936227 0.0038,0.4716453 -0.02315,0.020929 -0.10205,0.065979 -0.175369,0.1001088 -0.110586,0.051485 -0.168484,0.06196 -0.339483,0.061501 -0.133915,-3.678e-4 -0.250237,-0.015792 -0.331938,-0.044021 z m -0.89373,-1.6305131 c 0.08587,-0.061663 0.106421,-0.091949 0.117258,-0.172767 0.0073,-0.053864 0.008,-0.1115416 0.0016,-0.1281016 -0.01969,-0.051268 -0.115866,-0.080607 -0.323637,-0.09873 -0.158299,-0.01379 -0.204128,-0.010438 -0.221033,0.016224 -0.01174,0.01855 -0.02147,0.1177181 -0.02169,0.2204393 -4.59e-4,0.2190763 0.01465,0.2358091 0.21395,0.2369447 0.10659,5.408e-4 0.147813,-0.012439 0.233554,-0.074037 z m 5.033583,1.5923806 C 77.431648,8.0312801 77.247502,7.933491 77.046191,7.7791332 76.866129,7.64107 76.73197,7.5028013 76.676705,7.3983168 c -0.01779,-0.033584 -0.05143,-0.054568 -0.08751,-0.054568 -0.08277,0 -0.108043,0.1118225 -0.09182,0.4062343 0.01078,0.1962489 0.0057,0.2527797 -0.02861,0.319229 -0.03986,0.077054 -0.04677,0.080186 -0.151486,0.068385 -0.177099,-0.019956 -0.207109,-0.06831 -0.216941,-0.349471 -0.0044,-0.1310164 -0.0084,-0.2510815 -0.0085,-0.2668029 -3.67e-4,-0.066027 -0.07774,-0.1048141 -0.209125,-0.1048141 -0.152978,0 -0.431431,0.063664 -0.515511,0.1178694 -0.03342,0.021524 -0.107062,0.1413676 -0.175876,0.2861965 -0.06512,0.1370194 -0.137468,0.2592747 -0.160793,0.2716754 -0.07259,0.038614 -0.240963,-0.057726 -0.273564,-0.1564994 -0.03693,-0.1119581 -0.01244,-0.2106884 0.09888,-0.3979707 0.112947,-0.1900728 0.15902,-0.297483 0.19341,-0.4509323 0.01801,-0.080435 0.05094,-0.1385175 0.107753,-0.1901864 0.04938,-0.044887 0.149447,-0.2068488 0.252309,-0.408284 0.337216,-0.6603769 0.577369,-0.8938822 0.776132,-0.7546617 0.09026,0.063216 0.220753,0.2893656 0.246609,0.4273746 0.01314,0.07018 0.04688,0.2230947 0.07504,0.339823 0.04445,0.1844917 0.05788,0.2122191 0.102848,0.2121974 0.03618,-1.62e-5 0.07165,-0.034558 0.118106,-0.115208 0.03651,-0.06335 0.09713,-0.1484413 0.134737,-0.1890995 0.224187,-0.242434 0.7333,-0.4583575 1.150886,-0.4881074 l 0.212045,-0.015088 0.08115,0.086043 c 0.166374,0.176412 0.220023,0.3882525 0.150966,0.5961504 -0.06394,0.1925335 -0.118093,0.2466253 -0.246857,0.2466253 -0.125084,0 -0.244371,-0.053108 -0.256106,-0.1140783 -0.0044,-0.023092 -0.0022,-0.096902 0.0048,-0.1640437 0.0073,-0.067141 0.0038,-0.1520864 -0.0082,-0.1887748 -0.01822,-0.056769 -0.03461,-0.06665 -0.110005,-0.066384 -0.300934,0.00108 -0.804081,0.4951164 -0.804081,0.7895547 0,0.072236 0.214003,0.2475068 0.45648,0.3738724 0.149789,0.078054 0.178544,0.084459 0.38139,0.084885 0.205572,4.597e-4 0.226815,-0.00432 0.337244,-0.076162 0.108697,-0.070673 0.183123,-0.08283 0.183123,-0.029907 0,0.03115 0.115248,0.02677 0.134959,-0.00487 0.0091,-0.014711 0.02147,-0.082944 0.02752,-0.1515889 0.0125,-0.1421193 0.156023,-0.5940629 0.226858,-0.7143659 0.02671,-0.045374 0.04721,-0.1247647 0.04721,-0.1828314 0,-0.1296212 0.08896,-0.309489 0.172718,-0.3492006 0.07349,-0.034829 0.690079,-0.1370736 1.149139,-0.1905326 0.173416,-0.020173 0.394553,-0.057932 0.491418,-0.083863 0.225815,-0.060451 0.277186,-0.059322 0.338579,0.00741 0.110247,0.119871 0.152114,0.2207042 0.152211,0.3665497 l 9.2e-5,0.1422005 -0.175845,-0.011031 c -0.340823,-0.021362 -1.43653,0.080786 -1.568898,0.1462457 -0.09917,0.049051 -0.165218,0.1340342 -0.185779,0.2390649 -0.01228,0.062712 -0.0054,0.081754 0.03824,0.1050793 0.07431,0.039749 0.524347,0.041912 0.638046,0.00324 0.07915,-0.027041 0.1001,-0.026013 0.151276,0.00752 0.0844,0.055298 0.15704,0.2115916 0.15704,0.3378599 0,0.1393719 -0.10693,0.2688146 -0.202285,0.2448784 -0.03488,-0.00877 -0.08371,-5.409e-4 -0.116798,0.019686 -0.04554,0.027852 -0.126425,0.031854 -0.407143,0.020226 -0.357967,-0.014818 -0.442646,-0.00108 -0.456973,0.073129 -0.0038,0.020822 0.01401,0.064221 0.04008,0.09641 0.04315,0.053324 0.0684,0.059273 0.283893,0.067055 0.130091,0.00487 0.298109,-0.00432 0.373363,-0.020497 0.116241,-0.024661 0.150799,-0.023201 0.229612,0.00974 0.09132,0.038182 0.09258,0.040453 0.08052,0.1474788 -0.0278,0.2465874 -0.165406,0.3107111 -0.673156,0.3136693 -0.382984,0.00217 -0.425801,-0.012277 -0.643108,-0.2177568 -0.07679,-0.072609 -0.147717,-0.132017 -0.157615,-0.132017 -0.02732,0 -0.06479,0.051755 -0.141686,0.1956486 -0.102777,0.1923497 -0.162849,0.228254 -0.387257,0.2314556 -0.131297,0.00162 -0.232732,-0.012709 -0.343885,-0.04943 z m -1.57593,-1.3130201 c 0.01303,-0.034233 0.02364,-0.148436 0.02364,-0.2538182 0,-0.1687541 -0.0059,-0.1947941 -0.05008,-0.218395 -0.06815,-0.036451 -0.09664,-0.00897 -0.215707,0.2079628 -0.09184,0.1673535 -0.119607,0.2725626 -0.08188,0.3102948 0.0088,0.00886 0.08011,0.016171 0.158251,0.016171 0.1302,0 0.144061,-0.00541 0.165736,-0.062214 z M 66.474888,8.103489 C 66.448218,8.097589 66.32111,8.060062 66.192446,8.020172 66.002384,7.961229 65.93825,7.928483 65.85047,7.8455662 65.676372,7.681117 65.65091,7.6139646 65.650993,7.3194939 c 7.3e-5,-0.2389998 0.0057,-0.2680522 0.09062,-0.4721103 0.09063,-0.2176596 0.112087,-0.3363564 0.06594,-0.3648732 -0.05031,-0.031097 -0.120927,-0.207222 -0.120927,-0.3016203 0,-0.1358567 0.08899,-0.2237544 0.291052,-0.2874888 0.08671,-0.027365 0.201309,-0.05579 0.254669,-0.063194 0.05336,-0.00741 0.206161,-0.04175 0.339559,-0.076357 0.133399,-0.034612 0.336294,-0.068974 0.450879,-0.076411 l 0.208335,-0.01352 0.0481,0.06984 c 0.07381,0.1072043 0.155231,0.316606 0.139267,0.3582051 -0.01454,0.03791 -0.04733,0.053108 -0.155327,0.072041 -0.233982,0.040993 -0.409866,0.076876 -0.635929,0.129724 -0.304145,0.071101 -0.38275,0.1247431 -0.38275,0.2611947 0,0.1245268 0.0728,0.1490633 0.327432,0.1103634 0.409181,-0.062188 0.439347,-0.061738 0.484484,0.00714 0.03774,0.057607 0.108806,0.2835734 0.10946,0.3480649 4.59e-4,0.045319 -0.144413,0.081122 -0.427828,0.1057877 -0.538686,0.046889 -0.64529,0.079931 -0.669695,0.2076059 -0.02717,0.142103 0.239407,0.2598157 0.455073,0.2009431 0.198987,-0.054314 0.23677,-0.044725 0.298332,0.075713 0.044,0.086091 0.05255,0.1315843 0.04049,0.2153827 -0.02554,0.1772936 -0.05547,0.2180003 -0.189575,0.2578256 -0.06691,0.019848 -0.127871,0.034882 -0.135454,0.033314 -0.0076,-0.00162 -0.03562,-0.00768 -0.0623,-0.013575 z m 1.406704,-0.062593 c -0.237206,-0.066503 -0.237001,-0.066374 -0.30311,-0.1932042 -0.02943,-0.05646 -0.07902,-0.1329687 -0.110186,-0.1700195 -0.09515,-0.1130782 -0.100004,-0.2533638 -0.02244,-0.6492309 0.04742,-0.2420013 0.09779,-0.4170937 0.161507,-0.5613979 0.05093,-0.1153437 0.09952,-0.2626873 0.107971,-0.3274331 0.0085,-0.064746 0.02466,-0.1358891 0.03601,-0.1581055 0.02608,-0.051053 0.279356,-0.134137 0.469847,-0.1541741 0.08004,-0.00844 0.200098,-0.029799 0.266797,-0.047483 0.178984,-0.047483 0.446581,-0.089044 0.493032,-0.076546 0.02228,0.00601 0.0688,0.017143 0.103309,0.024769 0.117536,0.025959 0.270366,0.3423756 0.189505,0.3923518 -0.03039,0.018766 -0.195616,0.043319 -0.621266,0.092327 -0.335379,0.038614 -0.421176,0.075427 -0.519214,0.2228243 -0.150438,0.2261772 -0.105501,0.275764 0.197786,0.2182327 0.107039,-0.02028 0.248798,-0.060225 0.315014,-0.088709 0.114255,-0.049159 0.123581,-0.0497 0.18275,-0.010922 0.118832,0.077861 0.202567,0.3814545 0.123343,0.4472061 -0.072,0.05976 -0.328536,0.125511 -0.631059,0.1617561 -0.39304,0.047104 -0.488793,0.071283 -0.533252,0.1347589 -0.04773,0.068152 -0.03528,0.1197789 0.04302,0.1782831 0.05323,0.039804 0.111228,0.05116 0.295037,0.057916 0.199052,0.0073 0.240154,0.00162 0.316287,-0.04321 0.04813,-0.028393 0.105973,-0.045753 0.128534,-0.038614 0.05882,0.018658 0.147603,0.2157127 0.147603,0.3275954 0,0.1504261 -0.04094,0.2124677 -0.167259,0.2535421 -0.202365,0.065795 -0.451714,0.068597 -0.669557,0.00752 z M 63.945577,8.033546 C 63.830693,7.953074 63.81068,7.8685129 63.831322,7.5507387 c 0.02474,-0.3807677 0.02395,-0.3960726 -0.02296,-0.4479199 -0.104811,-0.1158147 -0.05559,-0.3456693 0.08863,-0.4139139 0.06637,-0.031421 0.08621,-0.064443 0.144997,-0.2414444 0.03745,-0.1127851 0.06811,-0.2197795 0.06811,-0.2377668 0,-0.017954 -0.02728,-0.072853 -0.06064,-0.1219363 -0.07382,-0.108638 -0.07891,-0.2381184 -0.01432,-0.364711 0.04905,-0.096166 0.09967,-0.1305947 0.257477,-0.1751735 0.08144,-0.022984 0.132868,-0.019199 0.310191,0.022876 0.116907,0.027744 0.252282,0.077471 0.300826,0.1104603 0.160482,0.1090485 0.320303,0.4398025 0.321566,0.6654929 9.2e-4,0.1672454 -0.08621,0.420739 -0.193937,0.5641075 -0.05308,0.070645 -0.09652,0.1457752 -0.09652,0.1669424 0,0.051864 0.126646,0.1781047 0.282452,0.2815238 0.07027,0.046617 0.161599,0.1233478 0.202968,0.1704631 0.09092,0.1035536 0.08283,0.1860439 -0.03229,0.3292987 C 65.245027,8.036791 65.152692,8.0168947 64.882778,7.7501939 64.670675,7.540614 64.350436,7.2952326 64.289024,7.2952326 c -0.04427,0 -0.11101,0.1533898 -0.11101,0.2551268 0,0.041427 0.0075,0.1437147 0.01669,0.2273347 0.0225,0.2049776 -0.01329,0.2936756 -0.11853,0.2936756 -0.0421,0 -0.100875,-0.017035 -0.130594,-0.037857 z M 64.75241,6.5111569 c 0.10004,-0.095853 0.109569,-0.1150845 0.109569,-0.2210829 0,-0.1028671 -0.01017,-0.1254461 -0.08963,-0.1981904 -0.11497,-0.1053058 -0.238735,-0.1147007 -0.274425,-0.020822 -0.04789,0.12596 -0.0724,0.4621649 -0.03778,0.518182 0.0092,0.014818 0.05399,0.026933 0.09967,0.026933 0.06488,0 0.10699,-0.022984 0.192602,-0.1049873 z"
       id="path1351" />
    <text
       xml:space="preserve"
       style="font-style:normal;font-weight:normal;font-size:3.88056px;line-height:1.25;font-family:sans-serif;letter-spacing:0px;word-spacing:0px;fill:#008080;fill-opacity:1;stroke:none;stroke-width:0.264583"
       x="11.808019"
       y="42.210945"
       id="text32"><tspan
         sodipodi:role="line"
         id="tspan30"
         x="11.808019"
         y="42.210945"
         style="font-style:normal;font-variant:normal;font-weight:normal;font-stretch:normal;font-family:Arial;-inkscape-font-specification:Arial;fill:#008080;stroke-width:0.264583">Client</tspan></text>
    <path
       style="fill:#008080;stroke-width:0.0512006"
       d="m 65.381681,29.606519 c -1.490033,-0.296087 -2.694208,-1.243917 -3.312365,-2.607222 -0.479344,-1.057174 -0.506343,-2.404548 -0.07047,-3.51677 0.407388,-1.039516 1.306546,-1.979112 2.344176,-2.449596 0.342275,-0.155196 0.957709,-0.326857 1.368688,-0.381765 0.233394,-0.03118 0.23483,-0.03261 0.326284,-0.323902 0.218552,-0.696091 0.738888,-1.52518 1.333212,-2.124273 1.009841,-1.017955 2.343001,-1.574576 3.802215,-1.587498 l 0.576073,-0.0051 0.36335,-0.477113 c 0.94409,-1.239663 2.25895,-2.064701 3.86166,-2.423069 0.65506,-0.146475 1.75988,-0.160475 2.47773,-0.03139 2.417024,0.434612 4.434534,2.259401 5.115104,4.626482 l 0.13995,0.486759 0.47105,0.168188 c 1.38082,0.493016 2.47697,1.463619 3.10778,2.751827 1.47358,3.009255 -0.014,6.594972 -3.18343,7.673648 -0.90676,0.308598 -0.62223,0.30011 -9.895694,0.295176 -6.938681,-0.0037 -8.537406,-0.01717 -8.825316,-0.07438 z m 17.964647,-2.062666 c 1.1982,-0.400277 2.09184,-1.335542 2.41131,-2.523639 0.11916,-0.443164 0.11968,-1.293439 0.001,-1.734289 -0.26692,-0.991926 -0.93459,-1.810409 -1.85196,-2.270284 -0.41367,-0.20737 -0.78909,-0.311341 -1.43081,-0.396259 -0.25345,-0.03354 -0.48684,-0.08666 -0.51866,-0.118038 -0.0318,-0.03138 -0.094,-0.349805 -0.13828,-0.707609 -0.21234,-1.717221 -1.04525,-2.980123 -2.437744,-3.696233 -0.56775,-0.291971 -0.99821,-0.420906 -1.64158,-0.491702 -1.31835,-0.145067 -2.65491,0.323332 -3.60387,1.262981 -0.42513,0.420955 -0.6443,0.727468 -0.98241,1.373876 -0.16203,0.309764 -0.30126,0.571784 -0.30942,0.582266 -0.008,0.01048 -0.28657,-0.03205 -0.61871,-0.09451 -0.704885,-0.132562 -1.388363,-0.143172 -1.832696,-0.02845 -0.598698,0.154577 -1.132963,0.464056 -1.583883,0.917479 -0.690237,0.69407 -0.918146,1.196793 -1.105108,2.437663 -0.06151,0.408326 -0.115273,0.745532 -0.119452,0.749348 -0.0039,0.0038 -0.307113,-0.03792 -0.673201,-0.09276 -0.420813,-0.06303 -0.773541,-0.08823 -0.95908,-0.0685 -1.615212,0.171725 -2.663558,1.802848 -2.138866,3.327878 0.276084,0.802461 0.978792,1.440649 1.81014,1.64394 0.207537,0.05075 2.087172,0.06259 8.814306,0.05554 l 8.550514,-0.009 0.35841,-0.119729 z"
       id="path48" />
    <text
       xml:space="preserve"
       style="font-style:normal;font-weight:normal;font-size:3.88056px;line-height:1.25;font-family:sans-serif;letter-spacing:0px;word-spacing:0px;fill:#008080;fill-opacity:1;stroke:none;stroke-width:0.264583"
       x="52.098633"
       y="77.339371"
       id="text32-6-9"><tspan
         sodipodi:role="line"
         id="tspan30-9-6"
         x="52.098633"
         y="77.339371"
         style="font-style:normal;font-variant:normal;font-weight:normal;font-stretch:normal;font-family:Arial;-inkscape-font-specification:Arial;fill:#008080;stroke-width:0.264583" /></text>
    <text
       xml:space="preserve"
       style="font-style:normal;font-weight:normal;font-size:3.88056px;line-height:1.25;font-family:sans-serif;letter-spacing:0px;word-spacing:0px;fill:#000000;fill-opacity:1;stroke:none;stroke-width:0.264583"
       x="53.105656"
       y="76.351196"
       id="text100"><tspan
         sodipodi:role="line"
         id="tspan98"
         x="53.105656"
         y="76.351196"
         style="stroke-width:0.264583" /></text>
    <text
       xml:space="preserve"
       style="font-style:normal;font-weight:normal;font-size:3.88056px;line-height:1.25;font-family:sans-serif;letter-spacing:0px;word-spacing:0px;fill:#008080;fill-opacity:1;stroke:none;stroke-width:0.264583"
       x="72.320366"
       y="23.950235"
       id="text32-6-7"><tspan
         sodipodi:role="line"
         id="tspan30-9-0"
         x="72.320366"
         y="23.950235"
         style="font-style:normal;font-variant:normal;font-weight:normal;font-stretch:normal;font-family:Arial;-inkscape-font-specification:Arial;fill:#008080;stroke-width:0.264583">{...}</tspan></text>
    <text
       xml:space="preserve"
       style="font-style:normal;font-weight:normal;font-size:3.88056px;line-height:1.25;font-family:sans-serif;letter-spacing:0px;word-spacing:0px;fill:#008080;fill-opacity:1;stroke:none;stroke-width:0.264583"
       x="181.93463"
       y="30.682037"
       id="text32-6-97-0-4-6"><tspan
         sodipodi:role="line"
         id="tspan30-9-8-2-7-0"
         x="181.93463"
         y="30.682037"
         style="font-style:normal;font-variant:normal;font-weight:normal;font-stretch:normal;font-family:Arial;-inkscape-font-specification:Arial;text-align:center;text-anchor:middle;fill:#008080;stroke-width:0.264583">Google Cloud </tspan><tspan
         sodipodi:role="line"
         x="181.93463"
         y="35.57766"
         style="font-style:normal;font-variant:normal;font-weight:normal;font-stretch:normal;font-family:Arial;-inkscape-font-specification:Arial;text-align:center;text-anchor:middle;fill:#008080;stroke-width:0.264583"
         id="tspan238">Platform</tspan></text>
    <text
       xml:space="preserve"
       style="font-style:normal;font-weight:normal;font-size:3.88056px;line-height:1.25;font-family:sans-serif;letter-spacing:0px;word-spacing:0px;fill:#008080;fill-opacity:1;stroke:none;stroke-width:0.264583"
       x="65.040749"
       y="109.28861"
       id="text32-6-97-0-4-7"><tspan
         sodipodi:role="line"
         id="tspan30-9-8-2-7-3"
         x="65.040749"
         y="109.28861"
         style="font-style:normal;font-variant:normal;font-weight:normal;font-stretch:normal;font-family:Arial;-inkscape-font-specification:Arial;fill:#008080;stroke-width:0.264583">Cloud Tasks</tspan></text>
    <text
       xml:space="preserve"
       style="font-style:normal;font-weight:normal;font-size:3.88056px;line-height:1.25;font-family:sans-serif;letter-spacing:0px;word-spacing:0px;fill:#008080;fill-opacity:1;stroke:none;stroke-width:0.264583"
       x="178.41139"
       y="82.34256"
       id="text32-6-97-0-4-7-7"><tspan
         sodipodi:role="line"
         id="tspan30-9-8-2-7-3-0"
         x="178.41139"
         y="82.34256"
         style="font-style:normal;font-variant:normal;font-weight:normal;font-stretch:normal;font-family:Arial;-inkscape-font-specification:Arial;fill:#008080;stroke-width:0.264583">MySQL</tspan></text>
    <path
       style="fill:#000000;stroke:#000000;stroke-width:0.323673;stroke-linecap:butt;stroke-linejoin:miter;stroke-miterlimit:4;stroke-dasharray:none;stroke-opacity:1;marker-start:url(#Arrow2Lstart-78-2)"
       d="M 91.878608,19.140311 H 157.92879"
       id="path10-9-3" />
    <text
       xml:space="preserve"
       style="font-style:normal;font-weight:normal;font-size:3.88056px;line-height:1.25;font-family:sans-serif;letter-spacing:0px;word-spacing:0px;fill:#000000;fill-opacity:1;stroke:none;stroke-width:0.264583"
       x="97.404488"
       y="27.592255"
       id="text1237"><tspan
         sodipodi:role="line"
         id="tspan1235"
         x="97.404488"
         y="27.592255"
         style="font-size:2.82222px;stroke-width:0.264583">requests - method: GETt</tspan></text>
    <text
       xml:space="preserve"
       style="font-style:normal;font-weight:normal;font-size:3.88056px;line-height:1.25;font-family:sans-serif;letter-spacing:0px;word-spacing:0px;fill:#000000;fill-opacity:1;stroke:none;stroke-width:0.264583"
       x="97.145508"
       y="31.882385"
       id="text1237-2"><tspan
         sodipodi:role="line"
         id="tspan1235-5"
         x="97.145508"
         y="31.882385"
         style="font-size:2.82222px;stroke-width:0.264583">https://url_cloud_run_gcp/get_articles</tspan></text>
    <path
       style="fill:#000000;stroke:#000000;stroke-width:0.323673;stroke-linecap:butt;stroke-linejoin:miter;stroke-miterlimit:4;stroke-dasharray:none;stroke-opacity:1;marker-start:url(#Arrow2Lstart-78-2-5)"
       d="M 160.19998,46.683317 H 94.149798"
       id="path10-9-3-7" />
    <text
       xml:space="preserve"
       style="font-style:normal;font-weight:normal;font-size:3.88056px;line-height:1.25;font-family:sans-serif;letter-spacing:0px;word-spacing:0px;fill:#000000;fill-opacity:1;stroke:none;stroke-width:0.264583"
       x="98.25943"
       y="54.308273"
       id="text1237-4"><tspan
         sodipodi:role="line"
         id="tspan1235-2"
         x="98.25943"
         y="54.308273"
         style="font-size:2.82222px;stroke-width:0.264583">response - 200</tspan></text>
    <text
       xml:space="preserve"
       style="font-style:normal;font-weight:normal;font-size:3.88056px;line-height:1.25;font-family:sans-serif;letter-spacing:0px;word-spacing:0px;fill:#000000;fill-opacity:1;stroke:none;stroke-width:0.264583"
       x="98.00045"
       y="58.409416"
       id="text1237-2-8"><tspan
         sodipodi:role="line"
         id="tspan1235-5-8"
         x="98.00045"
         y="58.409416"
         style="font-size:2.82222px;stroke-width:0.264583">json()</tspan></text>
    <path
       style="fill:#000000;stroke:#000000;stroke-width:0.177832;stroke-linecap:butt;stroke-linejoin:miter;stroke-miterlimit:4;stroke-dasharray:none;stroke-opacity:1;marker-start:url(#Arrow2Lstart-71)"
       d="M 55.730965,25.320746 H 35.793076"
       id="path10-9" />
    <path
       style="fill:#000000;stroke:#000000;stroke-width:0.323673;stroke-linecap:butt;stroke-linejoin:miter;stroke-miterlimit:4;stroke-dasharray:none;stroke-opacity:1;marker-start:url(#Arrow2Lstart-78-2-7)"
       d="M 93.482609,77.177443 H 159.53276"
       id="path10-9-3-0" />
    <rect
       style="fill:none;fill-opacity:1;stroke:url(#linearGradient1785);stroke-width:0.446328;stroke-opacity:1"
       id="rect1221-7"
       width="66.253227"
       height="17.351168"
       x="97.545319"
       y="81.596016" />
    <text
       xml:space="preserve"
       style="font-style:normal;font-weight:normal;font-size:3.88056px;line-height:1.25;font-family:sans-serif;letter-spacing:0px;word-spacing:0px;fill:#000000;fill-opacity:1;stroke:none;stroke-width:0.264583"
       x="99.008522"
       y="85.629395"
       id="text1237-5"><tspan
         sodipodi:role="line"
         id="tspan1235-56"
         x="99.008522"
         y="85.629395"
         style="font-size:2.82222px;stroke-width:0.264583">requests - method: POST</tspan></text>
    <text
       xml:space="preserve"
       style="font-style:normal;font-weight:normal;font-size:3.88056px;line-height:1.25;font-family:sans-serif;letter-spacing:0px;word-spacing:0px;fill:#000000;fill-opacity:1;stroke:none;stroke-width:0.264583"
       x="98.749512"
       y="89.919525"
       id="text1237-2-6"><tspan
         id="tspan1235-5-9"
         x="98.749512"
         y="89.919525"
         style="font-size:2.82222px;stroke-width:0.264583"
         sodipodi:role="line">hhttps://url_cloud_run_gcp/create_task/</tspan><tspan
         x="98.749512"
         y="94.770226"
         style="font-size:2.82222px;stroke-width:0.264583"
         sodipodi:role="line"
         id="tspan203">&lt;description&gt;y</tspan></text>
    <rect
       style="fill:none;fill-opacity:1;stroke:url(#linearGradient2238);stroke-width:0.360263;stroke-opacity:1"
       id="rect1221-7-6"
       width="66.339294"
       height="11.290034"
       x="96.728714"
       y="50.786461" />
    <rect
       style="fill:none;fill-opacity:1;stroke:url(#linearGradient2266);stroke-width:0.360263;stroke-opacity:1"
       id="rect1221-7-6-5"
       width="66.339294"
       height="11.290034"
       x="96.188805"
       y="23.760002" />
    <text
       xml:space="preserve"
       style="font-style:normal;font-weight:normal;font-size:3.52778px;line-height:1.25;font-family:sans-serif;letter-spacing:0px;word-spacing:0px;fill:#000000;fill-opacity:1;stroke:none;stroke-width:0.264583"
       x="5.746295"
       y="8.15172"
       id="text2271"><tspan
         id="tspan2269"
         x="5.746295"
         y="8.15172"
         style="font-size:3.52778px;stroke-width:0.264583"
         sodipodi:role="line">SENTIMENT CLASSIFICATION</tspan></text>
    <path
       style="fill:#008080;stroke-width:0.0323189"
       d="m 80.440172,155.92809 c -0.96767,-0.13082 -1.96697,-0.48515 -2.75431,-0.97662 -1.70982,-1.0673 -2.86025,-2.82168 -3.12091,-4.75934 -0.0646,-0.48054 -0.0648,-1.28406 -3.7e-4,-1.76705 0.471,-3.52996 3.78716,-6.09537 7.43319,-5.75039 2.95979,0.28005 5.39235,2.37422 6.03778,5.19785 0.5157,2.25614 -0.23101,4.64387 -1.9572,6.25841 -1.07628,1.0067 -2.49503,1.65878 -3.94265,1.8121 -0.42441,0.045 -1.31024,0.0372 -1.69554,-0.015 z m 5.36924,-2.5675 c 0,-0.0175 -0.0221,-0.0319 -0.0491,-0.0319 -0.0537,0 -1.29693,-0.96214 -1.47804,-1.14386 -0.0797,-0.0801 -0.1,-0.11855 -0.07,-0.13336 0.0231,-0.0115 0.31464,-0.0753 0.64776,-0.14187 0.33313,-0.0666 0.61751,-0.13131 0.63196,-0.14387 0.0443,-0.0385 -0.59277,-0.59892 -0.9246,-0.81343 -0.27403,-0.17716 -0.60187,-0.35059 -1.02567,-0.5426 -0.26844,-0.12161 -0.49196,-0.46336 -0.90494,-1.38364 -0.44372,-0.98876 -1.05506,-1.7827 -1.78731,-2.32116 -0.82544,-0.60699 -1.22266,-0.78851 -1.9061,-0.87103 -0.16833,-0.0203 -0.33088,-0.063 -0.43399,-0.1139 -0.18173,-0.0897 -0.57385,-0.33348 -0.66374,-0.41257 -0.0454,-0.0399 -0.13763,-0.0504 -0.44519,-0.0504 h -0.38789 l -0.0623,0.13478 c -0.0401,0.0868 -0.0616,0.20326 -0.0604,0.32702 0.002,0.23216 0.0837,0.40054 0.36487,0.75455 0.13949,0.1756 0.26524,0.39751 0.452,0.7976 0.1423,0.30488 0.33842,0.7032 0.43583,0.88516 0.20155,0.37656 0.19972,0.35127 0.0745,1.02507 -0.0815,0.43886 -0.0899,0.95973 -0.0196,1.22258 0.16113,0.60277 0.66072,0.98248 0.91115,0.69248 0.0903,-0.10454 0.14568,-0.2454 0.20086,-0.51047 l 0.0364,-0.17466 0.40462,0.4937 c 0.50236,0.61294 0.48485,0.59452 0.52638,0.55405 0.0228,-0.0222 -0.12115,-0.29832 -0.45219,-0.86709 -0.47724,-0.81993 -0.48692,-0.83361 -0.55659,-0.78605 -0.13297,0.0907 -0.22852,0.30767 -0.31331,0.71128 -0.0456,0.21707 -0.0911,0.40266 -0.10117,0.41243 -0.0335,0.0326 -0.21909,-0.16709 -0.30141,-0.32434 -0.11433,-0.21839 -0.17325,-0.52463 -0.17392,-0.90389 -4.7e-4,-0.35456 0.0284,-0.53036 0.15093,-0.91655 0.0522,-0.16449 0.0731,-0.28722 0.0597,-0.35093 -0.0187,-0.0887 -0.97888,-1.84215 -1.19808,-2.1877 -0.0501,-0.079 -0.12746,-0.20099 -0.17191,-0.27119 -0.12241,-0.19321 -0.13641,-0.2852 -0.0554,-0.36412 0.13067,-0.12733 0.28019,-0.0931 0.86377,0.19802 0.54138,0.27003 0.75836,0.34157 1.03594,0.34157 0.26635,0 0.95409,0.31384 1.45429,0.66364 0.77087,0.53909 1.1871,1.1087 2.02118,2.76605 0.21194,0.42113 0.41213,0.79477 0.44486,0.8303 0.13294,0.14436 0.30297,0.23808 0.55103,0.30374 0.14381,0.0381 0.38671,0.13266 0.53976,0.21019 0.34307,0.1738 0.98218,0.60487 0.98218,0.66248 0,0.0301 -0.11725,0.0577 -0.40509,0.0953 -0.60622,0.0791 -0.93722,0.17704 -0.93722,0.27715 0,0.14234 0.3191,0.45303 0.73961,0.72015 0.2175,0.13814 1.29439,0.70753 1.34752,0.71246 0.005,3.6e-4 0.008,-0.0136 0.008,-0.0311 z m -6.75751,-6.35747 c -0.0107,-0.0523 -0.0195,-0.11507 -0.0195,-0.13945 0,-0.0522 -0.18743,-0.17072 -0.27011,-0.17089 -0.085,-2.5e-4 -0.0712,0.0471 0.0741,0.2557 0.0942,0.13525 0.14602,0.18305 0.18322,0.16914 0.038,-0.0142 0.0466,-0.0448 0.0323,-0.1145 z m -6.32607,8.20641 c -2.59533,-0.11861 -5.086,-0.51869 -6.98561,-1.12212 -2.02131,-0.64208 -3.25407,-1.44826 -3.64117,-2.38118 l -0.0747,-0.18012 -0.006,-2.24923 c -0.006,-2.19226 -0.004,-2.24473 0.0521,-2.07172 0.1125,0.34501 0.26538,0.57394 0.60785,0.91022 0.37103,0.36432 0.73014,0.60734 1.36181,0.92153 1.98772,0.98865 5.27466,1.65706 8.83591,1.79678 l 0.57181,0.0224 0.11977,0.46261 c 0.21467,0.82916 0.5434,1.56403 1.009,2.25559 0.34117,0.50673 0.59901,0.81698 1.04008,1.25151 0.20352,0.20051 0.36159,0.37279 0.35128,0.38285 -0.0304,0.0297 -2.5967,0.0304 -3.24236,9.2e-4 z m -0.20857,-5.15618 c -0.081,-0.005 -0.39042,-0.0252 -0.68753,-0.044 -3.55004,-0.2234 -6.84242,-1.04653 -8.51819,-2.12964 -0.61003,-0.39429 -1.04361,-0.85836 -1.21342,-1.29875 l -0.0738,-0.19142 -0.006,-2.24923 c -0.006,-2.19227 -0.004,-2.24474 0.0521,-2.07172 0.11099,0.34037 0.26606,0.57448 0.59156,0.89302 0.63993,0.62625 1.57735,1.12007 3.00176,1.58126 2.11033,0.6833 4.56775,1.05752 7.639,1.16327 0.58521,0.0202 1.06626,0.0386 1.06899,0.0409 0.003,0.002 -0.0946,0.20017 -0.2163,0.4395 -0.54371,1.06925 -0.79594,2.10511 -0.80102,3.2896 l -0.002,0.59817 -0.34376,-0.005 c -0.18907,-0.004 -0.41006,-0.01 -0.49109,-0.0155 z m 0,-5.11913 c -3.34049,-0.16175 -6.43596,-0.79764 -8.36489,-1.71835 -1.22031,-0.58249 -1.90953,-1.20909 -2.09559,-1.9052 -0.0411,-0.15366 -0.0486,-0.5304 -0.0472,-2.36941 l 9.4e-4,-2.18669 0.0903,0.25523 c 0.0497,0.14038 0.12784,0.31266 0.17373,0.38285 0.97274,1.48727 4.44343,2.67421 8.94892,3.06043 2.04147,0.175 4.30487,0.1752 6.38416,4.6e-4 3.89542,-0.32717 7.14392,-1.29551 8.50673,-2.53576 0.2814,-0.25609 0.54175,-0.61262 0.6323,-0.8659 0.0604,-0.16901 0.0608,-0.16 0.0693,1.91991 0.006,1.41923 -0.003,2.1439 -0.0271,2.25861 -0.0921,0.43458 -0.46814,0.93737 -0.99551,1.331 l -0.24473,0.18268 -0.43463,-0.1921 c -2.07773,-0.91833 -4.34194,-1.02011 -6.42234,-0.28872 -0.45905,0.16139 -1.25649,0.53983 -1.64053,0.77854 -0.69032,0.4291 -1.4899,1.12046 -1.96219,1.69663 l -0.18961,0.23131 -0.9212,-0.005 c -0.50666,-0.003 -1.16428,-0.0165 -1.4614,-0.0309 z m 14.05986,-1.5382 c -0.10716,-0.0759 -0.25826,-0.17718 -0.33579,-0.22487 l -0.14095,-0.0867 0.17113,-0.18192 c 0.21944,-0.23324 0.40355,-0.51054 0.47165,-0.71034 0.0295,-0.0866 0.0598,-0.1575 0.0675,-0.1575 0.008,0 0.0138,0.33738 0.0138,0.74974 0,0.41236 -0.0118,0.74974 -0.0262,0.74974 -0.0144,0 -0.11385,-0.0622 -0.22101,-0.13814 z m -13.47056,-3.45416 c -0.11704,-0.006 -0.50008,-0.0264 -0.85121,-0.045 -4.5557,-0.24114 -8.53916,-1.4079 -9.77347,-2.86266 -0.49601,-0.58459 -0.59455,-1.16355 -0.29706,-1.74543 0.87019,-1.70217 5.05771,-3.03669 10.36517,-3.3033 0.81742,-0.0411 2.90622,-0.0412 3.73229,-2.1e-4 4.99806,0.24788 9.08956,1.47869 10.21011,3.07141 1.07533,1.52842 -0.63963,3.08792 -4.46437,4.05966 -1.4369,0.36506 -3.27893,0.63887 -5.15643,0.76647 -0.68102,0.0463 -3.24287,0.0864 -3.76503,0.059 z"
       id="path1255-1" />
    <text
       xml:space="preserve"
       style="font-style:normal;font-weight:normal;font-size:3.88056px;line-height:1.25;font-family:sans-serif;letter-spacing:0px;word-spacing:0px;fill:#008080;fill-opacity:1;stroke:none;stroke-width:0.264583"
       x="67.881508"
       y="161.75972"
       id="text32-6-97-0-4-7-7-0"><tspan
         sodipodi:role="line"
         id="tspan30-9-8-2-7-3-0-3"
         x="67.881508"
         y="161.75972"
         style="font-style:normal;font-variant:normal;font-weight:normal;font-stretch:normal;font-family:Arial;-inkscape-font-specification:Arial;fill:#008080;stroke-width:0.264583">MySQL</tspan></text>
    <path
       style="fill:#000000;stroke:#000000;stroke-width:0.323673;stroke-linecap:butt;stroke-linejoin:miter;stroke-miterlimit:4;stroke-dasharray:none;stroke-opacity:1;marker-start:url(#Arrow2Lstart-78-2-7-9)"
       d="M 95.802107,138.70718 H 161.85226"
       id="path10-9-3-0-2" />
    <rect
       style="fill:none;fill-opacity:1;stroke:url(#linearGradient230);stroke-width:0.360263;stroke-opacity:1"
       id="rect1221-7-6-6-2"
       width="66.339294"
       height="11.290034"
       x="97.792419"
       y="144.02592" />
    <text
       xml:space="preserve"
       style="font-style:normal;font-weight:normal;font-size:3.88056px;line-height:1.25;font-family:sans-serif;letter-spacing:0px;word-spacing:0px;fill:#000000;fill-opacity:1;stroke:none;stroke-width:0.264583"
       x="100.17574"
       y="148.02895"
       id="text1237-4-8"><tspan
         sodipodi:role="line"
         id="tspan1235-2-5"
         x="100.17574"
         y="148.02895"
         style="font-size:2.82222px;stroke-width:0.264583">response - 200</tspan></text>
    <text
       xml:space="preserve"
       style="font-style:normal;font-weight:normal;font-size:3.88056px;line-height:1.25;font-family:sans-serif;letter-spacing:0px;word-spacing:0px;fill:#000000;fill-opacity:1;stroke:none;stroke-width:0.264583"
       x="100.15061"
       y="152.32248"
       id="text1237-2-8-80"><tspan
         sodipodi:role="line"
         id="tspan1235-5-8-9"
         x="100.15061"
         y="152.32248"
         style="font-size:2.82222px;stroke-width:0.264583">json()</tspan></text>
  </g>
</svg>
